<svg id="Layer_1" data-name="Layer 1" xmlns="http://www.w3.org/2000/svg" xmlns:xlink="http://www.w3.org/1999/xlink" viewBox="0 0 240 137.1"><defs><style>.cls-1,.cls-2{fill:#fff;}.cls-10,.cls-13,.cls-15,.cls-16,.cls-17,.cls-18,.cls-19,.cls-2,.cls-5,.cls-6,.cls-7,.cls-8,.cls-9{fill-rule:evenodd;}.cls-3{fill:#f5f5f5;}.cls-4{mask:url(#mask);}.cls-5{fill:#e0e0e0;}.cls-6{fill:#1a3a59;}.cls-7{fill:#7eb5c7;}.cls-8{fill:#0b2d4e;}.cls-9{fill:#717bc2;}.cls-10{fill:#5160c2;}.cls-11{mask:url(#mask-2);}.cls-12{mask:url(#mask-3);}.cls-13{fill:#10a310;}.cls-14,.cls-20{fill:none;stroke-width:0.62px;}.cls-14{stroke:#1a3a59;}.cls-15{fill:#ffada1;}.cls-16{fill:#ffbdb3;}.cls-17{fill:#4c4c4c;}.cls-18{fill:#020202;}.cls-19{fill:#919191;}.cls-20{stroke:#fff;}</style><mask id="mask" x="0" y="0" width="240" height="137.25" maskUnits="userSpaceOnUse"><g id="_0tlu2i4jkb" data-name="0tlu2i4jkb"><rect id="s5db1nv35a" class="cls-1" width="240" height="137" rx="8"/></g></mask><mask id="mask-2" x="95.5" y="101.04" width="44.49" height="57.73" maskUnits="userSpaceOnUse"><g id="_76y0wp908d" data-name="76y0wp908d"><path id="_7upu1v6e3c" data-name="7upu1v6e3c" class="cls-2" d="M113.3,103.42a25.57,25.57,0,0,0-6.24,2.7c-1.71,1-3.81,1.8-4.64,3.61a120.15,120.15,0,0,0-5.29,13.49c-1.24,3.82-2.6,7.83-.65,11.71.64,1.26,1.56,2.33,2.28,3.53A8.67,8.67,0,0,1,100,142.6c.24,3.52.14,7.05.13,10.57a6.72,6.72,0,0,0,.46,3c.87,1.8,3.25,1.82,5,1.82l16.93,0a28.79,28.79,0,0,1,6.34.74,3.9,3.9,0,0,0,4.34-2.29,13.25,13.25,0,0,0,1-5.39,116.59,116.59,0,0,1,3-21.27c.47-2,1.29-4.55,1.93-7.27,1.06-4.5,1.61-9.11-.79-12.18a12,12,0,0,0-4.61-3c-3.09-1.34-6.24-3.14-9.55-3.72a36.15,36.15,0,0,0-6.29-.63,18.21,18.21,0,0,0-4.55.52"/></g></mask><mask id="mask-3" x="95.5" y="102.9" width="45.69" height="55.88" maskUnits="userSpaceOnUse"><g id="hswpgss4mf"><path id="e3dxqk6zwe" class="cls-2" d="M113.3,103.42a25.57,25.57,0,0,0-6.24,2.7c-1.71,1-3.81,1.8-4.64,3.61a120.15,120.15,0,0,0-5.29,13.49c-1.24,3.82-2.6,7.83-.65,11.71.64,1.26,1.56,2.33,2.28,3.53A8.67,8.67,0,0,1,100,142.6c.24,3.52.14,7.05.13,10.57a6.72,6.72,0,0,0,.46,3c.87,1.8,3.25,1.82,5,1.82l16.93,0a28.79,28.79,0,0,1,6.34.74,3.9,3.9,0,0,0,4.34-2.29,13.25,13.25,0,0,0,1-5.39,116.59,116.59,0,0,1,3-21.27c.47-2,1.29-4.55,1.93-7.27,1.06-4.5,1.61-9.11-.79-12.18a12,12,0,0,0-4.61-3c-3.09-1.34-6.24-3.14-9.55-3.72a36.15,36.15,0,0,0-6.29-.63,18.21,18.21,0,0,0-4.55.52"/></g></mask></defs><rect id="s5db1nv35a-2" data-name="s5db1nv35a" class="cls-3" width="240" height="137" rx="8"/><g class="cls-4"><path class="cls-5" d="M173.4,137.25a68.83,68.83,0,1,0-107.21,0Z"/><path class="cls-6" d="M145.83,128.11c-4.52,1.61-10,1.44-14.08-1.2s-7.73-4.48-12.7-4.39c-4.45.08-8.12,2.49-12.43,3A11.76,11.76,0,0,1,97.27,122c-2.42-2.33-4-5.89-3-9.09.55-1.67,1.75-3,2.44-4.67,1.58-3.74-2.59-6-1.55-9.94.88-3.35,4.54-5.74,4.49-9.2,0-2.54-2-4.5-2.69-6.85a9.32,9.32,0,0,1,.69-7.17,8.57,8.57,0,0,1,4-3.61c1.5-.64,3.19-.65,4.35-2,2.08-2.36,2.84-4.91,5.69-6.63,2.41-1.45,5.6-1.55,8.36-1.29a21.19,21.19,0,0,1,15.58,9,10.8,10.8,0,0,1,2.15,5.9c0,2.39,0,4.79,1.49,6.82a11.09,11.09,0,0,0,5.14,3.47,25.35,25.35,0,0,1,5.7,2.6A6.11,6.11,0,0,1,153,94.68c-.17,1.75-1.37,3.27-1.53,5-.3,3.18,2.76,5.5,4.65,8.07a12.59,12.59,0,0,1,1.09,12.72c-2.29,4.61-6.45,5.65-10.8,7.39l-.62.23"/><path class="cls-7" d="M113,68.62a10.59,10.59,0,0,1,5-1.35,18.31,18.31,0,0,1,5.15.58,15.82,15.82,0,0,1,8.58,5.63A14.1,14.1,0,0,1,134,78.15a17.9,17.9,0,0,1,.57,5.2c0,1.73-.14,3.46-.08,5.17a9.39,9.39,0,0,0,.4,2.49,3.89,3.89,0,0,0,1.34,2,4.62,4.62,0,0,0,2.3.79c.83.1,1.7.1,2.57.22a11.69,11.69,0,0,1,5,1.64,4.32,4.32,0,0,1,1.72,2,4.38,4.38,0,0,1,.05,2.68,19.31,19.31,0,0,1-1.1,2.38,7.55,7.55,0,0,0-.65,2.43,11.37,11.37,0,0,0,.88,5,48.08,48.08,0,0,1,1.71,4.9,10.82,10.82,0,0,1,.31,2.6,8.09,8.09,0,0,1-.46,2.57,8.79,8.79,0,0,1-3,4.14,8.56,8.56,0,0,0,2.92-9.25,48.56,48.56,0,0,0-1.76-4.85,11.55,11.55,0,0,1-1-5.13,8.09,8.09,0,0,1,.64-2.57,20,20,0,0,0,1.07-2.33,4,4,0,0,0-.05-2.41A3.9,3.9,0,0,0,145.85,96a11.36,11.36,0,0,0-4.78-1.54c-.84-.11-1.7-.11-2.58-.21a5,5,0,0,1-2.53-.88,4.38,4.38,0,0,1-1.51-2.23,9.87,9.87,0,0,1-.41-2.62c0-1.75.08-3.48.1-5.2a17.29,17.29,0,0,0-.53-5.08,14.23,14.23,0,0,0-2.25-4.55A15.58,15.58,0,0,0,123,68.08a18.53,18.53,0,0,0-5.08-.69,10.59,10.59,0,0,0-5,1.23"/><path class="cls-8" d="M134.72,107c.16,3.91-.74,6.85-4.31,8.78a21,21,0,0,1-9.37,2.13c-5.26.13-11.12-1.23-15.05-4.94a3.86,3.86,0,0,1-1.45-2.47c-.05-.89.44-1.73.48-2.62.07-1.51-1.09-2.75-1.61-4.17-.69-1.86-.22-3.94.39-5.83s1.4-3.79,1.3-5.78c-.12-2.58-1.66-4.83-2.9-7.09s-2.21-5-1.15-7.36a5.27,5.27,0,0,1,4-2.93c1.79-.2,3.4,1.85,4.55,3a28.64,28.64,0,0,0,5.12,4c2.56,1.55,5.37,2.7,7.78,4.49a11,11,0,0,1,3.71,4.28c.79,1.94-.59,3.82,1.07,5.6,1.07,1.15,2.72,1.54,4,2.43,2.78,1.9,3.26,5.41,3.38,8.5"/><path class="cls-9" d="M99.66,137.25c2.13-2.71,4.16-5.52,6-8.4h0c3.69-5.7,6-12.7,2.78-19.14a2.84,2.84,0,0,0-1.41-1.6,6.46,6.46,0,0,0-4.79.8c-4.48,2.63-7.22,7.59-9.74,12-2.61,4.59-4.88,9.36-7.51,13.94-.45.79-.9,1.59-1.32,2.4Z"/><path class="cls-10" d="M98,137.25h37.68q.63-3.78,1.52-7.51c.47-2,1.29-4.55,1.93-7.27h0c1.06-4.5,1.61-9.11-.79-12.18a12,12,0,0,0-4.61-3c-3.09-1.34-6.24-3.14-9.55-3.72-3.48-.62-7.36-1-10.84-.12a26,26,0,0,0-6.24,2.71c-1.71,1-3.81,1.8-4.64,3.61a122.09,122.09,0,0,0-5.29,13.49c-1.24,3.82-2.6,7.83-.64,11.71A19.31,19.31,0,0,0,98,137.25Z"/><g class="cls-11"><path class="cls-9" d="M126,109.37c1.33-2.24,1.63-5-.11-7.2-.79-1-2.2-1.1-3.4-1.12a28.36,28.36,0,0,0-7.05.75c-2.2.51-4.44,1.39-5.39,3.61a5.58,5.58,0,0,0,.47,5.08,6.29,6.29,0,0,0,3.82,2.77,13.16,13.16,0,0,0,7.9-.5,8.25,8.25,0,0,0,3.76-3.39"/></g><g class="cls-12"><path class="cls-9" d="M141.06,137.25l0-4.49c0-1.2.77-8.52-1.1-8.44a1.07,1.07,0,0,0-.55.23,6.32,6.32,0,0,0-1.84,2.84c-1.17,2.87-2.19,7.23-4.27,9.86Z"/></g><path class="cls-13" d="M102.61,84.13c-3.08,3.18-.29,10.94,4.62,9.81,5.28-1.2,4.49-9.45-.29-10.8a4.15,4.15,0,0,0-4.33,1"/><path class="cls-14" d="M153.58,105.94a6,6,0,0,1-3.48-5.37c0-2,2-3,3-5,2-8-9-9-14-11a7.64,7.64,0,0,1-2-5c0-8-3-17-12-19-4,0-9-1-13,1-3,2-4,7-7,9-4,2-8,2-10,6-1,4,1,8,4,11v3c-2,5-10,9-4,15.24"/><path class="cls-10" d="M140.83,137.25H156.2l0,0q-1.38-2.58-2.8-5.14c-1.62-2.94-3.26-5.87-4.87-8.83-2.6-4.8-5.51-9.52-9.61-13.19a11,11,0,0,0-2.1-1.55,6.87,6.87,0,0,0-5.54-.41c-5.68,2.07-1,11.09.76,14.55A118,118,0,0,0,140.83,137.25Z"/><path class="cls-15" d="M121.21,110.51a5.2,5.2,0,0,0,3.61-3.27c.47-1.52-.28-3.23-.41-4.77a29.65,29.65,0,0,1,0-4.42,19,19,0,0,0,0-4.13c-.11-.78-.54-.65-1.32-1a6.8,6.8,0,0,0-2.51-.3c-1.74,0-6.28-.13-7.35,1.41a4.21,4.21,0,0,0-.56,2.42c0,1-.21,2.32-.37,3.73-.08.63,0,1.25-.13,1.87a11.34,11.34,0,0,1-.6,2,4.56,4.56,0,0,0,2.67,6.09,10.73,10.73,0,0,0,7,.29"/><path class="cls-16" d="M124.36,93.92c-.11-.78-.54-.65-1.32-1a6.8,6.8,0,0,0-2.51-.3c-1.74,0-6.28-.13-7.35,1.41a4.29,4.29,0,0,0-.56,2.42c0,1-.21,2.32-.37,3.73-.07.63,0,1.25-.13,1.87a8.38,8.38,0,0,1-.43,1.56A9.13,9.13,0,0,0,117,104a12.25,12.25,0,0,0,7.29-5.33c0-.2,0-.4,0-.6a19,19,0,0,0,0-4.13"/><path class="cls-15" d="M126.89,84a21.13,21.13,0,0,0-.93-6.37c-2.58-7.92-12.43-9.88-18.37-4.19-6.61,6.34-4.08,21.49,2.89,26.82a7.8,7.8,0,0,0,6.66,1.31c6.84-1.84,9.79-10.29,9.75-17.57"/><path class="cls-15" d="M125.6,84.15c3-1.66,4,2.55,3.44,4.64A6.89,6.89,0,0,1,128,91.21c-.72,1-2.79,2.55-4,1.5a2.68,2.68,0,0,1-.62-2c0-1.93.18-5.43,2.24-6.56"/><path class="cls-13" d="M115.72,98a14.17,14.17,0,0,1-2.24-.17l.14-.91a13.62,13.62,0,0,0,7.84-1.1,10,10,0,0,0,1.7-1,8.1,8.1,0,0,0,2.2-2.43l.79.46a8.71,8.71,0,0,1-2.45,2.71,11.12,11.12,0,0,1-1.85,1.07A14.49,14.49,0,0,1,115.72,98"/><path class="cls-13" d="M110.83,96.21c1.1-1,3.57-.88,4.38.11a1.63,1.63,0,0,1-.24,2.29,2.84,2.84,0,0,1-2.74.47c-1.22-.28-2.74-1.72-1.4-2.87"/><path class="cls-16" d="M126.91,77.9c-2.72-8.33-13.09-10.39-19.34-4.41a12.29,12.29,0,0,0-3,4.91,6.77,6.77,0,0,0,.48.65,9.23,9.23,0,0,0,3.23,2.2,46.13,46.13,0,0,0,11,3.26l.83.16a9.23,9.23,0,0,1,3,1c2.56,1.51,1.46,4.84,3.33,6.3a1.85,1.85,0,0,0,.52.27,28.39,28.39,0,0,0,1-7.62,22.73,22.73,0,0,0-1-6.72"/><path class="cls-6" d="M120.34,83.72a9.42,9.42,0,0,1,2.77,1.46c2.29,1.9.67,5,2.29,6.75,1.44,1.54,3.61-.5,4.18-1.92,1.06-2.62,1-5.54.92-8.36A17.85,17.85,0,0,0,130,77a11.63,11.63,0,0,0-2.65-4.37,16.94,16.94,0,0,0-13.36-5.22c-3.84.24-10.58,3.48-7.57,8.38a9.36,9.36,0,0,0,2.84,2.69,46,46,0,0,0,10.33,5l.8.29"/><path class="cls-13" d="M126.87,83c-4.28,1.1-5.93,9.18-1.16,10.79,5.13,1.73,8.74-5.72,5.37-9.37A4.17,4.17,0,0,0,126.87,83"/><path class="cls-13" d="M128.27,84c-3,.47-4.77,6.77-1.73,8.5,3.27,1.86,6.34-3.74,4.42-7A2.63,2.63,0,0,0,128.27,84m.6-.47-1.14-.14c.77-6.7.44-15.27-5.52-18-2.83-1.3-10.92-2.73-14.48,2.08-.43.49-.72.89-.72.89,2.21-6.83,12.62-5.42,15.67-4,6.6,3,7,12.11,6.19,19.2"/><path class="cls-17" d="M43.23,137.25H86.05l-4-20.19a1.68,1.68,0,0,0-1.66-1.37H41.07a1.68,1.68,0,0,0-1.37.7h0l-1.82,2.16,1.61-.36Z"/><path class="cls-18" d="M41,137.25H83.83L80.3,119.19a1.71,1.71,0,0,0-1.67-1.38H39.26a1.7,1.7,0,0,0-1.66,2Z"/><path class="cls-17" d="M60.37,137.25h3a3,3,0,0,0,1.55-3.37,4.64,4.64,0,0,0-4.34-3.69,3,3,0,0,0-3,3.69A4.63,4.63,0,0,0,60.37,137.25Z"/><path class="cls-19" d="M145.36,76.1h39.93a4,4,0,0,0,4-4V50.93a4,4,0,0,0-4-4H145.36a4,4,0,0,0-4,4V72.09a4,4,0,0,0,4,4"/><path class="cls-19" d="M147.67,83.78V70.37l10.47,5.73Z"/><path class="cls-2" d="M171.51,62.82h-22a.87.87,0,0,1-.88-.88v-.78a.87.87,0,0,1,.88-.88h22a.87.87,0,0,1,.87.88v.78a.87.87,0,0,1-.87.88m9.6,0h-6a.87.87,0,0,1-.88-.88v-.78a.87.87,0,0,1,.88-.88h6a.87.87,0,0,1,.87.88v.78a.87.87,0,0,1-.87.88m-22-8.32h22a.87.87,0,0,1,.87.88v.78a.87.87,0,0,1-.87.88h-22a.87.87,0,0,1-.88-.88v-.78a.87.87,0,0,1,.88-.88m-9.6,0h6a.87.87,0,0,1,.87.88v.78a.87.87,0,0,1-.87.88h-6a.87.87,0,0,1-.88-.88v-.78a.87.87,0,0,1,.88-.88M181,68.11H149.54a.88.88,0,0,1-.88-.88v-.79a.88.88,0,0,1,.88-.88H181a.89.89,0,0,1,.88.88v.79a.89.89,0,0,1-.88.88"/><path class="cls-19" d="M66.87,50.87a4.89,4.89,0,0,0,0,9.77h5.56l3.51,2.58V59.78a4.89,4.89,0,0,0-2.76-8.91H66.87"/><path class="cls-2" d="M72.82,55.76a.74.74,0,1,1,.74.74.74.74,0,0,1-.74-.74m-3.53,0a.74.74,0,1,1,.74.74.74.74,0,0,1-.74-.74m-3.54,0a.75.75,0,1,1,.74.74.74.74,0,0,1-.74-.74"/><path class="cls-5" d="M168.48,93.67c-1-1.66-3.42-2.5-5.8.28-2.37-2.78-4.82-1.94-5.79-.28-2.4,4.11,5.79,9,5.79,9s8.2-4.84,5.8-9"/><path class="cls-19" d="M113.14,51.78H101a1.18,1.18,0,0,1-1.17-1.17V43.23A1.18,1.18,0,0,1,101,42.06h12.19a1.18,1.18,0,0,1,1.17,1.17v7.38a1.18,1.18,0,0,1-1.17,1.17"/><path class="cls-20" d="M100,42.37l6.37,6.19a1,1,0,0,0,1.33,0l6.37-6.19M100,51.47l5.23-4m8.84,4-5.22-4"/><path class="cls-19" d="M88.43,89.72H74a1.17,1.17,0,0,1-1.17-1.18V79.2A1.17,1.17,0,0,1,74,78H88.43A1.17,1.17,0,0,1,89.6,79.2v9.34a1.18,1.18,0,0,1-1.17,1.18"/><path class="cls-19" d="M81.2,93.41l3-4H78.26Z"/><path class="cls-2" d="M85.62,85.37h-.73V82.69a2.29,2.29,0,0,1-.25.24l-.39.32-.35-.44,1.1-.88h.6Zm-5.38-3.56H77.85a1.85,1.85,0,0,0-1,3.37v1.3l1.33-1h2.1a1.85,1.85,0,0,0,0-3.7"/></g></svg>
