<svg xmlns="http://www.w3.org/2000/svg" xmlns:xlink="http://www.w3.org/1999/xlink" width="240" height="137" viewBox="0 0 240 137">
    <defs>
        <path id="2y3qfs8c0c" d="M1.447.672C.84 1.054.894 2.507.484 3.35c0 0-.7.53-.416.933.157.221.412.388.707.332.188-.035.495-.342.678-.566.906-.13 1.874-.4 2.314-.547.972-.328 1.44-2.261 1.092-3.128C4.753.107 4.382 0 3.911 0c-.796 0-1.88.306-2.464.672z"/>
        <path id="rhq96w78se" d="M5.66 8.444C3.988 9.762 2.77 10.64 2.77 10.64S.585 19.906.189 20.61c-.504.893.058 10.086 1.066 11.11l-.018-1.782s.169-6.645 2.885-6.503c2.231.117 3.17 2.87 3.86 5.914.58 2.56.967 6.417 2.378 6.632 3.035.461 6.7 1.092 9.849 1.566 3.112.468 8.16 1.815 8.16 1.815-.46-5.288.47-15.985 5.05-15.751 4.233.216 5.739 8.11 6.517 17.051.943.532 9.446.984 13.327.984 4.139 0 23.847-.64 26.302-.937 2.456-.297 4.21-.428 5.444-3.104 2.025-4.391 1.853-8.443 1.484-10.012-.675-2.87-1.409-7.993-11.977-11.945-.355-.133-2.194-.03-2.583-.118C64.006 8.327 55.317 2.735 48.183 1.77 41.233.828 29.97.36 21.617.012 21.415.004 21.213 0 21.01 0c-5.428 0-10.765 3.025-15.35 8.444z"/>
        <path id="aefyf24u0g" d="M5.66 8.444C3.988 9.762 2.77 10.64 2.77 10.64S.585 19.906.189 20.61c-.504.893.058 10.086 1.066 11.11l-.018-1.782s.169-6.645 2.885-6.503c2.231.117 3.17 2.87 3.86 5.914.58 2.56.967 6.417 2.378 6.632 3.035.461 6.7 1.092 9.849 1.566 3.112.468 8.16 1.815 8.16 1.815-.46-5.288.47-15.985 5.05-15.751 4.233.216 5.739 8.11 6.517 17.051.943.532 9.446.984 13.327.984 4.139 0 23.847-.64 26.302-.937 2.456-.297 4.21-.428 5.444-3.104 2.025-4.391 1.853-8.443 1.484-10.012-.675-2.87-1.409-7.993-11.977-11.945-.355-.133-2.194-.03-2.583-.118C64.006 8.327 55.317 2.735 48.183 1.77 41.233.828 29.97.36 21.617.012 21.415.004 21.213 0 21.01 0c-5.428 0-10.765 3.025-15.35 8.444"/>
        <path id="z0femwfcui" d="M5.66 8.444C3.988 9.762 2.77 10.64 2.77 10.64S.585 19.906.189 20.61c-.504.893.058 10.086 1.066 11.11l-.018-1.782s.169-6.645 2.885-6.503c2.231.117 3.17 2.87 3.86 5.914.58 2.56.967 6.417 2.378 6.632 3.035.461 6.7 1.092 9.849 1.566 3.112.468 8.16 1.815 8.16 1.815-.46-5.288.47-15.985 5.05-15.751 4.233.216 5.739 8.11 6.517 17.051.943.532 9.446.984 13.327.984 4.139 0 23.847-.64 26.302-.937 2.456-.297 4.21-.428 5.444-3.104 2.025-4.391 1.853-8.443 1.484-10.012-.675-2.87-1.409-7.993-11.977-11.945-.355-.133-2.194-.03-2.583-.118C64.006 8.327 55.317 2.735 48.183 1.77 41.233.828 29.97.36 21.617.012 21.415.004 21.213 0 21.01 0c-5.428 0-10.765 3.025-15.35 8.444"/>
        <path id="256kgaylbk" d="M5.66 8.444C3.988 9.762 2.77 10.64 2.77 10.64S.585 19.906.189 20.61c-.504.893.058 10.086 1.066 11.11l-.018-1.782s.169-6.645 2.885-6.503c2.231.117 3.17 2.87 3.86 5.914.58 2.56.967 6.417 2.378 6.632 3.035.461 6.7 1.092 9.849 1.566 3.112.468 8.16 1.815 8.16 1.815-.46-5.288.47-15.985 5.05-15.751 4.233.216 5.739 8.11 6.517 17.051.943.532 9.446.984 13.327.984 4.139 0 23.847-.64 26.302-.937 2.456-.297 4.21-.428 5.444-3.104 2.025-4.391 1.853-8.443 1.484-10.012-.675-2.87-1.409-7.993-11.977-11.945-.355-.133-2.194-.03-2.583-.118C64.006 8.327 55.317 2.735 48.183 1.77 41.233.828 29.97.36 21.617.012 21.415.004 21.213 0 21.01 0c-5.428 0-10.765 3.025-15.35 8.444"/>
        <path id="xfl4t9mv4m" d="M16.145 14.521c6.43.703 27.037 1.26 35.608 1.113-8.19-7.553-19.286-13.702-25.098-14.316C20.77.695 11.155.176 0 0c7.632.966 12.094 8.08 16.145 14.521"/>
        <path id="6jq114dywo" d="M0 7.15c.294 1.23.325 1.64 1.044 1.845 1.782.508 15.483 3.513 27.401 4.567 0 0-4.856-12.547-14.015-13.526C14.205.012 13.964 0 13.708 0 10.23 0 4.102 2.241 0 7.15"/>
        <path id="e2w9itb68q" d="M0 .321C-.01 1.355.661 3.42 2.15 3.774c.673.16 2.155.452 3.542.592.28.242.751.574 1.039.612.45.06.842-.12 1.082-.36.436-.435-.637-1.008-.637-1.008-.628-.91-1.7-2.302-2.63-2.714C3.566.46 1.775 0 .758 0 .303 0 .002.093 0 .321z"/>
        <path id="gjbcw34rls" d="M6.201.24L0 5.374 2.72 21.68l9.7.875 3.336-5.36-.754-.76-.405-1.039s.1-3.367-.297-6.606c-.396-3.238-2.198-6.884-2.198-6.884L11.032 0"/>
        <path id="l41o84y8lu" d="M6.201.24L0 5.374 2.72 21.68l9.7.875 3.336-5.36-.754-.76-.405-1.039s.1-3.367-.297-6.606c-.396-3.238-2.198-6.884-2.198-6.884L11.032 0"/>
        <path id="g5ogx8araw" d="M6.201.24L0 5.374 2.72 21.68l9.7.875 3.336-5.36-.754-.76-.405-1.039s.1-3.367-.297-6.606c-.396-3.238-2.198-6.884-2.198-6.884L11.032 0"/>
        <path id="4rasxd4k8y" d="M6.201.24L0 5.374 2.72 21.68l9.7.875 3.336-5.36-.754-.76-.405-1.039s.1-3.367-.297-6.606c-.396-3.238-2.198-6.884-2.198-6.884L11.032 0l-4.83.24z"/>
        <path id="06dvigzyhA" d="M6.201.24L0 5.374 2.72 21.68l9.7.875 3.336-5.36-.754-.76-.405-1.039s.1-3.367-.297-6.606c-.396-3.238-2.198-6.884-2.198-6.884L11.032 0"/>
        <path id="11pxxfvnnC" d="M6.201.24L0 5.374 2.72 21.68l9.7.875 3.336-5.36-.754-.76-.405-1.039s.1-3.367-.297-6.606c-.396-3.238-2.198-6.884-2.198-6.884L11.032 0"/>
        <path id="whj72c1nhE" d="M15.858 5.046c-8.045 0-11.627-3.15-11.627-3.15L0 49.946s6.9 11.67 15.209 12.216c9.526.627 16.046-.102 16.046-.102L26.12 0s-2.217 5.046-10.261 5.046z"/>
        <path id="j5en3pzu4G" d="M8.715 8.957C5.345 10.697 0 12.161 0 12.161l5.136 32.418s4.777.856 13.347-.79 15.906-10.394 15.906-10.394L18.259 0s-3.987 6.086-9.544 8.957z"/>
        <rect id="pwfn47xoua" width="240" height="137" x="0" y="0" rx="8"/>
    </defs>
    <g fill="none" fill-rule="evenodd">
        <g>
            <g>
                <g>
                    <g transform="translate(-614 -122) translate(86 34) translate(528 88)">
                        <mask id="3sup1wvg4b" fill="#fff">
                            <use xlink:href="#pwfn47xoua"/>
                        </mask>
                        <use fill="#F5F5F5" xlink:href="#pwfn47xoua"/>
                        <g mask="url(#3sup1wvg4b)">
                            <g>
                                <path fill="#F3F3F3" d="M57.787 78.702L68.35 78.702 68.35 61.883 57.787 61.883zM70.87 78.702L80.16 78.702 80.16 53.787 70.87 53.787z" transform="translate(12 33)"/>
                                <path fill="#F3F3F3" d="M73.023 78.702L90.87 78.702 90.87 64.346 73.023 64.346z" transform="translate(12 33)"/>
                                <path fill="#F3F3F3" d="M65.041 78.702L75.514 78.702 75.514 69.462 65.041 69.462zM86.274 78.702L93.24 78.702 93.24 58.492 86.274 58.492zM97.625 78.702L113.14 78.702 113.14 46.504 97.625 46.504zM120.27 78.702L129.545 78.702 129.545 34.3 120.27 34.3zM131.539 78.702L142.846 78.702 142.846 43.577 131.539 43.577z" transform="translate(12 33)"/>
                                <path fill="#F3F3F3" d="M90.87 78.702L107.381 78.702 107.381 66.291 90.87 66.291zM114.445 78.702L123.549 78.702 123.549 56.674 114.445 56.674z" transform="translate(12 33)"/>
                                <path fill="#F3F3F3" d="M111.164 78.702L117.808 78.702 117.808 71.752 111.164 71.752zM54.463 78.702L61.107 78.702 61.107 71.752 54.463 71.752zM120.27 78.702L133.516 78.702 133.516 64.801 120.27 64.801zM141.414 78.702L170.772 78.702 170.772 60.093 141.414 60.093zM170.772 78.702L176.144 78.702 176.144 70.816 170.772 70.816z" transform="translate(12 33)"/>
                                <path fill="#F3F3F3" d="M173.458 78.702L192.614 78.702 192.614 58.253 173.458 58.253z" transform="translate(12 33)"/>
                                <path fill="#F3F3F3" d="M189.392 78.702L200 78.702 200 43.684 189.392 43.684zM146.789 78.702L157.533 78.702 157.533 52.882 146.789 52.882zM163.444 78.702L168.533 78.702 168.533 66.361 163.444 66.361zM25.81 78.702L35.514 78.702 35.514 58.838 25.81 58.838z" transform="translate(12 33)"/>
                                <path fill="#F3F3F3" d="M0 78.702L47.046 78.702 47.046 65.944 0 65.944z" transform="translate(12 33)"/>
                                <path fill="#F3F3F3" d="M37.828 78.702L46.363 78.702 46.363 54.649 37.828 54.649z" transform="translate(12 33)"/>
                                <path fill="#F3F3F3" d="M39.806 78.702L56.2 78.702 56.2 64.843 39.806 64.843z" transform="translate(12 33)"/>
                                <path fill="#F3F3F3" d="M32.473 78.702L42.094 78.702 42.094 69.782 32.473 69.782zM51.98 78.702L58.377 78.702 58.377 59.192 51.98 59.192zM62.405 78.702L76.656 78.702 76.656 47.619 62.405 47.619zM83.205 78.702L91.725 78.702 91.725 34.296 83.205 34.296zM93.557 78.702L103.942 78.702 103.942 44.793 93.557 44.793z" transform="translate(12 33)"/>
                                <path fill="#F3F3F3" d="M56.2 78.702L71.367 78.702 71.367 66.721 56.2 66.721zM77.856 78.702L86.217 78.702 86.217 57.436 77.856 57.436z" transform="translate(12 33)"/>
                                <path fill="#F3F3F3" d="M74.841 78.702L80.944 78.702 80.944 71.993 74.841 71.993zM22.758 78.702L28.861 78.702 28.861 71.993 22.758 71.993zM83.205 78.702L95.373 78.702 95.373 65.283 83.205 65.283zM102.627 78.702L129.595 78.702 129.595 60.737 102.627 60.737zM129.595 78.702L134.529 78.702 134.529 71.089 129.595 71.089z" transform="translate(12 33)"/>
                                <path fill="#F3F3F3" d="M132.061 78.702L149.658 78.702 149.658 58.961 132.061 58.961z" transform="translate(12 33)"/>
                                <path fill="#F3F3F3" d="M146.698 78.702L152.288 78.702 152.288 56.787 146.698 56.787zM152.288 78.702L165.444 78.702 165.444 66.331 152.288 66.331z" transform="translate(12 33)"/>
                                <path fill="#F3F3F3" d="M162.154 78.702L169.72 78.702 169.72 57.028 162.154 57.028z" transform="translate(12 33)"/>
                                <path fill="#F3F3F3" d="M168.075 78.702L186.163 78.702 186.163 50.738 168.075 50.738zM107.231 78.702L112.822 78.702 112.822 41.695 107.231 41.695zM122.863 78.702L127.538 78.702 127.538 66.788 122.863 66.788z" transform="translate(12 33)"/>
                                <path fill="#DEDEDE" d="M18.777 78.702L30.98 78.702 30.98 68.478 18.777 68.478zM33.893 78.702L50.822 78.702 50.822 60.341 33.893 60.341z" transform="translate(12 33)"/>
                                <path fill="#DEDEDE" d="M36.381 78.702L57 78.702 57 68.122 36.381 68.122z" transform="translate(12 33)"/>
                                <path fill="#DEDEDE" d="M27.158 78.702L39.259 78.702 39.259 71.893 27.158 71.893zM51.692 78.702L59.737 78.702 59.737 63.809 51.692 63.809zM64.804 78.702L82.728 78.702 82.728 47.037 64.804 47.037zM93.443 78.702L104.16 78.702 104.16 39.854 93.443 39.854z" transform="translate(12 33)"/>
                                <path fill="#DEDEDE" d="M103.986 78.702L117.049 78.702 117.049 56.348 103.986 56.348zM57 78.702L76.075 78.702 76.075 69.556 57 69.556zM84.236 78.702L94.754 78.702 94.754 62.469 84.236 62.469z" transform="translate(12 33)"/>
                                <path fill="#DEDEDE" d="M80.446 78.702L88.123 78.702 88.123 73.58 80.446 73.58zM2.74 78.702L22.615 78.702 22.615 73.58 2.74 73.58zM90.965 78.702L106.27 78.702 106.27 68.458 90.965 68.458zM115.394 78.702L149.313 78.702 149.313 64.988 115.394 64.988zM149.313 78.702L155.518 78.702 155.518 72.89 149.313 72.89z" transform="translate(12 33)"/>
                                <path fill="#DEDEDE" d="M152.416 78.702L174.547 78.702 174.547 63.633 152.416 63.633z" transform="translate(12 33)"/>
                                <path fill="#DEDEDE" d="M170.823 78.702L177.855 78.702 177.855 56.028 170.823 56.028zM177.855 78.702L194.402 78.702 194.402 69.258 177.855 69.258z" transform="translate(12 33)"/>
                                <path fill="#DEDEDE" d="M190.264 78.702L199.779 78.702 199.779 62.157 190.264 62.157zM121.184 78.702L128.216 78.702 128.216 54.81 121.184 54.81zM140.846 78.702L146.725 78.702 146.725 69.607 140.846 69.607z" transform="translate(12 33)"/>
                                <g>
                                    <path fill="#E6E6E6" d="M.185 27.247c-.228.028-.513.222.965.618 7.946 2.128 29.325 7.112 37.468 8.931 9.91 2.215 17.008 2.424 25.192 2.424 8.185 0 32.711-2.199 36.429-2.827 3.718-.628-3.723-2.913-13.428-4.42-10.271-1.594-52.816-7.235-52.816-7.235S1.463 27.09.185 27.248" transform="translate(12 33) translate(29.386 66.216)"/>
                                    <path fill="#E6E6E6" d="M3.668 27.051c-.191.024-.43.186.81.518 6.669 1.787 24.61 5.969 31.445 7.496 8.317 1.858 14.273 2.034 21.142 2.034s28.846-1.548 31.966-2.075c3.12-.527-4.456-3.237-12.663-4.006-8.207-.77-44.325-6.073-44.325-6.073S4.741 26.92 3.668 27.051" transform="translate(12 33) translate(29.386 66.216)"/>
                                    <path fill="#BEBEBF" d="M89.465 23.585c0 5.06-3.01 9.163-6.724 9.163-3.714 0-6.724-4.103-6.724-9.163 0-5.06 3.01-9.162 6.724-9.162 3.713 0 6.724 4.102 6.724 9.162" transform="translate(12 33) translate(29.386 66.216)"/>
                                    <path fill="#BEBEBF" d="M82.812 14.423L78.776 14.423 79.237 33.038 82.812 32.748z" transform="translate(12 33) translate(29.386 66.216)"/>
                                    <path fill="#BEBEBF" d="M85.605 23.758c0 5.123-2.898 9.275-6.473 9.275-3.574 0-6.472-4.152-6.472-9.275 0-5.122 2.898-9.275 6.472-9.275 3.575 0 6.473 4.153 6.473 9.275" transform="translate(12 33) translate(29.386 66.216)"/>
                                    <path fill="#FBFBFB" d="M83.486 23.758c0 3.922-2.136 7.102-4.77 7.102-2.635 0-4.77-3.18-4.77-7.102s2.135-7.101 4.77-7.101c2.634 0 4.77 3.179 4.77 7.101" transform="translate(12 33) translate(29.386 66.216)"/>
                                    <path fill="#BEBEBF" d="M82.812 23.758c0 3.531-1.88 6.393-4.199 6.393s-4.2-2.862-4.2-6.393c0-3.53 1.881-6.393 4.2-6.393 2.32 0 4.2 2.862 4.2 6.393" transform="translate(12 33) translate(29.386 66.216)"/>
                                    <path fill="#FBFBFB" d="M78.034 16.88L78.52 22.666 74.566 20.57 74.235 21.796 78.355 23.997 75.099 27.93 75.653 29.004 79.054 24.96 80.879 29.92 81.673 29.027 79.927 23.984 83.315 22.555 83.064 21.107 79.753 22.57 79.28 16.806z" transform="translate(12 33) translate(29.386 66.216)"/>
                                    <path fill="#E8E8E8" d="M80.494 23.758c0 1.135-.618 2.055-1.38 2.055-.763 0-1.38-.92-1.38-2.055 0-1.135.617-2.055 1.38-2.055.762 0 1.38.92 1.38 2.055" transform="translate(12 33) translate(29.386 66.216)"/>
                                    <path fill="#FBFBFB" d="M80.03 23.758c0 .541-.295.98-.659.98-.363 0-.658-.439-.658-.98 0-.54.295-.98.658-.98.364 0 .658.44.658.98" transform="translate(12 33) translate(29.386 66.216)"/>
                                    <path fill="#CDCDCE" d="M77.947.672c-.608.382-.553 1.835-.964 2.678 0 0-.7.53-.415.932.157.221.412.388.706.332.188-.035.496-.342.679-.566.906-.13 1.874-.4 2.313-.547.972-.328 1.44-2.261 1.092-3.128-.285-.714-2.483-.283-3.411.3" transform="translate(12 33) translate(29.386 66.216)"/>
                                </g>
                                <g transform="translate(12 33) translate(105.885 66.216)">
                                    <mask id="pm8azut7nd" fill="#fff">
                                        <use xlink:href="#2y3qfs8c0c"/>
                                    </mask>
                                    <path fill="#A3A4A4" d="M1.343.403C1.006 2.036.29 3.685 2.54 2.979c1.212-.38 1.663-.749 2.296-1.913.504-.927.667-2.245.667-2.245l.22 4.767L.603 4.864.068 4.49l.451-.818-.029-.693.853-2.576z" mask="url(#pm8azut7nd)"/>
                                </g>
                                <g>
                                    <path fill="#9FA0A0" d="M1.254 31.72L9.62 35.73l19.174 3.63 13.598-.455 21.953-1.093-6.395-16.448-55.825 1.44s-.24 1.779-.787 3.9c-.548 2.12-.084 5.015-.084 5.015" transform="translate(12 33) translate(35.329 54.264)"/>
                                    <path fill="#BEBEBF" d="M45.472 36.806c0 5.578-3.137 10.1-7.006 10.1-3.87 0-7.006-4.522-7.006-10.1 0-5.579 3.136-10.1 7.006-10.1s7.006 4.521 7.006 10.1" transform="translate(12 33) translate(35.329 54.264)"/>
                                    <path fill="#BEBEBF" d="M38.466 26.705L33.689 26.705 34.234 47.226 38.466 46.906zM11.393 32.833c0 4.22-1.366 7.64-3.051 7.64s-3.051-3.42-3.051-7.64c0-4.219 1.366-7.64 3.05-7.64 1.686 0 3.052 3.421 3.052 7.64" transform="translate(12 33) translate(35.329 54.264)"/>
                                    <path fill="#BEBEBF" d="M8.342 25.194L4.508 25.194 4.436 40.662 8.342 40.473z" transform="translate(12 33) translate(35.329 54.264)"/>
                                    <path fill="#BEBEBF" d="M7.606 32.928c0 4.27-1.42 7.734-3.17 7.734s-3.17-3.463-3.17-7.734c0-4.272 1.42-7.734 3.17-7.734s3.17 3.462 3.17 7.734" transform="translate(12 33) translate(35.329 54.264)"/>
                                    <path fill="#FBFBFB" d="M6.568 32.928c0 3.27-1.046 5.92-2.336 5.92-1.29 0-2.336-2.65-2.336-5.92s1.046-5.922 2.336-5.922c1.29 0 2.336 2.651 2.336 5.922" transform="translate(12 33) translate(35.329 54.264)"/>
                                    <path fill="#BEBEBF" d="M6.238 32.928c0 2.944-.92 5.33-2.056 5.33-1.136 0-2.057-2.386-2.057-5.33s.921-5.331 2.057-5.331c1.135 0 2.056 2.387 2.056 5.33" transform="translate(12 33) translate(35.329 54.264)"/>
                                    <path fill="#FBFBFB" d="M3.898 27.193L4.313 32.017 2.2 30.27 2.038 31.291 4.232 33.127 2.461 36.406 2.732 37.302 4.574 33.93 5.291 38.065 5.68 37.32 5.001 33.116 6.484 31.924 6.362 30.717 4.916 31.937 4.508 27.131z" transform="translate(12 33) translate(35.329 54.264)"/>
                                    <path fill="#E8E8E8" d="M5.25 32.928c0 .946-.303 1.713-.676 1.713-.373 0-.676-.767-.676-1.713 0-.947.303-1.714.676-1.714.373 0 .676.767.676 1.714" transform="translate(12 33) translate(35.329 54.264)"/>
                                    <path fill="#FBFBFB" d="M5.153 32.928c0 .45-.145.816-.323.816-.177 0-.322-.365-.322-.816 0-.451.145-.817.322-.817.178 0 .323.366.323.817" transform="translate(12 33) translate(35.329 54.264)"/>
                                    <path fill="#CDCDCE" d="M1.254 31.72l-.018-1.783s.169-6.645 2.885-6.503c2.231.117 3.17 2.87 3.86 5.914.58 2.56.967 6.417 2.378 6.632 3.035.461 6.7 1.092 9.849 1.566 3.111.468 8.16 1.815 8.16 1.815-.46-5.288.47-15.985 5.05-15.751 4.233.217 5.739 8.11 6.517 17.051.943.532 9.446.984 13.327.984 4.139 0 23.847-.64 26.302-.937 2.456-.297 4.21-.428 5.444-3.104 2.025-4.391 1.853-8.443 1.484-10.012-.675-2.87-1.41-7.993-11.977-11.945-.355-.133-2.194-.03-2.583-.118C64.006 8.327 55.317 2.735 48.183 1.77 41.233.828 29.97.36 21.617.013 15.98-.222 10.416 2.823 5.66 8.444 3.987 9.762 2.77 10.64 2.77 10.64S.585 19.906.189 20.61c-.504.893.058 10.086 1.066 11.11" transform="translate(12 33) translate(35.329 54.264)"/>
                                </g>
                                <g>
                                    <g transform="translate(12 33) translate(35.329 54.264)">
                                        <mask id="vs2vg708pf" fill="#fff">
                                            <use xlink:href="#rhq96w78se"/>
                                        </mask>
                                        <path fill="#FFF" d="M76.335 15.002c10.098 2.928 3.944 5.82-2.935 6.09-13.286.521-35.638-6.558-35.638-6.558l38.573.468z" mask="url(#vs2vg708pf)"/>
                                    </g>
                                    <g transform="translate(12 33) translate(35.329 54.264)">
                                        <mask id="lidskqnvch" fill="#fff">
                                            <use xlink:href="#aefyf24u0g"/>
                                        </mask>
                                        <path fill="#B7B6B6" d="M40.463 42.582s.176-8.784-1.468-14.112c-1.219-3.951-3.035-6.51-5.988-6.558-3.64-.059-6.635 9.076-4.58 17.625.669 2.78 12.036 3.045 12.036 3.045" mask="url(#lidskqnvch)"/>
                                    </g>
                                    <g transform="translate(12 33) translate(35.329 54.264)">
                                        <mask id="v606m4x7bj" fill="#fff">
                                            <use xlink:href="#z0femwfcui"/>
                                        </mask>
                                        <path fill="#B7B6B6" d="M9.667 37.001s-.556-7.17-1.56-10.232c-.88-2.686-2.34-4.501-4.265-4.535-2.372-.042-3.76 6.668-2.421 12.794C1.856 37.02 9.667 37 9.667 37" mask="url(#v606m4x7bj)"/>
                                    </g>
                                    <g transform="translate(12 33) translate(35.329 54.264)">
                                        <mask id="li2ojm4hvl" fill="#fff">
                                            <use xlink:href="#256kgaylbk"/>
                                        </mask>
                                        <path fill="#FFF" d="M34.282 15.12L7.321 9.63 5.56 8.532l-2.907 2.02c.206.379 1.655 1.443 2.598 1.713 5.989 1.713 19.692 3.81 24.659 4.523l1.153-1.164 1.682.2-1.233 1.179c4.772.593 10.414.871 2.77-1.883" mask="url(#li2ojm4hvl)"/>
                                    </g>
                                </g>
                                <g>
                                    <path fill="#FFF" d="M16.789 33.594c3.896.66 9.325 1.759 8.165 2.173-1.161.414-5.897-.674-8.982-1.313-7.363-1.524-10.79-2.83.817-.86" transform="translate(12 33) translate(36.217 54.276)"/>
                                    <path fill="#BEBEBF" d="M40.044 42.201c-.572-.351-.888-.85-.998-1.552 0 0 9.16 1.122 9.966.595 2.572-1.682 6.151-4.91 12.285-5.108 3.11-.1 19.61-.703 21.547-.615 1.937.087-.04 6.403-1.895 6.631-4.649.572-21.077 1.347-25.187 1.23-4.053-.116-15.718-1.18-15.718-1.18M4.879 13.643L7.213 14.298 7.066 13.698 4.732 13.044z" transform="translate(12 33) translate(36.217 54.276)"/>
                                    <path fill="#FBFBFB" d="M4.899 13.547L7.233 14.201 7.086 13.601 4.752 12.947z" transform="translate(12 33) translate(36.217 54.276)"/>
                                    <path fill="#BEBEBF" d="M14.815 16.12L18.055 16.717 17.835 16.044 14.595 15.447z" transform="translate(12 33) translate(36.217 54.276)"/>
                                    <path fill="#FBFBFB" d="M14.83 16.008L18.07 16.605 17.85 15.933 14.61 15.335z" transform="translate(12 33) translate(36.217 54.276)"/>
                                    <path fill="#E2E2E3" d="M72.332 23.213c.418.407 1.005.485 1.31.174.307-.311.216-.893-.203-1.3-.418-.407-1.004-.485-1.31-.173-.306.31-.215.893.203 1.3" transform="translate(12 33) translate(36.217 54.276)"/>
                                    <path fill="#B7B6B6" d="M27.55 21.882c-1.039 4.467-1.665 12.563-3.3 12.346-1.98-.264-11.99-2.126-13.282-2.477-1.292-.351-2.9-7.013-3.978-9.735C5.992 19.5 2.528 13.995.297 27.17c-.274 1.62-.373-3.327-.235-5.094.294-3.747 1.31-5.448 11.302-4.528 3.626.333 16.79 1.735 16.186 4.335M39.678 25.552c-.823-1.781 1.702-1.768 7.529 2.29 3.573 2.49 7.734 5.189 5.658 6.874-1.673 1.358-5.02 3.253-7.402 3.14-2.382-.114-2.734-1.356-2.978-2.461-.312-1.414-1.985-8.06-2.807-9.843M79.38 26.035c-2.987-.09-8.865.066-12.388.124-4.493.075-8 1.294-11.155 3.975-1.585 1.347 4.754 2.22 11.478 2.24 4.371.013 9.6-.132 12.593-.308 2.99-.175 6.398-.006 5.695-1.757-.587-1.463-2.348-4.157-6.223-4.274" transform="translate(12 33) translate(36.217 54.276)"/>
                                    <path fill="#BEBEBF" d="M72.482 15.634c-8.572.146-29.18-.41-35.608-1.113C32.823 8.081 28.36.966 20.728 0 31.883.176 41.5.695 47.383 1.317c5.812.615 16.909 6.763 25.099 14.317" transform="translate(12 33) translate(36.217 54.276)"/>
                                </g>
                                <g transform="translate(12 33) translate(56.946 54.276)">
                                    <mask id="ktqivy98en" fill="#fff">
                                        <use xlink:href="#xfl4t9mv4m"/>
                                    </mask>
                                    <path fill="#D5D5D5" d="M51.225 15.898C34.757 4.128 6.898 1.318-.03-.088 11.126.088 17.154.402 23.044.966c8.852.85 19.99 7.378 28.18 14.932" mask="url(#ktqivy98en)"/>
                                </g>
                                <g>
                                    <path fill="#BEBEBF" d="M3.07 32.358s4.898 1.139 9.422 2.079c4.228.878 6.459 1.493 9.967 2.371.146.352.484.908.484.908l.057.366s-9.113-1.984-11.933-2.386c-5.343-.762-6.847-.863-7.264-1.288-.417-.426-.734-2.05-.734-2.05M28.445 13.562C16.527 12.508 2.826 9.503 1.044 8.995.324 8.79.294 8.38 0 7.151 4.403 1.88 11.142-.315 14.43.036c9.159.979 14.015 13.526 14.015 13.526" transform="translate(12 33) translate(41.165 55.821)"/>
                                </g>
                                <g transform="translate(12 33) translate(41.165 55.821)">
                                    <mask id="ntjipjcefp" fill="#fff">
                                        <use xlink:href="#6jq114dywo"/>
                                    </mask>
                                    <path fill="#D5D5D5" d="M28.227 12.86s-6.465-7.962-15.91-8.198C4.92 4.477 0 6.782 0 6.782s.398-8.678 9.205-8.678c8.806 0 15.03 1.99 16.556 4.801 1.527 2.81 2.466 9.955 2.466 9.955" mask="url(#ntjipjcefp)"/>
                                </g>
                                <g>
                                    <path fill="#BEBEBF" d="M1.94 7.335c2.224-2.56 4.815-4.11 6.624-4.966C10.8 1.31 13.104.703 14.88.703c.23 0 .448.01.648.032 1.96.21 3.879 1.013 5.704 2.388 1.486 1.12 2.913 2.619 4.242 4.455 1.463 2.02 2.479 4.004 3.023 5.174-5.959-.584-12.066-1.598-16.253-2.37-5.12-.943-8.99-1.822-9.834-2.063-.177-.05-.196-.084-.222-.132-.082-.146-.156-.457-.248-.852m-.767-.184c.293 1.23.324 1.639 1.044 1.844 1.782.508 15.483 3.513 27.4 4.567 0 0-4.855-12.547-14.014-13.526C15.378.012 15.137 0 14.88 0 11.404 0 5.275 2.241 1.174 7.15" transform="translate(12 33) translate(39.992 55.821)"/>
                                    <path stroke="#858589" stroke-linejoin="round" stroke-width=".5" d="M14.855.036L12.152 11.08l-1.918 1.72c-.309 6.674-.283 13.466.658 17.933.218 1.035-.88 1.8-.88 1.8s.087 2.548 1.76 3.031M3.706 4.654L2.218 8.995l-1.63 1.713s-.237 4.288-.066 5.556C.693 17.532.186 18.5.104 19.265c-.193 1.792-.058 2.714-.058 2.714M27.123 13.317l-1.876 1.914c-2.29 6.192-3.185 15.704-3.479 17.42-.186 1.088-.616 1.903-.616 1.903s-.245 2.472 1.365 3.206M40.721 16.766s-7.537-2.325-11.102-3.204M33.1 12.977c-.764.702-.823 1.288-.823 1.288M54.858 22.483s10.76.499 14.576.44c3.816-.058 9.034-.565 9.034-.565M41.53 19.943s-3.88-.136-6.053.91c-1.941.933-3.063 1.864-3.063 1.864l-.887.92" transform="translate(12 33) translate(39.992 55.821)"/>
                                    <path fill="#CDCDCE" d="M24.816 10.544c.93.412 2 1.803 2.63 2.714 0 0 1.072.573.636 1.008-.24.24-.631.42-1.082.36-.288-.038-.759-.37-1.038-.612-1.388-.14-2.87-.432-3.543-.592-1.489-.355-2.16-2.42-2.15-3.453.007-.74 3.126-.055 4.547.575" transform="translate(12 33) translate(39.992 55.821)"/>
                                </g>
                                <g transform="translate(12 33) translate(60.26 65.47)">
                                    <mask id="kqq7sd44br" fill="#fff">
                                        <use xlink:href="#e2w9itb68q"/>
                                    </mask>
                                    <path fill="#A3A4A4" d="M4.957.832c1.332 1.85 2.516 3.142-.93 2.378C2.17 2.798 1.48 2.4.51 1.142-.261.14-.511-1.286-.511-1.286L-.848 3.87l7.842 1.379.819-.405-.691-.884.045-.75L4.957.833z" mask="url(#kqq7sd44br)"/>
                                </g>
                                <g>
                                    <path fill="#FFF" d="M15.19 5.743c.91.045 1.243-1.178.433-1.595-.978-.504-2.232-1.026-3.756-1.419C8.905 1.964 3.796.701 1.054.026.29-.16-.295.696.159 1.336c.933 1.317 2.615 2.97 5.364 3.468 2.896.525 6.932.802 9.668.939M37.68 4.644c-.049.615.516 1.106 1.121.974.746-.162 1.525-.512 1.43-1.264-.175-1.405-2.641-2.986-2.641-2.986s.225 1.597.09 3.276" transform="translate(12 33) translate(79.659 72.561)"/>
                                </g>
                                <g>
                                    <g transform="translate(12 33) translate(60.26 80.043)">
                                        <mask id="ur90y3ki2t" fill="#fff">
                                            <use xlink:href="#gjbcw34rls"/>
                                        </mask>
                                        <path fill="#BEBEBF" d="M16.285 11.217c0 5.647-3.195 10.225-7.135 10.225-3.941 0-7.136-4.578-7.136-10.225C2.014 5.57 5.209.992 9.15.992c3.94 0 7.135 4.578 7.135 10.225" mask="url(#ur90y3ki2t)"/>
                                    </g>
                                    <g transform="translate(12 33) translate(60.26 80.043)">
                                        <mask id="ps2ol83npv" fill="#fff">
                                            <use xlink:href="#l41o84y8lu"/>
                                        </mask>
                                        <path fill="#FBFBFB" d="M13.95 11.217c0 4.324-2.356 7.83-5.26 7.83s-5.259-3.506-5.259-7.83 2.355-7.829 5.26-7.829c2.903 0 5.258 3.505 5.258 7.83" mask="url(#ps2ol83npv)"/>
                                    </g>
                                    <g transform="translate(12 33) translate(60.26 80.043)">
                                        <mask id="z881g3wfjx" fill="#fff">
                                            <use xlink:href="#g5ogx8araw"/>
                                        </mask>
                                        <path fill="#BEBEBF" d="M13.206 11.217c0 3.893-2.072 7.048-4.629 7.048-2.556 0-4.63-3.155-4.63-7.048 0-3.892 2.074-7.048 4.63-7.048 2.557 0 4.63 3.156 4.63 7.048" mask="url(#z881g3wfjx)"/>
                                    </g>
                                    <g transform="translate(12 33) translate(60.26 80.043)">
                                        <mask id="rpgf17fh1z" fill="#fff">
                                            <use xlink:href="#4rasxd4k8y"/>
                                        </mask>
                                        <path fill="#FBFBFB" d="M7.938 3.635L8.474 10.013 4.115 7.703 3.751 9.053 8.293 11.481 4.703 15.816 5.314 17.001 9.063 12.542 11.074 18.01 11.95 17.025 10.026 11.466 13.76 9.89 13.484 8.295 9.833 9.907 9.312 3.553z" mask="url(#rpgf17fh1z)"/>
                                    </g>
                                    <g transform="translate(12 33) translate(60.26 80.043)">
                                        <mask id="y8gek3xybB" fill="#fff">
                                            <use xlink:href="#06dvigzyhA"/>
                                        </mask>
                                        <path fill="#E8E8E8" d="M10.65 11.217c0 1.251-.68 2.266-1.521 2.266-.84 0-1.522-1.015-1.522-2.266 0-1.25.681-2.265 1.522-2.265.84 0 1.521 1.014 1.521 2.265" mask="url(#y8gek3xybB)"/>
                                    </g>
                                    <g transform="translate(12 33) translate(60.26 80.043)">
                                        <mask id="v4l1tme4eD" fill="#fff">
                                            <use xlink:href="#11pxxfvnnC"/>
                                        </mask>
                                        <path fill="#FBFBFB" d="M10.138 11.217c0 .597-.324 1.08-.725 1.08-.4 0-.725-.483-.725-1.08 0-.596.324-1.08.725-1.08.4 0 .725.484.725 1.08" mask="url(#v4l1tme4eD)"/>
                                    </g>
                                </g>
                                <g>
                                    <path fill="#108910" d="M0 13.712c0 7.574 13.75 23.629 13.75 23.629s13.748-16.055 13.748-23.629C27.498 6.14 21.343 0 13.75 0 6.156 0 0 6.14 0 13.712" transform="translate(12 33) translate(61.217)"/>
                                    <path fill="#FFF" d="M6.099 13.712c0 4.214 3.425 7.63 7.65 7.63 4.225 0 7.65-3.416 7.65-7.63 0-4.213-3.425-7.63-7.65-7.63-4.225 0-7.65 3.417-7.65 7.63" transform="translate(12 33) translate(61.217)"/>
                                    <path fill="#FFBDB3" d="M72.994 27.263c1.44 1.039 1.469 3.451.064 5.388-1.405 1.937-3.711 2.665-5.151 1.626-1.44-1.039-1.47-3.451-.064-5.388 1.404-1.937 3.71-2.665 5.151-1.626M70.208 42.45s4.492 6.892 2.15 21.108c-.729 4.423-5.018 14.78-7.384 14.78-2.365 0-12.015.104-15.702-2.628-3.467-2.568-7.652-6.35-7.652-11s-1.104-13.82-2.353-17.956c-1.325-4.382-2.872-8.003-3.576-9.982-.558-1.569 4.257-3.455 8.411 4.196 1.707 3.143 4.128 5.979 9.44 5.668 5.315-.312 16.666-4.186 16.666-4.186" transform="translate(12 33) translate(61.217)"/>
                                    <path fill="#FFBDB3" d="M47.914 85.343L67.035 85.343 67.035 72.949 47.914 72.949z" transform="translate(12 33) translate(61.217)"/>
                                    <path fill="#FF9E8F" d="M45.11 66.192s5.398 13.088 7.851 15.19c2.454 2.103 6.996 3.502 6.996 3.502l6.276 1.973 2.381-27.816-23.504 7.151z" transform="translate(12 33) translate(61.217)"/>
                                    <path fill="#FFBDB3" d="M40.853 36.78l2.074 16.74s3.256-6.34 2.262-10.547c-.874-3.695-4.336-6.193-4.336-6.193" transform="translate(12 33) translate(61.217)"/>
                                    <path fill="#FF9E8F" d="M45.03 65.318c0 1.17 1.573 5.349 3.506 5.349h17.421c1.932 0 3.506-.952 3.506-2.12V44.57c0-1.169-1.574-2.12-3.506-2.12h-17.42c-1.934 0-3.506.951-3.506 2.12v20.747z" transform="translate(12 33) translate(61.217)"/>
                                    <path fill="#333" d="M66.703 68.815c1.933 0 3.505-1.568 3.505-3.497V25.79c0-1.929-1.572-3.496-3.505-3.496h-17.42c-1.934 0-3.507 1.567-3.507 3.496v39.528c0 1.93 1.573 3.497 3.507 3.497h17.42z" transform="translate(12 33) translate(61.217)"/>
                                    <path fill="#FFF" d="M47.067 63.733L68.918 63.733 68.918 25.789 47.067 25.789z" transform="translate(12 33) translate(61.217)"/>
                                    <path fill="#4B4B4B" d="M55.302 24.055c0 .227.184.41.41.41h4.56c.228 0 .412-.183.412-.41 0-.226-.184-.41-.412-.41h-4.56c-.226 0-.41.184-.41.41M55.302 66.192c0-.397.323-.719.72-.719h3.941c.398 0 .72.322.72.719 0 .397-.322.719-.72.719h-3.94c-.398 0-.721-.322-.721-.719" transform="translate(12 33) translate(61.217)"/>
                                    <path fill="#FFF" d="M47.067 63.733L68.918 63.733 68.918 25.789 47.067 25.789z" transform="translate(12 33) translate(61.217)"/>
                                    <path fill="#000" d="M52.491 52.574h11.002c1.35 0 2.443 1.091 2.443 2.437 0 1.345-1.094 2.436-2.443 2.436H52.491c-1.349 0-2.442-1.09-2.442-2.436 0-1.346 1.093-2.437 2.442-2.437" transform="translate(12 33) translate(61.217)"/>
                                    <path fill="#108910" d="M52.491 51.98h11.002c1.35 0 2.443 1.09 2.443 2.435 0 1.346-1.094 2.437-2.443 2.437H52.491c-1.349 0-2.442-1.091-2.442-2.437 0-1.345 1.093-2.436 2.442-2.436" transform="translate(12 33) translate(61.217)"/>
                                    <path fill="#868686" d="M65.936 43.68c0-2.108-3.557-3.816-7.944-3.816-4.387 0-7.943 1.708-7.943 3.815s3.556 3.815 7.943 3.815 7.944-1.708 7.944-3.815" transform="translate(12 33) translate(61.217)"/>
                                    <path fill="#494949" d="M60.879 43.322c0-.766-1.293-1.386-2.887-1.386s-2.886.62-2.886 1.386c0 .766 1.292 1.386 2.886 1.386s2.887-.62 2.887-1.386" transform="translate(12 33) translate(61.217)"/>
                                    <path fill="#5B5B5B" d="M52.805 33.994c0 2.858 5.187 8.915 5.187 8.915s5.188-6.057 5.188-8.915c0-2.857-2.323-5.173-5.188-5.173-2.865 0-5.187 2.316-5.187 5.173" transform="translate(12 33) translate(61.217)"/>
                                    <path fill="#FFF" d="M55.106 33.994c0 1.59 1.292 2.879 2.886 2.879s2.887-1.289 2.887-2.879-1.293-2.878-2.887-2.878-2.886 1.288-2.886 2.878" transform="translate(12 33) translate(61.217)"/>
                                    <path fill="#FFBDB3" d="M75.146 62.914c-.273 1.583-1.78 2.643-3.368 2.37l-5.653-.972c-1.59-.273-2.653-1.775-2.379-3.359.272-1.58 1.777-2.643 3.367-2.37l5.653.972c1.587.273 2.652 1.78 2.38 3.359" transform="translate(12 33) translate(61.217)"/>
                                    <path fill="#FF9E8F" d="M66.125 64.312l5.653.972c1.587.273 3.095-.787 3.368-2.37l-11.4-1.96c-.274 1.583.79 3.085 2.38 3.358" transform="translate(12 33) translate(61.217)"/>
                                    <path fill="#FFF" d="M67.023 63.67l-.756-.129c-1.16-.2-1.939-1.296-1.739-2.453.199-1.154 1.3-1.93 2.46-1.73l.756.13c1.159.2 1.362.81 1.097 2.342-.264 1.532-.66 2.04-1.818 1.84" transform="translate(12 33) translate(61.217)"/>
                                    <path fill="#FFBDB3" d="M76.568 55.085c0 1.82-1.477 3.293-3.3 3.293h-7.611c-1.824 0-3.3-1.473-3.3-3.293 0-1.816 1.476-3.291 3.3-3.291h7.61c1.824 0 3.3 1.475 3.3 3.29" transform="translate(12 33) translate(61.217)"/>
                                    <path fill="#FF9E8F" d="M65.657 58.378h7.61c1.824 0 3.3-1.473 3.3-3.293h-14.21c0 1.82 1.476 3.293 3.3 3.293" transform="translate(12 33) translate(61.217)"/>
                                    <path fill="#FFF" d="M66.94 57.49h-1.274c-1.333 0-2.41-1.074-2.41-2.405 0-1.325 1.077-2.404 2.41-2.404h1.275c1.331 0 1.674.643 1.674 2.404 0 1.762-.343 2.405-1.674 2.405" transform="translate(12 33) translate(61.217)"/>
                                    <path fill="#FFBDB3" d="M77.16 45.883c.372 1.902-.871 3.743-2.777 4.114l-8.495 1.65c-1.908.371-3.751-.87-4.123-2.772-.371-1.9.87-3.742 2.778-4.113l8.495-1.651c1.906-.37 3.752.873 4.123 2.772" transform="translate(12 33) translate(61.217)"/>
                                    <path fill="#FF9E8F" d="M65.888 51.647l8.495-1.65c1.906-.37 3.15-2.212 2.778-4.114l-15.396 2.992c.372 1.902 2.215 3.143 4.123 2.772" transform="translate(12 33) translate(61.217)"/>
                                    <path fill="#FFF" d="M67.244 50.418l-1.528.297c-1.394.271-2.74-.632-3.01-2.023-.272-1.387.634-2.733 2.029-3.004l1.528-.297c1.39-.27 1.881.334 2.24 2.174.36 1.842.132 2.583-1.259 2.853" transform="translate(12 33) translate(61.217)"/>
                                    <path fill="#0C0C0C" d="M46.794 77.988s3.582 3.15 11.626 3.15 10.261-5.046 10.261-5.046l5.137 62.06s-6.52.729-16.047.102c-8.31-.546-15.209-12.217-15.209-12.217l4.232-48.05z" transform="translate(12 33) translate(61.217)"/>
                                </g>
                                <g transform="translate(12 33) translate(103.78 76.092)">
                                    <mask id="jtkvvokk2F" fill="#fff">
                                        <use xlink:href="#whj72c1nhE"/>
                                    </mask>
                                    <path fill="#070707" d="M2.815-2.268S9.45 17.666 15.43 28.646c8.095 14.861 16.028 28.355 16.028 28.355l.073-12.562-2.127-46.707H2.815z" mask="url(#jtkvvokk2F)"/>
                                </g>
                                <g>
                                    <path fill="#FFBDB3" d="M31.25 18.119c-.512.213-.953.522-1.317.9-1.107-1.134-2.83-1.544-4.37-.903-.573.24-1.06.598-1.444 1.037-1.103-.922-2.664-1.216-4.074-.629-.415.174-1.24.6-1.557.882L12.31 6.67C11.46 4.645 9.219-1.12 6.073.192c-3.146 1.31-.301 6.824.547 8.849l9.867 23.546-4.117-.93-.082-.036c-.982-.402-3.272-1.893-6.49-2.755C3.203 28.17-2 29.35.808 31.792c2.522 2.191 5.707 3.762 7.604 5.223 2.456 1.89 5.754 4.355 7.975 5.852 1.624 1.095 3.158 2.129 4.337 3.021.32.242.894.725 1.532 1.276 1.938 1.673 4.66 2.106 7.025 1.12l8.235-3.432c2.797-1.166 4.033-4.028 4.096-7.05.053-2.555.056-3.952-1.028-7.668s-4.135-9.866-4.135-9.866c-.848-2.026-3.181-2.99-5.199-2.15" transform="translate(12 33) translate(110.068 53.091)"/>
                                    <path fill="#FFBDB3" d="M29.243 55.465L44.806 48.978 40.578 38.89 25.016 45.377z" transform="translate(12 33) translate(110.068 53.091)"/>
                                    <path fill="#FFF" d="M9.596 2.823L9.14 1.73C8.675.623 7.4.101 6.289.565c-1.109.462-1.633 1.733-1.169 2.84l.458 1.093c.464 1.107 1.12 1.168 2.592.555 1.472-.614 1.89-1.123 1.426-2.23M4.442 34.45s.221-1.672-.99-2.457c-.965-.627-2.349-1.437-2.783-1.632-.435-.196-.665 1.003-.665 1.003l4.438 3.086z" transform="translate(12 33) translate(110.068 53.091)"/>
                                    <path fill="#0C0C0C" d="M43.97 41.091s-3.986 6.087-9.543 8.958c-3.37 1.74-8.715 3.203-8.715 3.203l5.136 32.418s4.777.857 13.347-.79c8.57-1.645 15.906-10.394 15.906-10.394l-16.13-33.395z" transform="translate(12 33) translate(110.068 53.091)"/>
                                </g>
                                <g transform="translate(12 33) translate(135.78 94.183)">
                                    <mask id="aq2r71piaH" fill="#fff">
                                        <use xlink:href="#j5en3pzu4G"/>
                                    </mask>
                                    <path fill="#070707" d="M18.03-3.605s3.818 27.002 2.358 33.434C17.602 42.102.372 13.923 1.053 25.965 1.741 38.118.625 48.817.625 48.817l42.865-4.63 4.996-14.366L18.03-3.605z" mask="url(#aq2r71piaH)"/>
                                </g>
                            </g>
                        </g>
                    </g>
                </g>
            </g>
        </g>
    </g>
</svg>
