<svg width="116" height="48" xmlns="http://www.w3.org/2000/svg" xmlns:xlink="http://www.w3.org/1999/xlink"><defs><path id="a" d="M0 0h11.734v7.029H0z"/><path id="c" d="M0 0h21v16.503H0z"/><path id="e" d="M0 0h6.036v9.302H0z"/><path id="g" d="M0 0h11.509v13.078H0z"/><path id="i" d="M0 0h8.413v8.486H0z"/><path id="k" d="M0 0h6.787v8.48H0z"/></defs><g fill="none" fill-rule="evenodd"><path d="M4 14.69h12.791c.477 0 .926-.19 1.263-.535l2.05-2.07H7.184c-1.403 0-2.871 1.266-3.184 2.605M5.844 19.367h6.376c.477 0 .926-.19 1.263-.536l2.05-2.07H9.029c-1.404 0-2.872 1.266-3.185 2.606" fill="#FFF"/><g transform="translate(4 28.971)"><mask id="b" fill="#fff"><use xlink:href="#a"/></mask><path d="m11.734 0-5.83 5.96V5.96a3.388 3.388 0 0 1-2.467 1.07C1.539 7.029 0 5.456 0 3.515 0 1.574 1.539 0 3.437 0h8.297" fill="#FFF" mask="url(#b)"/></g><g transform="translate(6.389 12)"><mask id="d" fill="#fff"><use xlink:href="#c"/></mask><path d="M17.562 0c-.963 0-1.889.418-2.539 1.146L0 16.503a3.878 3.878 0 0 1 1.048-.145h8.815l10.13-10.359a3.532 3.532 0 0 0 1.006-2.485C21 1.576 19.457 0 17.562 0" fill="#FFF" mask="url(#d)"/></g><path d="m16.1 29.345-5.83 5.96s-.59.61-.881.695h18.02c-.352-3.96-3.617-7.03-7.58-7.03H16.466l-.366.375zM50.912 20.549c0 1.466 1.002 2.493 2.34 2.493 1.34 0 2.35-1.027 2.35-2.493 0-1.467-1.01-2.494-2.35-2.494-1.338 0-2.34 1.027-2.34 2.494m7.123 0c0 2.727-2.032 4.763-4.782 4.763-2.742 0-4.764-2.036-4.764-4.763 0-2.728 2.022-4.763 4.764-4.763 2.75 0 4.782 2.035 4.782 4.763M61.414 20.549c0 1.466 1.001 2.493 2.34 2.493 1.34 0 2.35-1.027 2.35-2.493 0-1.467-1.01-2.494-2.35-2.494-1.339 0-2.34 1.027-2.34 2.494m7.123 0c0 2.727-2.032 4.763-4.783 4.763-2.741 0-4.764-2.036-4.764-4.763 0-2.728 2.023-4.763 4.764-4.763 2.751 0 4.783 2.035 4.783 4.763M84.34 19.316v5.762h-1.446a.934.934 0 0 1-.922-.945V20.1c0-1.307-.647-2.026-1.722-2.026-1.02 0-1.867.681-1.867 2.045v4.96h-1.455a.934.934 0 0 1-.922-.946V20.1c0-1.307-.638-2.026-1.722-2.026-1.02 0-1.867.681-1.867 2.045v4.96H70.96a.934.934 0 0 1-.922-.946v-8.104h1.392c.509 0 .922.423.922.945v.12c.628-.963 1.594-1.308 2.596-1.308 1.275 0 2.323.588 2.915 1.55.683-1.149 1.84-1.55 2.996-1.55 2.078 0 3.48 1.428 3.48 3.53M94.013 17.495 92.3 18.96c-.537-.588-1.11-.906-1.885-.906-1.23 0-2.214.99-2.214 2.494 0 1.513.975 2.493 2.205 2.493.765 0 1.42-.355 1.922-.915l1.694 1.485c-.829 1.092-2.068 1.7-3.543 1.7-2.815 0-4.7-2.018-4.7-4.763 0-2.737 1.885-4.763 4.7-4.763 1.475 0 2.723.616 3.534 1.709M97 20.549c0 1.382.884 2.493 2.277 2.493 1.358 0 2.278-1.064 2.278-2.493 0-1.43-.92-2.494-2.278-2.494-1.393 0-2.277 1.111-2.277 2.494zm6.805 4.53h-1.4a.934.934 0 0 1-.923-.946v-.054c-.574.728-1.43 1.233-2.642 1.233-2.432 0-4.272-2.046-4.272-4.763 0-2.718 1.84-4.763 4.272-4.763 1.212 0 2.06.504 2.642 1.242v-1h2.323v9.05z" fill="#FFF"/><g transform="translate(105.964 15.769)"><mask id="f" fill="#fff"><use xlink:href="#e"/></mask><path d="M6.036.196 5.68 2.618c-.392-.178-.957-.29-1.44-.29-1.103 0-1.86.692-1.86 2.038v4.936H.923A.935.935 0 0 1 0 8.356V.243h1.384c.51 0 .923.424.923.947v.044C2.863.384 3.71 0 4.796 0c.51 0 .912.075 1.24.196" fill="#FFF" mask="url(#f)"/></g><g transform="translate(36.96 12)"><mask id="h" fill="#fff"><use xlink:href="#g"/></mask><path d="M10.744 0 3.108.002c-1.293 0-2.34 1.075-2.34 2.4v.001H7.37L.165 11.807c-.395.516-.037 1.271.603 1.271h9.983c0-1.325-1.048-2.4-2.341-2.4H4.129l7.215-9.413c.394-.513.037-1.265-.6-1.265" fill="#FFF" mask="url(#h)"/></g><path d="M77.72 33.414H54.457v-.346c0-.318.252-.576.562-.576h23.158v.452c0 .26-.206.47-.459.47M67.616 34.846h10.562v.346a.569.569 0 0 1-.562.576H67.158v-.452c0-.26.205-.47.458-.47M81.997 30.816h3.357V27.88a.21.21 0 0 1 .208-.213h1.489a.21.21 0 0 1 .207.213v7.756a.21.21 0 0 1-.207.213h-1.489a.21.21 0 0 1-.208-.213v-3.013h-3.357v3.013a.21.21 0 0 1-.208.213h-1.488a.21.21 0 0 1-.208-.213V27.88a.21.21 0 0 1 .208-.213h1.488a.21.21 0 0 1 .208.213v2.937z" fill="#FFF"/><g transform="translate(88.374 27.514)"><mask id="j" fill="#fff"><use xlink:href="#i"/></mask><path d="M1.984 4.243c0 1.403.923 2.373 2.223 2.373 1.3 0 2.223-.97 2.223-2.373 0-1.403-.924-2.373-2.223-2.373-1.3 0-2.223.97-2.223 2.373m6.43 0c0 2.443-1.745 4.243-4.207 4.243C1.744 8.486 0 6.686 0 4.243 0 1.8 1.744 0 4.207 0c2.462 0 4.206 1.8 4.206 4.243" fill="#FFF" mask="url(#j)"/></g><g transform="translate(97.563 27.52)"><mask id="l" fill="#fff"><use xlink:href="#k"/></mask><path d="M5.93 2.277a.203.203 0 0 1-.28.084c-.55-.31-1.266-.584-2.107-.584-.723 0-1.254.251-1.254.736 0 .515.758.637 1.642.795l.33.058c1.55.275 2.526 1.018 2.526 2.356 0 1.946-1.636 2.758-3.346 2.758-1.248 0-2.47-.314-3.347-.92a.216.216 0 0 1-.064-.288l.74-1.236c.06-.1.188-.131.285-.069.593.386 1.383.743 2.403.743.718 0 1.265-.252 1.265-.76 0-.491-.536-.631-1.579-.795l-.399-.064C1.104 4.827.215 4.068.243 2.595.27 1.005 1.593 0 3.458 0 4.48 0 5.374.163 6.495.764a.214.214 0 0 1 .084.288l-.65 1.225z" fill="#FFF" mask="url(#l)"/></g><path d="M111.265 29.478h-2.15v6.156a.211.211 0 0 1-.21.214h-1.486a.212.212 0 0 1-.209-.214v-6.156h-2.157a.211.211 0 0 1-.208-.214V27.88c0-.118.093-.214.208-.214h6.212c.116 0 .21.096.21.214v1.384a.212.212 0 0 1-.21.214" fill="#FFF"/></g></svg>