<svg id="Layer_1" data-name="Layer 1" xmlns="http://www.w3.org/2000/svg" xmlns:xlink="http://www.w3.org/1999/xlink" width="125" height="146" viewBox="0 0 125 146">
  <defs>
    <style>
      .cls-1, .cls-2 {
        fill: #fff;
      }

      .cls-1, .cls-10, .cls-12, .cls-14, .cls-22, .cls-4, .cls-5, .cls-8, .cls-9 {
        fill-rule: evenodd;
      }

      .cls-3, .cls-5 {
        fill: #f4f4f4;
      }

      .cls-30, .cls-4 {
        fill: #dfdfdf;
      }

      .cls-6 {
        fill: #848484;
      }

      .cls-7 {
        fill: #c6c6c6;
      }

      .cls-29, .cls-8 {
        fill: #005c00;
      }

      .cls-9 {
        fill: #0f0f0f;
      }

      .cls-10, .cls-15 {
        fill: #f9b6ac;
      }

      .cls-11, .cls-22 {
        fill: #f5908c;
      }

      .cls-12, .cls-19 {
        fill: #1f1f1f;
      }

      .cls-13, .cls-17, .cls-21, .cls-25, .cls-27, .cls-31 {
        fill: none;
      }

      .cls-14 {
        fill: #00a700;
      }

      .cls-16 {
        mask: url(#mask);
      }

      .cls-17 {
        stroke: #010101;
        stroke-linejoin: round;
        stroke-width: 0.82px;
      }

      .cls-17, .cls-21, .cls-27, .cls-31 {
        stroke-linecap: round;
      }

      .cls-18 {
        fill: #292929;
      }

      .cls-20 {
        fill: #1b1b1b;
      }

      .cls-21, .cls-25, .cls-27, .cls-31 {
        stroke: #fff;
        stroke-miterlimit: 10;
      }

      .cls-21 {
        stroke-width: 1.33px;
      }

      .cls-23 {
        fill: #4d4d4d;
      }

      .cls-24 {
        fill: #505dc8;
      }

      .cls-25 {
        stroke-width: 0.99px;
      }

      .cls-26 {
        fill: #90a1eb;
      }

      .cls-27 {
        stroke-width: 0.75px;
      }

      .cls-28 {
        fill: #010101;
      }

      .cls-31 {
        stroke-width: 1.32px;
      }
    </style>
    <mask id="mask" x="-45.66" y="32.59" width="296.81" height="190.14" maskUnits="userSpaceOnUse">
      <g id="ikhcoswtsJ">
        <path id="m61899kzgI" class="cls-1" d="M-45.66,222.73H251.15V32.59H-45.66Z"/>
      </g>
    </mask>
  </defs>
  <rect class="cls-2" width="125" height="146"/>
  <path class="cls-3" d="M51.27,39.61c-11.77,0-24,4-32.07,13.43S8.37,77.73,14.64,88.64A28.43,28.43,0,0,0,31.25,101.3c6.65,2,13.69,1.93,20.54,1.08a84.7,84.7,0,0,1,11-1.09c7.32,0,14.54,2.85,21.84,2.15,6-.57,10.4-1.32,15.52-4.83a34.22,34.22,0,0,0,8.53-8.92c2.28-3.38,5-9.13,4.26-13.25-.69-3.69-2.93-6.77-4.38-10.19-3.41-8.1-2.48-18.38-7.89-25-3.22-4-8.2-5.81-13-6.06-6-.32-12.18,1.21-17.87,3.07C63.61,40.23,57.59,39.61,51.27,39.61Z"/>
  <g>
    <path class="cls-4" d="M116.9,73.24s-1.64-1.41-4.39,2.62a56.9,56.9,0,0,0-3.89,6.41s-.7.82-1.24.16-1.18-2.45-2.27-2.29-1.64,1.35-1.66,3.17-.22,5.8-.24,6.16-.28.85-.73.45-2.84-3.87-4.42-2.63-.8,6.32-.73,6.88-.06.77-.33.87-1-1.14-1.69-2.1-1.73-2-2.58-1.16-1.56,4.44,1.17,10.85l1.46,2.89,3.24.23c7,.07,10.06-2,10.46-3.07s-.89-1.64-2-1.94-2.58-.47-2.59-.76.14-.5.68-.64S110.62,98,111.16,96,107.58,93.2,107,93s-.18-.7.14-.85,3.93-1.86,5.6-2.57,2.56-1.64,2.29-2.76-2.15-1-3-1.22-.33-1.21-.33-1.21a55.89,55.89,0,0,0,4.43-6c2.67-4.08.68-5.07.68-5.07Z"/>
    <path class="cls-1" d="M102.13,94.23,102,93.7c-.14-.44-.35-1.06-.57-1.73s-.45-1.28-.61-1.72c-.07-.22-.14-.39-.18-.51s-.09-.18-.09-.18,0,.08,0,.19.1.3.17.53c.14.44.35,1.06.57,1.73s.45,1.28.6,1.71c.08.23.15.4.2.53l.08.18S102.16,94.36,102.13,94.23Zm6.35.7-.59,0c-.49,0-1.18.06-1.93.07s-1.16,0-1.6,0h-.3l-.58,0a.67.67,0,0,0-.21,0l.19,0,.57.06.23,0c.46,0,1,.06,1.67.06s1.45-.05,1.95-.1l.6-.07a.62.62,0,0,0,.21,0S108.62,94.92,108.48,94.93Zm2.34-7.14-1.11.22c-1,.19-1.74.35-1.86.4.11,0,.82-.11,1.79-.3h0l1.17-.21c1.66-.31,3-.59,3-.61S112.47,87.48,110.82,87.79Zm-3.81.67c0-.16,0-.37-.05-.61,0-.54-.11-1.24-.17-2s-.14-1.49-.21-2c0-.26-.06-.47-.09-.61s0-.22,0-.22,0,.07,0,.22l.07.62.18,2c.06.79.13,1.5.2,2,0,.26.06.48.08.62l0,.22A.59.59,0,0,0,107,88.46Zm8-10.62a2,2,0,0,0-.17.23c-.14.21-.35.49-.63.87l-1.65,2.32-.65.9c-1.94,2.72-4.65,6.47-7.64,10.6-1.54,2.09-3,4.1-4.29,5.93s-2.4,3.34-3.34,4.67c0,.06-.07.1-.1.15l-1.31,1.84-.87,1.25-.61.89a.79.79,0,0,0-.1.16,1,1,0,0,0,.11-.15c.16-.2.36-.5.63-.88l.87-1.22,1.36-1.89.07-.1c1-1.39,2.18-3,3.51-4.87a0,0,0,0,1,0,0c1.27-1.76,2.66-3.69,4.14-5.72,3-4.12,5.69-7.87,7.62-10.61.19-.26.36-.51.54-.75.72-1,1.31-1.86,1.74-2.49l.61-.88c.06-.1.12-.17.16-.24l0-.06ZM93.67,107.65a0,0,0,0,0,0,0l0,0,0,0v0Z"/>
  </g>
  <g>
    <path class="cls-4" d="M30.16,89.59a5.16,5.16,0,0,0-.78-2.13,1.54,1.54,0,0,0-2-.39c-.49.38-.58,1.08-.77,1.68a4.5,4.5,0,0,1-1.36,2.06,1.64,1.64,0,0,1-1.48.47c-.72-.22-1-1.09-1.15-1.84l-.9-4.17A7.12,7.12,0,0,0,21,83.11a2.34,2.34,0,0,0-1.77-1.24,1.4,1.4,0,0,0-1.5,1.31,6.1,6.1,0,0,0,.18.93.79.79,0,0,1-.28.83.89.89,0,0,1-.89-.16,10.21,10.21,0,0,1-2.34-2.3,13.92,13.92,0,0,0-2.25-2.41,4,4,0,0,0-3-.94A2.41,2.41,0,0,0,7.06,81.3a3.72,3.72,0,0,0,1.65,2.75,16.68,16.68,0,0,0,4.14,2.55,1.42,1.42,0,0,1,.7.5c.27.46-.08,1.05-.53,1.32a7.83,7.83,0,0,1-1.67.57,1.68,1.68,0,0,0-1.21,1.18c-.13.83.67,1.49,1.4,1.87a14.28,14.28,0,0,0,4.69,1.53,4.73,4.73,0,0,1,1.71.42,1.44,1.44,0,0,1,.79,1.48,1.41,1.41,0,0,1-1.37.92,10.43,10.43,0,0,1-1.75-.27,2.58,2.58,0,0,0-2.83,1.21A2.46,2.46,0,0,0,13,99.47a5.75,5.75,0,0,0,1.52,1.59,14.46,14.46,0,0,0,7,3c2.51.31,7.33,2,9.46.68,3.19-3.52.35-10.68-.79-15.13Z"/>
    <path class="cls-5" d="M29.17,105.93a32.06,32.06,0,0,0-2.51-5.72,66.8,66.8,0,0,0-4.17-6.43l-1.18-1.62c-.39-.54-.78-1.07-1.19-1.56a34.82,34.82,0,0,0-2.52-2.7c-.85-.83-1.68-1.58-2.47-2.27s-1.53-1.32-2.23-1.87a26.23,26.23,0,0,0-3.53-2.34c-.43-.24-.78-.42-1-.53l-.27-.14-.1,0s0,0,.09.06l.26.14,1,.56a28.19,28.19,0,0,1,3.48,2.37c.7.55,1.44,1.18,2.23,1.88s1.61,1.45,2.45,2.27a32.83,32.83,0,0,1,2.5,2.7c.41.49.79,1,1.18,1.55l1.18,1.62a67.19,67.19,0,0,1,4.17,6.41A32.19,32.19,0,0,1,29.08,106Z"/>
    <path class="cls-5" d="M20.89,90.75c0-.2-.05-.49-.1-.85-.08-.72-.24-1.7-.42-2.79S20,85,20,84.33c0-.36-.07-.65-.09-.85s0-.31,0-.31a.94.94,0,0,0,0,.31c0,.2,0,.5,0,.86.06.72.19,1.71.37,2.79l.46,2.78c.05.33.1.62.14.84a1.41,1.41,0,0,0,.06.31,1.82,1.82,0,0,0,0-.31Z"/>
    <path class="cls-5" d="M11.64,90l1,.06c.84.06,2,.18,3.26.37s2.41.4,3.23.58l1,.22.36.07a2,2,0,0,0-.34-.12c-.23-.07-.55-.16-1-.26-.82-.2-2-.43-3.23-.62S13.48,90,12.64,90c-.42,0-.77,0-1,0a1.53,1.53,0,0,0-.37,0A1.82,1.82,0,0,0,11.64,90Z"/>
    <path class="cls-5" d="M27.22,100.21l-.39-.06-.23,0-.16,0c-.31-.06-.68-.11-1.09-.16-1.25-.17-3-.43-4.86-.73s-3.62-.52-4.86-.68l-1.48-.15-.41,0h-.13s0,0,.13,0l.41.06,1.47.21c1.25.17,3,.43,4.86.73s3.61.52,4.87.67l1.14.13h.15l.18,0,.4,0h.14ZM28.64,86.8a.59.59,0,0,0,0,.14c0,.07,0,.14-.06.23-.08.33-.17.81-.27,1.4S28.12,89.5,28,90c-.14.95-.31,2-.46,3.21l-.49,3.57c-.07.4-.13.77-.18,1.1-.09.58-.16,1.06-.23,1.4l0,.18,0,.22a1.16,1.16,0,0,0,0,.13s0,0,0-.13a1.46,1.46,0,0,1,.05-.2s0-.11,0-.18c.07-.33.16-.81.27-1.4.06-.27.11-.56.15-.88h0c.17-1.07.36-2.37.55-3.79.15-1.06.29-2.07.41-3,.1-.64.18-1.22.26-1.72s.18-1,.23-1.4l0-.24,0-.15a.85.85,0,0,0,0-.13A.39.39,0,0,0,28.64,86.8Z"/>
  </g>
  <path class="cls-6" d="M52,65.84s-20.08-1.41-29.91,4.37A4.1,4.1,0,0,0,20.27,75l10,32,34.6-.71Z"/>
  <path class="cls-7" d="M54.36,63.5s-20.08-1.41-29.91,4.38a4.08,4.08,0,0,0-1.84,4.74l10,32,34.6-.72Z"/>
  <path class="cls-8" d="M52.77,61c4.42-.65,6.92-1,11-.28,2.31,1.36,4.89,5,5.8,8.23l-7,4.47L46.62,65l6.15-4Z"/>
  <path class="cls-9" d="M65.58,39s7.27,2.68,2.23,9.67S65.58,39,65.58,39Z"/>
  <path class="cls-10" d="M68.61,52.09l-.1-.94-.34-3h0l-.07-.61-.34-3a9.86,9.86,0,0,0-.38-1.73.46.46,0,0,0,0-.09,8,8,0,0,0-.48-1.13,1.62,1.62,0,0,0-.1-.18,8,8,0,0,0-1.3-1.78,3.61,3.61,0,0,0-.33-.35,8,8,0,0,0-.77-.65,8.54,8.54,0,0,0-11.38,1,8.63,8.63,0,0,0-2.32,6.92c0,.34.09.65.14.94s.07.37.1.55c.13.66.29,1.22.44,1.78,0,0,0,.08,0,.12a16.3,16.3,0,0,1,.51,2.67l0,.22h0a4.28,4.28,0,0,0,.26,1A4.35,4.35,0,0,0,52.75,55a.26.26,0,0,0,.08.13,6.5,6.5,0,0,0,1.61,1.57,16.09,16.09,0,0,0,8.8,2.41.37.37,0,0,0,.16,0A6.34,6.34,0,0,0,68.61,52.09ZM76,107.91l-7.28-.24H42v0c0-.28,0-.61,0-1,0-.64,0-1.41,0-2.29,0-.29,0-.57,0-.87v-.1c0-.16,0-.32,0-.49,0-.54,0-1.12,0-1.71-.08-2.28-.16-4.93-.28-7.72-.09-2-.19-4-.31-6.09h0C41,82.66,40.62,77.93,40.12,74c-.2-1.49,1-6.12,2.49-8.26.48-.71,1-1.15,1.48-1.13a10.75,10.75,0,0,0,1.69,0c.57,0,1.14-.12,1.75-.22h0c.86-.15,1.75-.33,2.67-.52l1.41-.3.7-.15h0l1.06-.2a25.39,25.39,0,0,1,5.75-.49c.74,0,1.43.11,2.09.19h.06c.67.1,1.3.21,1.89.35l.23.05.33.09c.55.14,1.07.28,1.57.43l2.2.71q.8.27,1.59.48l.42.12a15.41,15.41,0,0,0,2,.38,4.53,4.53,0,0,0,.53,0,5.44,5.44,0,0,0,.58.05c.5,0,1,3.36,1.44,8.2l.12,1.25c.66,7.73,1.22,18.57,1.57,26.17,0,.6.05,1.19.08,1.74,0,.18,0,.35,0,.53v.07c.07,1.6.13,3,.17,4.07v0c0,.07,0,.14,0,.22Z"/>
  <path class="cls-5" d="M76,107.91a2.12,2.12,0,0,1,0-.24v0c-.08-1.08-.18-2.47-.3-4.07v-.07c0-.19,0-.37,0-.56,0-.54-.08-1.12-.13-1.71-.57-7.57-1.44-18.39-2.34-26.17,0-.43-.09-.84-.14-1.26-.1-.87-.21-1.69-.31-2.45a25.3,25.3,0,0,0-1.19-5.84c-.07-.14-.16-.23-.23-.23a12.71,12.71,0,0,1-1.73-.19A3.39,3.39,0,0,1,69.1,65c-.54-.11-1-.24-1.54-.39-.75-.23-1.46-.5-2.23-.75q-.75-.26-1.59-.48l-.33-.09-.23-.05a16.89,16.89,0,0,0-1.89-.35h-.06c-.66-.08-1.35-.16-2.09-.19a25.39,25.39,0,0,0-5.75.49l-1.06.2h0l-.7.15-1.41.3c-.92.19-1.81.37-2.67.52h0c-.61.1-1.18.18-1.75.22a10.75,10.75,0,0,1-1.69,0c-.5,0-1,.42-1.48,1.13-1.46,2.14-2.69,6.77-2.49,8.26.5,3.9.88,8.63,1.16,13.36h0c.12,2.06.22,4.11.31,6.09.12,2.79.2,5.44.28,7.72,0,.59,0,1.17,0,1.71,0,.17,0,.33,0,.49v.1c0,.3,0,.58,0,.87,0,.88,0,1.65,0,2.29,0,.37,0,.7,0,1v0H68.69Z"/>
  <path class="cls-10" d="M53.39,63.12,55,53.47l8.13,1.58.35,8.8c-.47,6.64-10.52,5.92-10-.72Z"/>
  <path class="cls-11" d="M67.37,42.82a5,5,0,0,0-.59-1.4c-.06-.08-3.06,1-3.35,1.06-1.12.27-2.25.49-3.38.67-.51.09-2.73.08-3,.5-.44.8,1.59.65,1.92.69C60.26,44.49,65.87,44.23,67.37,42.82Z"/>
  <path class="cls-12" d="M57.29,45.64c-.18,3.43-2.78,5.2-3.86,8.22a2.5,2.5,0,0,1-1,1.51,1.41,1.41,0,0,1-1,.05,3,3,0,0,1-1.74-1.84c-.33-.81-.46-1.68-.74-2.51-.73-2.16-2.5-4.17-2-6.41.4-1.92,2.23-3.12,3.59-4.35a21.18,21.18,0,0,1,4.24-3c2.87-1.54,6.71-2.89,9.89-1.5,5.66,2.47,4.49,7.92-7.35,8.62Z"/>
  <path class="cls-10" d="M52,49.68c1.13-.19,2.24.85,2.47,2.31a2.43,2.43,0,0,1-1.64,3A2.75,2.75,0,0,1,52,49.68Z"/>
  <path class="cls-13" d="M76,107.89l-.06,0"/>
  <path class="cls-14" d="M76,107.91l-7.28-.24v0l-.3-4.07v-.07l-.13-1.76,0-.5L67.38,89.5a.28.28,0,0,0,0-.06.2.2,0,0,0,0-.07c0-.09,0-.22,0-.37l-.25-3.7.52-10.23.07-1.27.2-3.78L68,67.57l.67-1.06.87-1.37,0,0,1.09-1.71-.12-.65.44.11a4.6,4.6,0,0,1,2.63,1.91c1.27,1.9,3.3,5.25,5.55,9.06.25.42.5.83.74,1.25C85.31,84.3,91.66,95.5,91.66,95.5a58.2,58.2,0,0,1-2.74,5.74c-.38.66-.76,1.3-1.15,1.85l-.31.42-.06.07c-.81,1-1.6,1.6-2.17,1.13a11.88,11.88,0,0,1-1.14-1.13l-.06-.07,0,0c-.55-.62-1.18-1.38-1.84-2.24-1.82-2.34-4-5.42-6-8.4l.23,8.4,0,1.84v.5l.11,4.07v0l-.56.22Z"/>
  <g>
    <path class="cls-14" d="M51,67.26l-.33-1.49-.43-1.92-.05-.22-1.11-.25-.1,0-1.86-.42-.41.18-.54.27h-.09L43,64.76A10.93,10.93,0,0,0,41,65.84h0a6.79,6.79,0,0,0-2.89,6.31l2.53,24.36L40,102.83l-.08.68-.09.92-.24,2.28-.09.94v0l2.52.79c0-.19,0-.46,0-.79H55.38v0l0-1.25.06-2.3,0-.52v-.07l.06-1.64,0-.6,0-.75s0,0,0,0L55.7,97v0l0-.43.14-4.82v-.22l0-.59h0l0-1.11v-.45Z"/>
    <path class="cls-15" d="M49.08,96.14s8.94-2.38,9.13,5.13H49.14Z"/>
    <path class="cls-8" d="M69.16,74.24l.56-.43L72.15,72A2.37,2.37,0,0,0,73,69.51l-1-3.94-.38-1.52a2.57,2.57,0,0,0-.7-1.2,2.34,2.34,0,0,0-.82-.54,32.86,32.86,0,0,0-6.34-1.63h0a28.69,28.69,0,0,1,1.51,3.14s0,0,0,.05c.22.52.44,1.1.67,1.71a17.15,17.15,0,0,1,.71,5.16c0,.65,0,1.33,0,2.06,0,.34,0,.67,0,1v1.27c0,7.3.45,12.35.6,13.93,0,.15,0,.28,0,.37a.2.2,0,0,1,0,.07.28.28,0,0,1,0,.06L73,77.41l-2.85-2.34Zm-15.82-2.1a19.22,19.22,0,0,1-1.61-4.48,13.63,13.63,0,0,1-.24-1.85,8.72,8.72,0,0,1,.13-2.26l0-.17A5.21,5.21,0,0,1,52.76,61h0c-3.51,1.08-4.23,1.38-5.68,1.93a1.47,1.47,0,0,0-.41.22,1.49,1.49,0,0,0-.33.27,2,2,0,0,0-.57,1.2h0l-.11,1.1-.38,3.66a2.37,2.37,0,0,0,1.17,2.3l3.78,2.15-1.69,1.93a2.35,2.35,0,0,0-.19,2.87l7.57,11.23v0C56.79,83.68,54.82,75.17,53.34,72.14Z"/>
    <g class="cls-16">
      <path class="cls-14" d="M42.12,104.09c2.51-2.3-1.93-8.09,1.26-9.24a3.72,3.72,0,0,1-1.12-3.68A36.77,36.77,0,0,1,46,82.25l-7.12-14S28.35,86,28.13,95.28C28,101.92,38.13,103.74,42.12,104.09Z"/>
    </g>
    <g class="cls-16">
      <path class="cls-17" d="M57.8,50l-1.23,0-.9,0-1.28,0-1.24,0h0l-1.55-.05h0l-.23,0-.73,0m13-.09a1.79,1.79,0,0,0-1.85-1.6l-2,.1A1.61,1.61,0,0,0,58.15,50l0,.23A1.78,1.78,0,0,0,60,51.8l2-.1a1.62,1.62,0,0,0,1.55-1.77Zm6.81-.56a1.81,1.81,0,0,0-1.86-1.62l-.45,0-1.6.09A1.61,1.61,0,0,0,65,49.08v0a.88.88,0,0,0,0,.28l0,.24a1.8,1.8,0,0,0,1.85,1.6l1.69-.08.37,0a1.63,1.63,0,0,0,1.55-1.77Z"/>
    </g>
  </g>
  <ellipse class="cls-2" cx="53.11" cy="50.28" rx="3.49" ry="3.73"/>
  <g id="GWUafx">
    <g>
      <path class="cls-18" d="M103.15,76.62a2,2,0,0,0-1.88-1.54H66a4.43,4.43,0,0,0-4.2,3q-.72,2.19-1.41,4.38h0c-.17.5-.33,1-.5,1.5-.35,1.1-.7,2.2-1.06,3.3h0c-.27.86-.54,1.72-.82,2.58,0,0,0,0,0,0A.14.14,0,0,0,58,90c0,.06,0,.15-.09.25a1.57,1.57,0,0,1-.19.33,3.42,3.42,0,0,0-.2-1,3.38,3.38,0,0,1-.08.34c0,1.23-.33,1.57-1.55,1.58h-.15c0,.07,0,.12-.07.18l.21,0a1.65,1.65,0,0,0,1.47-.44,30.45,30.45,0,0,1-1.22,4.41c-.09.31-.19.6-.29.9h0L55.7,97v0c-.15.47-.29.94-.43,1.4a1.84,1.84,0,0,0-.08.38,2.19,2.19,0,0,0,0,.57.43.43,0,0,0,0,.16.4.4,0,0,0,0,.15v0s0,0,0,0a1.12,1.12,0,0,0,.08.26.08.08,0,0,0,0,0,.64.64,0,0,0,.08.19s0,0,0,0a1.6,1.6,0,0,0,.16.23s0,0,0,0,0,0,0,0a.75.75,0,0,0,.15.16.48.48,0,0,0,.16.12s0,0,0,0a.56.56,0,0,0,.15.1.82.82,0,0,0,.23.11l.19.07a.94.94,0,0,0,.24.06.32.32,0,0,0,.16,0,2,2,0,0,0,.43,0H75.48s0,0,0,0,0,0,0,0,0,0,0,0,0,0,0,0h0s0,0,0,0h0s0,0,0,0h0s0,0,0,0h0s0,0,0,0,0,0,0,0,0,0,0,0,0,0,0,0h0s0,0,0,0,0,0,0,0,0,0,0,0,0,0,0,0,0,0,0,0,0,0,0,0h0s0,0,0,0h0s0,0,0,0h0s0,0,0,0h0s0,0,0,0,0,0,0,0,0,0,0,0,0,0,0,0,0,0,0,0,0,0,0,0,0,0,0,0,0,0,0,0,0,0,0,0h0s0,0,0,0h0s0,0,0,0h0s0,0,0,0h0s0,0,0,0,0,0,0,0,0,0,0,0,0,0,0,0,0,0,0,0,0,0,0,0h0s0,0,0,0,0,0,0,0,0,0,0,0,0,0,0,0h0s0,0,0,0h0s0,0,0,0h0s0,0,0,0,0,0,0,0,0,0,0,0,0,0,0,0,0,0,0,0h0s0,0,0,0h0s0,0,0,0h0s0,0,0,0h0s0,0,0,0,0,0,0,0,0,0,0,0a0,0,0,0,0,0,0s0,0,0,0,0,0,0,0,0,0,0,0,0,0,0,0,0,0,0,0h0s0,0,0,0h0s0,0,0,0h0s0,0,0,0h0s0,0,0,0,0,0,0,0,0,0,0,0,0,0,0,0,0,0,0,0,0,0,0,0,0,0,0,0,0,0,0,0,0,0,0,0,0,0,0,0,0,0,0,0,0,0,0,0,0,0,0,0,0,0,0,0h0s0,0,0,0h0s0,0,0,0,0,0,0,0h0s0,0,0,0,0,0,0,0,0,0,0,0h0s0,0,0,0,0,0,0,0h0s0,0,0,0h0s0,0,0,0,0,0,0,0,0,0,0,0h0s0,0,0,0h0s0,0,0,0,0,0,0,0,0,0,0,0,0,0,0,0,0,0,0,0,0,0,0,0,0,0,0,0,0,0,0,0,0,0,0,0h0s0,0,0,0h0s0,0,0,0,0,0,0,0,0,0,0,0,0,0,0,0,0,0,0,0,0,0,0,0,0,0,0,0,0,0,0,0h0s0,0,0,0h0s0,0,0,0,0,0,0,0,0,0,0,0,0,0,0,0,0,0,0,0a0,0,0,0,0,0,0s0,0,0,0,0,0,0,0,0,0,0,0,0,0,0,0,0,0,0,0,0,0,0,0a0,0,0,0,0,0,0,0,0,0,0,0,0,0,0,0,0,0,0,0,0,0,0,0,0,0,0,0s0,0,0,0,0,0,0,0,0,0,0,0,0,0,0,0,0,0,0,0,0,0,0,0,0,0,0,0,0,0,0,0,0,0,0,0,0,0,0,0,0,0,0,0,0,0,0,0a0,0,0,0,0,0,0,0,0,0,0,0,0,0,0,0,0,0,0,0,0,0,0,0,0,0,0,0s0,0,0,0a0,0,0,0,0,0,0s0,0,0,0a0,0,0,0,0,0,0s0,0,0,0a.06.06,0,0,0,.06,0,0,0,0,0,0,0,0,0,0,0,0,0,0,0,0,0,0,0,0,0,0,.06.06,0,0,0,.06,0,0,0,0,0,0,0,0,.06.06,0,0,0,.06,0,.06.06,0,0,0,.06,0,.49.49,0,0,0,.17,0,.06.06,0,0,0,.06,0,.06.06,0,0,0,.06,0,0,0,0,0,0,0,0,.06.06,0,0,0,.06,0,0,0,0,0,0,0,0,0,0,0,0,0,0,0s0,0,0,0a.06.06,0,0,0,.06,0s0,0,0,0,0,0,0,0,0,0,0,0a0,0,0,0,0,0,0s0,0,0,0,0,0,0,0,0,0,0,0a.06.06,0,0,0,.06,0s0,0,0,0,0,0,0,0,0,0,0,0,0,0,0,0h0s0,0,0,0h0a0,0,0,0,0,0,0h0s0,0,0,0h0s0,0,0,0h0s0,0,0,0a0,0,0,0,0,0,0,.06.06,0,0,0,.06,0,0,0,0,0,0,0,0s0,0,0,0,0,0,0,0h0s0,0,0,0h0s0,0,0,0h0s0,0,0,0,0,0,0,0,0,0,0,0h0s0,0,0,0,0,0,0,0,0,0,0,0,0,0,0,0h0s0,0,0,0h0s0,0,0,0,0,0,0,0,0,0,0,0,0,0,0,0,0,0,0,0a.08.08,0,0,0,.07,0,0,0,0,0,0,0,0s0,0,0,0h0s0,0,0,0h0s0,0,0,0h0s0,0,0,0h0s0,0,0,0h0s0,0,0,0,0,0,0,0,0,0,0,0,0,0,0,0,0,0,0,0,0,0,0,0h0s0,0,0,0h0s0,0,0,0,0,0,0,0,0,0,0,0,0,0,0,0,0,0,0,0h0s0,0,0,0h0s0,0,0,0h0s0,0,0,0,0,0,0,0h0s0,0,0,0,0,0,0,0a.11.11,0,0,0,.08,0,0,0,0,0,0,0,0s0,0,0,0,0,0,0,0,0,0,0,0,0,0,0,0h0s0,0,0,0h0s0,0,0,0,0,0,0,0,0,0,0,0,0,0,0,0,0,0,0,0h0s0,0,0,0,0,0,0,0,0,0,0,0h0s0,0,0,0h0s0,0,0,0,0,0,0,0c2.25,0,4.51,0,6.76,0H92.1c.4,0,.78.16,1.17.12h.11l.14,0c0-.2.15-.16.26-.2a4.62,4.62,0,0,0,2.48-1.89c-.17-.12,0-.22,0-.33a16.43,16.43,0,0,0,1-3c.21-1,.69-1.81.9-2.76a.25.25,0,0,1,.29-.21,4.3,4.3,0,0,0,.36-1.1c-.25-.23,0-.46,0-.66.09-.38.2-.76.32-1.14.23-.75.49-1.5.74-2.25,0-.09.06-.17.09-.27h0c.09-.28.18-.56.28-.85a25.34,25.34,0,0,0,1.12-3.82c0-.21.31-.37,0-.65h0s0,0,0,0a1.06,1.06,0,0,0,.2,0l0,0a.07.07,0,0,0,.05,0,.2.2,0,0,0,.06-.11c.34-1.19.74-2.37,1.15-3.54A3.88,3.88,0,0,0,103.15,76.62Z"/>
      <path class="cls-19" d="M103.61,77c-1.47,4.64-3,9.27-4.46,13.91-.1.31-.21.61-.32.92-.23-.22,0-.46,0-.66.38-1.53,1-3,1.43-4.52a24.5,24.5,0,0,0,1.11-3.82c0-.21.31-.37.06-.65-.08-.08.27.07.36-.22.34-1.19.74-2.37,1.15-3.54a3.74,3.74,0,0,0,.18-1.75,2,2,0,0,0-1.88-1.55H66a4.45,4.45,0,0,0-4.21,3C60.52,82,59.27,86,58,89.89c-.06.17-.66,2.09-.69,2.16-.69,2.13-1.42,4.24-2.06,6.39a2.06,2.06,0,0,0,2.08,2.81q17.37,0,34.76,0c.48,0,.94.25,1.42.08s.74,0,.67.59c0,.39,0,.79-.18,1.14a1.11,1.11,0,0,1-.92.54h-40c-1.33,0-8.59.38-11.33-.2-1-.21-1.68-2.18-1.08-2.18,10.32,0,13.19,0,14.06,0a2.61,2.61,0,0,1-1.25-1.48,2.19,2.19,0,0,1,0-1.19l2.13-6.64h0l3.76-11.73c.32-1,.67-2,1-3a4.9,4.9,0,0,1,4.54-3.36c12.15,0,24.3,0,36.45,0C103.23,73.83,104.2,75.1,103.61,77Z"/>
      <path class="cls-20" d="M96.25,99.23c-.16-.13,0-.23,0-.34a16.43,16.43,0,0,0,1-3c.21-1,.7-1.81.9-2.76a.26.26,0,0,1,.29-.21c-.57,1.79-1.13,3.59-1.71,5.37A2.81,2.81,0,0,1,96.25,99.23Z"/>
      <path class="cls-20" d="M79.18,85.26a2.7,2.7,0,0,1,1.88-1.09,3.15,3.15,0,0,1,2.25.46,2.77,2.77,0,0,1,1.14,2.05,2.28,2.28,0,0,1-.84,2,3,3,0,0,0,.12-1.89,2.47,2.47,0,0,0-1-1.4,3.17,3.17,0,0,0-1.68-.51A4.18,4.18,0,0,0,79.18,85.26Z"/>
    </g>
  </g>
  <path class="cls-21" d="M52.91,46.7s1.55-11.66,15-8.84"/>
  <path class="cls-2" d="M66.51,54.07l-3.82.4s.06.11.17.27a2,2,0,0,0,3.65-.67Z"/>
  <path class="cls-22" d="M55,57.17s2,3.37,8.24,3.37l-.07-1.46h0c-2.22.83-6.29-.52-8.21-1.92Z"/>
  <path class="cls-2" d="M76,107.91l-7.28-.24H42c0,.33,0,.6,0,.79l-2.52-.79H13.84a.71.71,0,0,1-.21,0H111a.71.71,0,0,1-.21,0H93.67l0,0,0,0H76.59l-.56.22Z"/>
  <path class="cls-23" d="M112.31,105v1.1a1.51,1.51,0,0,1-1.31,1.51.71.71,0,0,1-.21,0H13.84a.71.71,0,0,1-.21,0,1.51,1.51,0,0,1-1.32-1.51V105a1.52,1.52,0,0,1,1.53-1.53h97A1.52,1.52,0,0,1,112.31,105Z"/>
  <ellipse class="cls-24" cx="52.05" cy="50.28" rx="2.38" ry="2.55"/>
  <path class="cls-25" d="M54.09,53.19s.33,2,5.38,2.8"/>
  <path class="cls-2" d="M60.05,55.1a.88.88,0,0,0,0,1.76C61.68,56.86,61.68,55.1,60.05,55.1Z"/>
  <g>
    <path class="cls-24" d="M19.88,39v5.08a2.49,2.49,0,0,0,2.5,2.49h.74v3.1l3.28-3.1H32a2.49,2.49,0,0,0,2.5-2.49V39A2.51,2.51,0,0,0,32,36.5H22.38A2.51,2.51,0,0,0,19.88,39Z"/>
    <path class="cls-26" d="M42.5,35.66v5.07a2.5,2.5,0,0,1-2.5,2.5h-.74v3.1L36,43.23h-9.4a2.5,2.5,0,0,1-2.5-2.5V35.66a2.51,2.51,0,0,1,2.5-2.51H40A2.51,2.51,0,0,1,42.5,35.66Z"/>
    <g>
      <path class="cls-2" d="M28.36,37.26a.94.94,0,0,0,0,1.87A.94.94,0,0,0,28.36,37.26Z"/>
      <path class="cls-2" d="M33.29,37.26a.94.94,0,0,0,0,1.87A.94.94,0,0,0,33.29,37.26Z"/>
      <path class="cls-2" d="M38.22,37.26a.94.94,0,0,0,0,1.87A.94.94,0,0,0,38.22,37.26Z"/>
    </g>
  </g>
  <g>
    <g id="u6on8x">
      <path class="cls-24" d="M86.48,42.27A9.58,9.58,0,1,0,96,51.89,9.68,9.68,0,0,0,86.48,42.27Zm4.33,12.54a3.86,3.86,0,0,1-.67,1.1,2,2,0,0,1-2.23.41A8.49,8.49,0,0,1,84.46,54,9.68,9.68,0,0,1,82,50.39a2.35,2.35,0,0,1,1.2-3,.63.63,0,0,1,.81.06,4.21,4.21,0,0,1,1.38,2.37c.13.58,0,.69-.49,1l-.61.32L87,54c.06-.11.12-.16.13-.22.07-.51.33-.71.94-.69a4.65,4.65,0,0,1,2.35.71C90.93,54.06,91,54.3,90.81,54.81Z"/>
    </g>
    <path class="cls-27" d="M79.21,49.25a7.66,7.66,0,0,1,14.26-.39"/>
    <path class="cls-27" d="M93.6,54.49a7.66,7.66,0,0,1-14.39-.05"/>
    <polyline class="cls-27" points="92.43 49.01 93.64 49.69 94.32 48.48"/>
    <polyline class="cls-27" points="80.31 54.57 79.1 53.9 78.42 55.1"/>
  </g>
  <path class="cls-28" d="M66.76,49.1c-.81,0-.81.89,0,.89S67.57,49.1,66.76,49.1Z"/>
  <path class="cls-28" d="M61.88,49.58c-.81,0-.81.9,0,.9S62.69,49.58,61.88,49.58Z"/>
  <g>
    <rect class="cls-26" x="13.75" y="63.42" width="12.23" height="12.23" rx="2.88"/>
    <g id="qq6ZiB">
      <g>
        <path class="cls-2" d="M20,65.62a2.86,2.86,0,0,1,1.58.46,1.91,1.91,0,0,1,.9,1.93,1.74,1.74,0,0,1-.55,1.06c-.27.27-.57.51-.85.77a5.33,5.33,0,0,0-.42.4.82.82,0,0,0-.18.36c0,.13-.07.26-.11.39a.63.63,0,0,1-.71.48.69.69,0,0,1-.64-.71,1.93,1.93,0,0,1,.62-1.48c.31-.29.63-.56.95-.85a1.08,1.08,0,0,0,.35-.54.84.84,0,0,0-.56-1,1.3,1.3,0,0,0-.91,0,.81.81,0,0,0-.38.33,3.16,3.16,0,0,0-.34.72.73.73,0,0,1-.58.5.75.75,0,0,1-.85-.87A2.21,2.21,0,0,1,18.41,66,2.8,2.8,0,0,1,20,65.62Z"/>
        <path class="cls-2" d="M19.66,73.45a.82.82,0,0,1-.82-.87.84.84,0,1,1,.82.87Z"/>
      </g>
    </g>
  </g>
  <path class="cls-29" d="M41.89,84.35l-1.4,6.94A2.43,2.43,0,0,0,42,93.71l7.07,2.39L45.7,92.82a8.3,8.3,0,0,1-2.54-4Z"/>
  <line class="cls-17" x1="63.81" y1="49.72" x2="64.8" y2="49.62"/>
  <g>
    <path class="cls-30" d="M99.84,60.11v4.6A2.26,2.26,0,0,0,102.1,67h.68v2.81l3-2.81h5.11a2.26,2.26,0,0,0,2.26-2.27v-4.6a2.27,2.27,0,0,0-2.26-2.27H102.1A2.27,2.27,0,0,0,99.84,60.11Z"/>
    <line class="cls-31" x1="103.55" y1="60.96" x2="109.09" y2="60.96"/>
    <line class="cls-31" x1="103.55" y1="63.57" x2="109.09" y2="63.57"/>
  </g>
  <path class="cls-3" d="M76.59,29.06c-.86.68-1.56,1.54-2.39,2.28A10.46,10.46,0,0,1,69,33.81a1.27,1.27,0,0,0,.45,1.73,3.06,3.06,0,0,0,2,.3,21.69,21.69,0,0,0,5.92-1.76,9.12,9.12,0,0,0,2.49-1.31,3.22,3.22,0,0,0,1.3-2.4C81.09,27.53,78.16,27.81,76.59,29.06Z"/>
  <path class="cls-3" d="M8.62,74.87c.66,1.52,1.65,1.31,1.49-.38a15.82,15.82,0,0,1,.34-5.13c.67-2.83-2.71-3.26-3.62-.84a4.54,4.54,0,0,0,.27,3.31C7.53,72.88,8.17,73.83,8.62,74.87Z"/>
  <path class="cls-3" d="M66.8,33.28a3.55,3.55,0,0,0,1.91-1.2,1.5,1.5,0,0,0,.34-1.52,1.75,1.75,0,0,0-1.49-.73,14.07,14.07,0,0,0-3.78.14,1.56,1.56,0,0,0-1,2.51,2.65,2.65,0,0,0,1,.69c1.08.44,3.65.31,4.35-.62Z"/>
</svg>
