<svg xmlns="http://www.w3.org/2000/svg" xmlns:xlink="http://www.w3.org/1999/xlink" width="240" height="137" viewBox="0 0 240 137">
    <defs>
        <path id="ew3luvl71c" d="M0 0L50.293 0 50.293 71.235 0 71.235z"/>
        <path id="ehr4bx4jqe" d="M2.697.007C-1.075.239.054 6.579.557 8.597c.243.977.223 1.477 1.13 1.919 1.426.695 2.89.782 3.85.74 1.417-.062 1.69-.361 1.98-1.867.313-1.632.27-2.47.085-4.129C7.442 2.867 5.512 0 2.915 0c-.072 0-.145.002-.218.007"/>
        <linearGradient id="ldl9gq0zsf" x1="71.599%" x2="28.144%" y1="90.286%" y2="19.05%">
            <stop offset="0%" stop-color="#EDEDED"/>
            <stop offset="100%" stop-color="#FFF"/>
        </linearGradient>
        <rect id="vb4wff0ksa" width="240" height="137" x="0" y="0" rx="8"/>
    </defs>
    <g fill="none" fill-rule="evenodd">
        <g>
            <g>
                <g transform="translate(-110 -122) translate(86 34) translate(24 88)">
                    <mask id="np6t4grtjb" fill="#fff">
                        <use xlink:href="#vb4wff0ksa"/>
                    </mask>
                    <use fill="#F5F5F5" xlink:href="#vb4wff0ksa"/>
                    <g mask="url(#np6t4grtjb)">
                        <g>
                            <path fill="#E1E1E1" d="M57.747 128.356L66.481 128.356 66.481 90.986 57.747 90.986zM34.807 128.356L57.747 128.356 57.747 90.986 34.807 90.986zM22.94 128.356L31.674 128.356 31.674 90.986 22.94 90.986zM0 128.356L22.94 128.356 22.94 90.986 0 90.986z" transform="translate(43 23)"/>
                            <path fill="#E5E5E5" d="M124.202 135.993L132 135.993 132 22.936 124.202 22.936zM11.884 135.993L19.682 135.993 19.682 22.936 11.884 22.936z" transform="translate(43 23)"/>
                            <path fill="#666463" d="M19.682 58.098L46.632 58.098 46.632 54.22 19.682 54.22zM97.252 58.098L124.202 58.098 124.202 54.22 97.252 54.22z" transform="translate(43 23)"/>
                            <g>
                                <path fill="#FFAB9E" d="M39.425 68.504c.248-2.27-2.318-2.62-3.712-2.043-1.203.497-2.392.878-3.628 1.285-1.236.408-2.101.868-2.276 2.226-.137 1.066.05 2.361.755 3.213.745.9 1.793.477 2.686.016 1.29-.666 2.43-1.573 3.56-2.472.326-.258 2.527-1.42 2.615-2.225" transform="translate(43 23) translate(30.058)"/>
                                <path fill="#FFF" d="M32.473 70.303c-.549-1.893-1.841-2.115-3.226-2.074-.886.027-2.578.342-3.453.477-1.82.281-5.048-.467-6.579-1.82-.812-.717-.583-1.905-2.12-1.92-3.307-.03-4.372 2.563-4.927 4.7-.743 2.864-.415 5.415-.064 8.448.142 1.222-.107 2.802.396 3.944.366.834 1.566 2.826 2.218 3.517 1.114 1.181 3.413 3.089 6.109 3.929 1.557.485 3.157-.662 3.877-1.74.463-.693 1.76-4.96 1.806-6.964.027-1.17.535-4.307.984-4.848.909-1.095 2.921-.863 4.055-1.607 1.152-.755 1.309-2.716.924-4.042" transform="translate(43 23) translate(30.058)"/>
                                <path fill="#F6F6F6" d="M20.698 75.695c-.178 0-.178.279 0 .279.18 0 .18-.279 0-.279" transform="translate(43 23) translate(30.058)"/>
                                <path fill="#05060F" d="M27.746 75.817c-.046-.442-.6.38-.745.722-.633 1.494-.971 3.107-1.216 4.707-.212 1.393-.564 3.787-1.097 5.11-.16.397-.41 1.283-.862 1.384-1.734.386-4.592-1.616-5.564-2.605-.99-1.008-1.095-3.449-1.315-4.816-.253-1.562.852-4.144 1.624-5.52.078-.139.015-.146-.073-.208-.219-.155-.705-.473-.974-.647-.098-.062-.153-.042-.218.066-.443.737-1.354 2.115-1.972 2.693-.723.678-1.087.145-1.33-.698-.13-.448-.357-1.995-.415-2.44-.014-.11-.034-.185-.15-.175-.208.018-.816.06-.94.08-.113.018-.226.027-.191.344.308 2.822.768 6.18.476 7.734-.138.733-.228 1.398-.113 2.148.129.837.287 1.15.512 1.964.416 1.503.171 2.904-.266 4.406-.455 1.563-.976 3.043-.99 4.701-.019 2.205 1.247 4.945 1.376 6.507.133 1.621.603 6.31.382 7.946-.205 1.508-.543 2.857-.901 4.335-.816 3.369-.61 6.269-.686 10.703-.03 1.71-.65 3.533-1.098 5.147-.316 1.138-.32 2.747 1.076 3.274.848.32 3.064.11 3.819-1.49.652-1.38.395-3.879 1.572-7.794 1.107-3.686 1.334-7.173 2.107-10.435.486-2.055 1.709-4.295 1.992-5.718.33-1.656-.114-3.082.653-4.467.839-1.514 5.526-4.427 5.303-6.006-.233-1.646-.705-3.283-.814-4.948-.049-.75.136-1.496-.019-2.234-.149-.707-.98-1.363-.953-2.102.051-1.344.334-2.481.75-3.697.498-1.452.805-1.943 1.525-3.362.638-1.255-.12-3.225-.265-4.609M16.7 66.41c-.954.205-1.573.439-2.316 1.09-.54.473-1.015 1.15-1.305 1.8-.399.895-.735 2.634-.734 3.787 0 .124.073.161.172.151.278-.029.813-.072.92-.08.1-.008.141-.077.135-.21-.026-.593.051-1.631.136-2.157.117-.731.44-1.598.793-2.25.55-1.019 1.439-1.5 2.244-1.832.16-.065.317-.376-.046-.298" transform="translate(43 23) translate(30.058)"/>
                                <path fill="#FFC9C1" d="M34.194 56.733c-.581-.176-2.067 1.329-2.213.756-.194-.76 1.934-1.698 2.301-2.094.998-1.08-.789-1.92-1.802-1.93-.715-.006-2.267.982-2.834 1.76-.785 1.076-.674 2.222-1.863 3.067-1.135.806-2.903 1.25-3.807 2.319-.893 1.056-.378 2.542.816 2.978 1.47.537 2.077-.974 2.894-1.944.552-.657 1.176-1.275 1.899-1.743.748-.484 1.431-.355 2.219-.616.66-.22 1.002-.94 1.581-1.326.273-.182 1.6-.988.809-1.227" transform="translate(43 23) translate(30.058)"/>
                                <path fill="#FFAB9E" d="M29.224 62.087c.446-1.472-.417-3.187-1.444-3.99-1.113-.87-2.688-1.205-4.055-.853-1.27.327-2.351 1.236-2.899 2.43-.691 1.51.054 3.029-.44 4.538-.202.617-.644 1.228-.253 1.875.318.525 1.03.738 1.554.969.639.281 1.439.713 2.161.666.613-.04.977-.588 1.578-.79 1.355-.455 2.793.381 2.924-1.584.051-.774.258-1.277.576-1.998.196-.445.17-.793.298-1.263" transform="translate(43 23) translate(30.058)"/>
                                <path fill="#432918" d="M28.833 58.902c-.845-1.364-2.176-1.922-3.725-2.137-1.454-.202-3.099.593-3.72 1.166-1.227 1.13-1.293 2.575-1.122 4.203.1.965-.23 1.566-.118 2.295.125.813.59 1.114 1.306 1.422.986.425 2.227.736 2.835-.39.222-.41.273-.964.67-1.265.29-.221.616-.305.962-.228.403.089.434.16.63.371.124.134.16.3.427.282.36-.025.467-.432.567-.709.196-.543.392-1.209.517-1.794.147-.684.11-1.225.447-1.873.186-.357.575-.939.324-1.343" transform="translate(43 23) translate(30.058)"/>
                                <path fill="#CFCFCF" d="M23.03 66.721c-1.065-.154-1.732-.483-2.323-.991-.47-.405-.746-.772-1.38-.832-.183-.018-.394.041-.489.143-.345.37-.853 1.013-.572 1.566.257.507 1.091.77 1.571.971.889.374 1.833.621 2.753.907.852.266 1.724.65 2.63.58.083-.008.26-.05.235-.187-.238-1.287-1.222-1.983-2.424-2.157" transform="translate(43 23) translate(30.058)"/>
                                <path fill="#05060F" d="M24.498 68.574c-.4-.265-1.697.113-2.254.334-.863.343-1.668.94-2.342 1.577-.694.655-1.76 2.148-2.154 2.965-.075.156-.03.214.071.29.11.084.67.488.897.617.119.067.164.052.22-.052.656-1.216 1.507-2.572 2.21-3.314.606-.639 1.506-1.37 2.287-1.774.56-.29 1.376-.438 1.065-.643M31.104 110.9c-.005-2.974-.098-5.91-.892-8.838-.759-2.802-2.192-5.349-3.514-7.932-1.095-2.14-5.438-3.109-7.368-.713-1.785 2.215-.664 7.256.223 9.784.907 2.587 1.527 2.783 2.679 5.27.576 1.242 1.188 2.479 1.67 3.762.532 1.42.986 4.73 1.27 6.208.52 2.721 2.265 6.173 2.438 8.945.101 1.63-.597 3.325.162 4.306.492.636 2 .966 2.695.93.742-.037 1.873-.454 2.146-1.248.36-1.05.216-2.17.228-3.3.029-2.564-.675-5.178-1.111-7.718-.47-2.739-.622-6.71-.626-9.457" transform="translate(43 23) translate(30.058)"/>
                                <path fill="#070C3D" d="M31.063 57.437c-1.057-1.202-2.86-1.669-4.187-.736-.551.387-.789.756-.478 1.432.432.942.49 1.508.38 2.55-.073.7.107 1.637.957 1.63.636-.005 1.379-.85 1.97-1.12.666-.305 1.433-.589 1.803-1.306.422-.817.123-1.803-.445-2.45" transform="translate(43 23) translate(30.058)"/>
                                <path fill="#05060F" d="M29.287 59.83c-.15-.74-.111-1.315-.616-1.95-.407-.511-1.013-1.01-1.596-1.229-1.584-.595-3.085-.506-4.713.114-1.023.39-2.193.981-2.5 2.142-.213.81-.374 1.52-.309 2.34.046.576.217 1.363.423 1.841.502 1.164 1.86 1.709 3.02 1.853 1.764.219 3.021-.474 4.229-1.693.891-.9 2.354-1.968 2.062-3.418" transform="translate(43 23) translate(30.058)"/>
                                <path fill="#CFCFCF" d="M42.921 59.69c.461.746 1.822 2.996 1.822 2.996.143.235.083.54-.134.68l-.098.062c-.217.14-.506.06-.646-.176 0 0-1.376-2.297-1.822-3.07-.28-.488.593-.953.878-.491M38.418 54.55c.151-.214.264-.112.312-.038.082.126.267.417.372.578.041.064.126.082.19.04l.272-.172c.065-.04.084-.128.042-.193l-.533-.827c-.053-.082-.015-.194.077-.224.54-.177 1.226-.066 1.523.404.238.379.182.88-.063 1.284-.077.126-.084.283-.008.409 0 0 .424.667.545.85.208.32-.68.824-.855.544-.133-.215-.5-.878-.5-.878-.072-.127-.215-.19-.36-.168-.481.071-.962-.068-1.133-.536-.12-.328-.064-.817.119-1.074" transform="translate(43 23) translate(30.058)"/>
                                <path fill="#FFAB9E" d="M43.86 58.904c-.09-1.097-1.321-2.848-2.592-2.68-1.577.21-1.595 2.167-1.737 3.297-.203 1.621-1.563 3.272-2.508 4.495-.732.947-1.582 2.524-1.156 3.746.43 1.236 1.968 1.972 3.12 1.253 1.158-.722 1.707-2.356 1.908-3.633.142-.905.258-2.829.735-3.598.292-.47.883-.473 1.3-.883.457-.448.983-1.35.93-1.997" transform="translate(43 23) translate(30.058)"/>
                                <path fill="#7CC4F9" d="M79.432 19.843c.51.04 2.733-.437 3.239-.547.958-.208 1.503-1.091 1.701-2.022.154-.721-.736-1.578-1.294-1.967-.697-.485-1.544-.658-2.355-.873-.767-.202-2.066-.426-3.076-.526-.642-.064-1.024.005-1.28.347-.193.259-.496.97-.52 1.338-.028.42 2.685 4.178 3.585 4.25M8.543 15.593c-.024-.368-.327-1.08-.52-1.338-.256-.342-.638-.41-1.28-.347-1.01.1-2.31.324-3.076.526-.81.215-1.658.388-2.355.873-.558.389-1.448 1.246-1.295 1.967.198.93.744 1.814 1.702 2.022.506.11 2.728.588 3.24.547.9-.072 3.612-3.83 3.584-4.25" transform="translate(43 23) translate(30.058)"/>
                                <path fill="#147214" d="M79.494 19.572c.465.037 2.485-.397 2.945-.497.87-.189 1.367-.992 1.546-1.838.14-.656-.669-1.435-1.176-1.788-.634-.44-1.404-.599-2.141-.794-.697-.184-1.878-.387-2.796-.479-.584-.057-.932.006-1.164.316-.175.236-.45.882-.473 1.217-.026.382 2.44 3.797 3.26 3.863M8.155 15.709c-.022-.335-.298-.981-.473-1.217-.232-.31-.58-.373-1.164-.315-.918.09-2.099.294-2.796.478-.737.195-1.507.353-2.141.794-.508.353-1.316 1.132-1.177 1.788.18.846.676 1.649 1.547 1.838.46.1 2.48.534 2.944.497.82-.066 3.285-3.48 3.26-3.863" transform="translate(43 23) translate(30.058)"/>
                                <path fill="#1D1D1B" d="M83.392 49.475H72.879v10.142c0 .882.713 1.596 1.592 1.596h7.33c.878 0 1.59-.714 1.59-1.596V49.475zM.998 49.475h10.513v10.142c0 .882-.713 1.596-1.592 1.596H2.59c-.878 0-1.59-.714-1.59-1.596V49.475z" transform="translate(43 23) translate(30.058)"/>
                                <path fill="#1D1D1B" d="M0.998 54.22L83.391 54.22 83.391 49.475 0.998 49.475z" transform="translate(43 23) translate(30.058)"/>
                                <path fill="#10A310" d="M83.59 40.14c.04-1.645-.094-7.775-.361-9.235-.269-1.468-.75-2.885-1.286-4.274-.278-.72-.57-1.434-.858-2.15-.103-.254-.331-.595-.344-.866-.012-.245.066-.597.048-.884-.077-1.173-.31-2.217-.781-3.304-.303-.7-.497-1.094-1.142-1.484-.5-.304-.932-.652-1.275-1.13-1.578-2.205-2.545-4.278-3.75-6.68-1.237-2.47-2.382-4.282-3.48-5.757-1.083-1.455-1.851-2.095-2.98-2.794-.452-.279-.989-.614-1.531-.647-.298-.018-.446.137-.698.193-.26.058-.742-.087-1.008-.12C57.77.209 51.274.025 44.854.004c-.858-.003-1.801-.01-2.66.007-.857-.017-1.8-.01-2.658-.007-6.42.02-12.915.205-19.29 1.004-.266.033-.748.178-1.008.12-.252-.056-.4-.21-.698-.193-.543.033-1.079.368-1.53.647-1.13.7-1.898 1.34-2.98 2.794-1.099 1.475-2.244 3.286-3.482 5.756-1.204 2.403-2.171 4.476-3.749 6.68-.343.48-.775.827-1.275 1.13-.645.391-.839.785-1.142 1.485-.47 1.087-.704 2.13-.78 3.304-.02.287.058.639.047.884-.013.271-.241.612-.344.867-.287.715-.58 1.43-.858 2.15-.536 1.388-1.017 2.805-1.286 4.273-.267 1.46-.401 7.59-.362 9.235.037 1.553.168 3.104.21 4.65.041 1.495-.217 2.975-.164 4.471.022.645.055 1.292.152 1.93.09.585.217 1.562.637 2.016.345.372 1.15.35 1.625.359H81.13c.475-.009 1.281.013 1.625-.36.42-.453.548-1.43.638-2.015.097-.638.13-1.285.152-1.93.053-1.496-.205-2.976-.164-4.47.042-1.547.172-3.098.21-4.651" transform="translate(43 23) translate(30.058)"/>
                                <path fill="#DADADA" d="M54.09 26.783H30.3c-.284 0-.515-.232-.515-.517v-4.2c0-.286.23-.517.515-.517h23.79c.284 0 .515.231.515.517v4.2c0 .285-.23.517-.515.517" transform="translate(43 23) translate(30.058)"/>
                                <path fill="#3A6494" d="M59.6 20.338c0 .56-7.792.893-17.405.893-9.613 0-17.406-.333-17.406-.893s7.793-.617 17.406-.617 17.405.057 17.405.617" transform="translate(43 23) translate(30.058)"/>
                                <path fill="#138C13" d="M42.195 13.081c-21.064 0-31.772 2.457-31.125 3.258.525.652 13.643.134 31.125.134s30.6.518 31.125-.134c.647-.801-10.06-3.258-31.125-3.258" transform="translate(43 23) translate(30.058)"/>
                                <path fill="#E71D73" d="M55.616 20.475c.414.323 2.914 1.953 3.81 2.502.799.49 1.752.956 2.667 1.192.5.129 2.724.091 3.285.093 4.055.012 8.052-.072 12.068-.251.591-.027 2.881-.222 3.139-.433.266-.219.094-1.75.061-2.127-.145-1.678-1.13-3.086-2.43-4.178-1.736-1.458-2.87-.747-4.826-.196-1.875.528-3.998.946-5.915 1.285-4.057.717-6.905 1.37-11.82 1.37-1.044 0-.418.448-.039.743" transform="translate(43 23) translate(30.058)"/>
                                <path fill="#FFACA3" d="M62.18 22.634c.26.13.828.406 1.09.516.537.228.81.323 1.403.318 2.867-.028 10.17 0 14.01-.275.538-.038 1.146-.087 1.246-.213.108-.136.038-1.137-.126-1.348-.206-.265-1.304-.183-1.65-.17-2.723.105-5.541.277-8.305.403-1.401.064-7.02.42-7.572.433-.362.009-.278.246-.096.336" transform="translate(43 23) translate(30.058)"/>
                                <path fill="#DADADA" d="M45.962 16.944c0 1.186-1.687 2.147-3.767 2.147s-3.767-.961-3.767-2.147c0-1.185 1.686-2.146 3.767-2.146 2.08 0 3.767.961 3.767 2.146" transform="translate(43 23) translate(30.058)"/>
                                <path fill="#E71D73" d="M28.735 19.732c-4.915 0-7.763-.653-11.82-1.37-1.917-.34-4.04-.757-5.915-1.285-1.956-.55-3.09-1.262-4.826.196-1.3 1.092-2.285 2.5-2.43 4.178-.033.377-.205 1.908.06 2.127.258.211 2.549.406 3.14.433 4.016.179 8.013.263 12.068.25.56-.001 2.785.037 3.285-.092.915-.236 1.868-.701 2.667-1.192.896-.55 3.396-2.18 3.81-2.502.379-.295 1.005-.743-.039-.743" transform="translate(43 23) translate(30.058)"/>
                                <path fill="#FFACA3" d="M22.113 22.298c-.552-.014-6.17-.37-7.572-.433-2.763-.126-5.581-.297-8.304-.403-.346-.014-1.444-.095-1.65.17-.164.21-.234 1.212-.126 1.348.1.126.708.174 1.246.213 3.84.275 11.143.247 14.01.275.593.005.866-.09 1.403-.318.262-.11.83-.387 1.09-.516.182-.09.266-.327-.097-.336" transform="translate(43 23) translate(30.058)"/>
                                <path fill="#223A61" d="M48.17 34.54c-.975 0-1.958 0-2.95-.002-1.002-.001-2.01-.003-3.025-.003-.086 0-.155-.07-.155-.155 0-.085.07-.155.155-.155 1.014 0 2.024.001 3.025.003 6.595.009 12.823.018 18.156-.38 1.155-.086 2.974-1.092 3.9-2.565 1.916-3.047 2.867-5.787 4.442-10.328.176-.51.36-1.04.555-1.597.423-1.212.396-3.003.324-3.78-.074-.781-1.412-3.128-2.11-4.26-.045-.072-.023-.168.05-.213.073-.045.168-.023.213.05.084.137 2.056 3.346 2.154 4.394.075.8.101 2.65-.34 3.911l-.555 1.597c-1.582 4.561-2.537 7.315-4.471 10.391-.978 1.556-2.91 2.617-4.139 2.71-4.541.338-9.726.383-15.23.383" transform="translate(43 23) translate(30.058)"/>
                                <path fill="#223A61" d="M36.22 34.54c-5.504 0-10.687-.044-15.23-.383-1.228-.092-3.16-1.153-4.138-2.709-1.934-3.076-2.89-5.829-4.471-10.39l-.556-1.598c-.44-1.262-.415-3.11-.34-3.911.099-1.048 2.07-4.257 2.155-4.394.045-.073.14-.095.213-.05.072.045.095.14.05.214-.698 1.131-2.036 3.478-2.11 4.259-.073.777-.099 2.568.324 3.78l.556 1.599c1.575 4.54 2.525 7.28 4.44 10.326.927 1.473 2.746 2.479 3.9 2.565 5.334.398 11.562.39 18.156.38 1.002-.002 2.011-.003 3.026-.003.085 0 .154.07.154.155 0 .086-.069.155-.154.155-1.014 0-2.023.002-3.025.003l-2.95.003" transform="translate(43 23) translate(30.058)"/>
                                <path fill="#108910" d="M83.59 40.14c.04-1.645-.094-7.775-.362-9.235-.267-1.467-.75-2.885-1.286-4.273-.187-.484-.38-.967-.575-1.45-.099.159-.165.402-.162.793.02 2.502-.875 4.55-1.603 5.39-1.398 1.612-3.041 2.35-5.071 2.782-2.177.464-6.84 1.038-9.933 1.038-3.29 0-18.96-.016-22.403-.019-3.443.003-19.114.019-22.404.019-3.092 0-7.756-.574-9.932-1.038-2.03-.433-3.673-1.17-5.071-2.781-.728-.841-1.623-2.889-1.603-5.39.003-.392-.063-.635-.162-.793-.195.482-.388.965-.576 1.449-.536 1.388-1.018 2.806-1.286 4.273-.267 1.46-.402 7.59-.361 9.236.037 1.552.166 3.103.208 4.65.042 1.494-.215 2.973-.164 4.47.024.646.056 1.29.153 1.93.09.585.217 1.562.637 2.017.345.372 1.15.35 1.625.358h77.872c.474-.008 1.28.014 1.624-.358.42-.455.548-1.432.637-2.017.098-.64.13-1.284.153-1.93.052-1.497-.205-2.976-.164-4.47.042-1.547.172-3.098.21-4.65" transform="translate(43 23) translate(30.058)"/>
                                <path fill="#E71D73" d="M19.842 42.048c-.337-.319-.84-.613-1.226-.83-.418-.233-1.083-.388-1.553-.41-1.13-.052-13.192.007-14.158.023-.245.004-.315.171-.166.357.185.228.488.51.623.648.182.184.459.257.841.268.17.005 15.08.265 15.476.265.132 0 .405-.091.163-.32M64.711 42.37c.396 0 15.307-.26 15.476-.266.382-.011.66-.084.84-.268.136-.138.438-.42.623-.648.15-.186.08-.353-.165-.357-.966-.016-13.028-.074-14.159-.023-.469.022-1.134.177-1.552.41-.386.217-.889.511-1.226.83-.243.23.031.321.163.321" transform="translate(43 23) translate(30.058)"/>
                                <path fill="#3C3C3B" d="M79.789 52.5c-.25-.681-.527-1.353-.88-1.987-.694-1.25-1.7-2.21-2.944-2.905-1.354-.757-2.806-.94-4.335-1.047-5.54-.385-19.666-.384-29.435-.384-9.769 0-23.895 0-29.435.384-1.529.106-2.98.29-4.335 1.047-1.243.695-2.25 1.655-2.945 2.905-.352.634-.63 1.306-.88 1.986-.11.303-.335.695-.43 1.067h76.05c-.095-.372-.32-.764-.431-1.067" transform="translate(43 23) translate(30.058)"/>
                                <path fill="#2D2D2D" d="M70.694 10.858c-.296-1.231-2.054-5.945-2.507-6.715-.28-.475-.764-.81-1.701-.93-4.628-.602-15.933-1.048-24.274-1.048h-.034c-8.341 0-19.646.446-24.274 1.047-.937.122-1.42.456-1.7.93-.455.77-2.212 5.485-2.508 6.716-.106.442.064.385.403.41 1.105.083 14.49.377 28.096.376 13.393 0 27.008-.294 28.095-.376.34-.025.51.032.404-.41" transform="translate(43 23) translate(30.058)"/>
                                <path fill="#5B5B5B" d="M62.255 4.79c-.088-.404-.467-1.028-1.494-1.163-1.664-.22-8.816-.554-18.23-.524-10.566.034-21.41.55-23.362.873-1.195.197-1.914.446-2.493 1.337-.596.918-1.336 3.096-1.469 4.193-.212 1.75 2.774.6 6.184-.039 3.678-.689 9.664-1.42 18.783-1.726 7.53-.252 17.308-.096 20.995.132 1.411.087 1.623-.1 1.527-.795-.097-.698-.3-1.638-.441-2.288" transform="translate(43 23) translate(30.058)"/>
                            </g>
                            <path d="M82.101 130.509L98.729 130.509 98.729 90.991 82.101 90.991z" transform="translate(43 23)"/>
                            <g transform="translate(43 23) translate(75.192 71.765)">
                                <mask id="c3jvrzkuvd" fill="#fff">
                                    <use xlink:href="#ew3luvl71c"/>
                                </mask>
                                <path fill="#F0F0F0" d="M23.537 58.744L32.271 58.744 32.271 19.225 23.537 19.225z" mask="url(#c3jvrzkuvd)"/>
                                <path fill="#FFF" d="M15.932 17.686L30.946 17.686 33.715 6.4 18.702 6.4z" mask="url(#c3jvrzkuvd)"/>
                                <path fill="#C1C1C1" d="M22.46 27.366H7.985c-.08 0-.146-.065-.146-.146 0-.08.066-.146.146-.146h14.331v-6.647c0-.08.065-.146.146-.146.08 0 .146.065.146.146v6.793c0 .08-.066.146-.146.146M22.46 34.95H7.985c-.08 0-.146-.065-.146-.146 0-.08.066-.146.146-.146h14.331v-6.646c0-.081.065-.147.146-.147.08 0 .146.066.146.147v6.792c0 .08-.066.146-.146.146M22.46 42.535H7.985c-.08 0-.146-.066-.146-.147 0-.08.066-.146.146-.146h14.331v-6.646c0-.081.065-.146.146-.146.08 0 .146.065.146.146v6.792c0 .081-.066.147-.146.147" mask="url(#c3jvrzkuvd)"/>
                                <path fill="#C1C1C1" d="M20.817 21.727H9.627c-.08 0-.145-.066-.145-.147 0-.08.066-.146.146-.146h11.189c.08 0 .146.066.146.146 0 .081-.066.147-.146.147M20.817 29.311H9.627c-.08 0-.145-.065-.145-.146 0-.081.066-.147.146-.147h11.189c.08 0 .146.066.146.147 0 .08-.066.146-.146.146M20.817 36.895H9.627c-.08 0-.145-.065-.145-.146 0-.08.066-.146.146-.146h11.189c.08 0 .146.065.146.146 0 .08-.066.146-.146.146" mask="url(#c3jvrzkuvd)"/>
                                <path fill="#FFAB9E" d="M20.147 22.757c-.532-1.986-3.77-3.183-5.013-1.753-.738.85-.395 3.233-.26 4.266.192 1.467.592 2.844.84 4.265.373 2.149 2.852 2.452 3.87.862.54-.846.72-1.993.81-3.002.138-1.556.164-3.108-.247-4.638" mask="url(#c3jvrzkuvd)"/>
                                <path fill="#FFAB9E" d="M18.86 28.824c-.731-.513-2.036-.398-2.623.325-.362.445-.78 1.082-1.07 1.624-.321.606-.676 1.663-.853 2.335-.206.78-.082 1.659-.132 2.46-.05.812-.149 1.622-.31 2.42-.222 1.1-1.563 3.258-.73 4.247.923 1.097 1.912-.455 2.412-1.483.659-1.352 1.503-2.878 2.207-4.331.761-1.57 2.951-6.295 1.099-7.597" mask="url(#c3jvrzkuvd)"/>
                                <path fill="#FFF" d="M37.806 16.522c-1.156-1.455-3.027-2.192-4.407-3.378-2.283-1.959-5.979-4.724-10.38-4.404-2.086.152-2.73.955-2.971 1.651-.15.43-.482 1.605-1.135 2.183-.912.807-2.318.996-3.375 1.416-1.358.539-1.77 1.764-1.863 3.242-.107 1.712-.039 3.249.84 4.775.192.334.954.504 1.357.559 1.29.176 2.79.112 3.724-.951.8.306 2.502-.167 3.153-.67.746-.578.86-.662 2.103-.181 2.218.857 5.705 1.455 7.224 1.156 2.48-.489 3.602.685 5.345.746 1.054.036 1.921-.84 2.013-1.888.092-1.047-.786-3.196-1.628-4.256" mask="url(#c3jvrzkuvd)"/>
                                <path fill="#04040A" d="M34.748 29.277c-.84-3.1-5.198-6.12-7.49-3.64-1.36 1.471-.938 6.822-1.747 9.067-.762 2.115-1.692 4.18-2.64 6.227-1.959 4.239-1.563 7.246-2.178 10.886-.334 1.97-2.34 8.71-2.024 10.842.255 1.729 1.078 2.232 2.603 2.193 1.22-.032 2.244-.616 3.18-1.367 2.096-1.684 3.248-8.646 3.35-10.491.295-5.345 3.02-8.234 4.987-12.036.943-1.824 3.298-6.738 1.959-11.681" mask="url(#c3jvrzkuvd)"/>
                                <path fill="#0D0F24" d="M49.305 62.049c-.026-.914-.77-1.285-1.372-1.739-.818-.617-1.402-1.34-1.746-2.323-.402-1.152-.94-2.333-1.376-3.484-.71-1.877-1.972-4.216-3.861-5.95-.8-.733-1.289-1.498-1.284-2.628.006-1.248 1.453-6.547 1.864-7.93.745-2.512 1.74-4.84 2.081-7.535.283-2.225-.293-4.787-1.838-7.25-.536-.855-1.187-1.626-1.585-2.519-.437-.977-.083-2.183-.473-3.214-.147-.39-1.503-1.562-1.88-1.779-.212-.122-1.257-.694-1.36-.502-.178.33 1.525 2.25 1.792 2.95.581 1.53 1.065 3.979-1.24 3.529-1.201-.234-1.648-.656-3.429-.609-1.15.031-2.49.483-3.782.419-1.183-.06-2.559-.496-3.95-1.196-.515-.26-1.568-.626-2.125-.797-.509-.156-.47-.18-.71.15-.733 1.011-1.499 1.591-3.012 2.07-.156.049-.199.094-.027.36.173.267.527.647.662.777 1.58 1.516 3.99 2.016 5.74 3.347 1.606 1.22 2.636 2.68 3.675 4.427 1.36 2.285 2.124 10.222 1.96 12.647-.4 5.873-.08 6.773 7.664 15.013.997 1.062 1.832 1.836 2.472 3.122.47.941.473 2.8 1.94 3.528 1.6.796 5.278-.136 5.2-2.884" mask="url(#c3jvrzkuvd)"/>
                                <path fill="#EDEDED" d="M14.42 41.389c-.571-.403-1.55-.972-2.138-.384-.209.209-.127.67-.407.896-.43.347-1.742.64-2.108.804-1.027.46-3.383 2.566-2.397 3.489.327.306.751-.459 1.126-.557.628-.165 1.243-.28 1.893-.292 1.114-.02 2.256.264 3.344-.099 1.944-.65 2.405-2.647.687-3.857" mask="url(#c3jvrzkuvd)"/>
                                <path fill="#FFAB9E" d="M29.384 20.039c-.955-2.186-4.57-.852-5.332-.09-.574.575-.733 1.992-.794 2.906-.098 1.472.019 3.19.231 4.623.183 1.234.72 3.977 2.087 4.26 1.586.326 2.036-.816 2.486-1.967.47-1.204 1.153-3.692 1.305-4.993.14-1.206.573-3.467.017-4.74" mask="url(#c3jvrzkuvd)"/>
                                <path fill="#0D0F24" d="M20 20.512c-.707-.583-1.239-1.058-1.796-1.956-.784-1.263-1.039-3.347-1.397-3.973-.053-.099-.12-.222-.228-.255-.202-.06-.303.101-.32.31-.112 1.338.355 2.95.944 4.172.57 1.183 1.402 2.105 2.38 2.794.075.053.19.024.259.009.167-.038.684-.213.887-.315.065-.032.079-.106.049-.133-.195-.183-.519-.438-.779-.653" mask="url(#c3jvrzkuvd)"/>
                                <path fill="#EDEDED" d="M17.918 16.019c.005-.446-.56-1.454-.74-1.704-.36-.503-.896-.819-1.289-.924-.718-.194-.859.971-.855 1.498.007.923.06 1.494.61.829.36-.436.65-.481 1.168-.191.266.149 1.1 1.055 1.106.492" mask="url(#c3jvrzkuvd)"/>
                                <path fill="#FFAB9E" d="M14.474 3.443c-.912.294-1.738.758-2.72.673-.648-.057-1.445-.73-2.031-.24-.436.365-.57 1.5-.435 2.02.217.835.69.795.835 1.609.054.3-.043.797-.044 1.094-.003.379.529.629.731.928.475.702.646 1.75 1.266 2.342.86.821 1.193-.105 1.998-.045.27.02.547.231.81.493.24.241.39.514.523.737.232.39.5 1.014.835 1.388.341.382 3.244 4.107 3.79 3.813.218-.116-1.99-3.788-1.929-4.318.092-.79 1.529-2.434 1.778-3.238.318-1.023-.155-1.485-.525-2.273-.583-1.244-.146-2.317-.656-3.534-.716-1.71-2.682-1.946-4.226-1.449" mask="url(#c3jvrzkuvd)"/>
                                <path fill="#432918" d="M18.152 4.61c-.873-.432-.055.198.004.736.087.784-.701 1.536-.161 2.336.569.843.94.49 1.329-.232.118-.22.133-.784-.015-1.254-.22-.701-.715-1.366-1.157-1.585" mask="url(#c3jvrzkuvd)"/>
                                <path fill="#FFAB9E" d="M16.163 6.9c-.237.288-.243.885-.375 1.422-.252 1.022-.58 1.865-1.485 2.474-.769.519-1.724 1.201-2.513.506-.068-.059-.137-.097-.2-.125.132.258.285.498.486.69.86.824 1.193-.103 1.997-.044.272.021.55.232.81.494l.044.047c.348-.074.864-.523 1.088-.806.743-.938.726-2.33.679-2.985-.017-.222-.26-2.005-.53-1.674" mask="url(#c3jvrzkuvd)"/>
                                <path fill="#04040A" d="M9.404 3.797c-.869-.45-1.924-1.44-2.816-.339-.589.726-.47 1.775.373 2.056.502.168 1.76.366 2.257.111.38-.195-.007-.661.328-1.173.24-.367.31-.421-.142-.655" mask="url(#c3jvrzkuvd)"/>
                                <path fill="#EDEDED" d="M20.98 14.678c-.147-1.866.422-3.986.252-4.888-.133-.706-.795-1.399-1.474-1.552-.978-.22-.128.544.085 1.426.165.685-.127 1.18-.59 1.851-.389.563-.89 1.174-.976 1.944-.053.47.696.406 1.114.562.412.154.647.571 1.002.788.298.182.622.305.588-.131" mask="url(#c3jvrzkuvd)"/>
                                <path fill="#0D0F24" d="M31.999 11.877c-.67-.696-1.607-1.312-2.423-1.809-.834-.509-2.05-1.233-3.022-1.361-.797-.106-2.34-.017-3.427.465-.688.305-1.266.924-1.506 1.307-.97 1.546-1.228 3.05-1.208 4.405.014 1.04.097 1.737.325 2.463.293.935.954 2.059 1.528 2.769.045.056.086.019.126-.015.182-.155.592-.71.633-.785.04-.074.052-.107-.077-.238-1.016-1.033-1.546-2.98-1.37-4.447.149-1.233.257-2.139.834-3.244.354-.677 1.072-1.868 2.066-2.04 1.183-.204 2.129.095 2.862.337 1.405.465 3.403 1.523 4.602 2.41.255.19.23-.037.057-.217" mask="url(#c3jvrzkuvd)"/>
                                <path fill="#FFAB9E" d="M14.844 3.34c-.072.483-.34 1.266-.392 1.369-.275.53-.57 1.117-1.094 1.418-.712.414-1.235.241-1.985.143-.275-.035-.756-.035-1.081.039-.157.035-.539.181-.787.1-.083-.13-.16-.291-.218-.515-.134-.518 0-1.654.436-2.018.585-.49 1.383.183 2.033.239.98.087 1.805-.38 2.717-.673.122-.038.246-.073.371-.102" mask="url(#c3jvrzkuvd)"/>
                                <path fill="#432918" d="M15.736 3.886c-.549-.083-1.101-.06-1.652.039-.167.03-.152.265-.02.3.006.004.01.01.016.012.507.263.608.7.685 1.26.06.445.091.956.762 1.25.12.052.439.107.593-.043.137-.132.26-.48.291-.698.046-.321.051-.718.23-1.08.268-.544.865-.467.558-.696-.25-.186-1.172-.3-1.463-.344" mask="url(#c3jvrzkuvd)"/>
                                <path fill="#020203" d="M14.014 3.686c-.77-.278-1.204-.53-1.944-.876-.347-.163-.844-.31-1.353-.264-.175.016-.579.11-.752.092-.876-.088-2.057-.014-2.717.314-.187.093-.2.189.254.144.838-.084 1.44.733 2.167 1.106.49.25.999.45 1.539.555 1.055.204 2.18-.183 3.114-.638.34-.166-.066-.345-.308-.433" mask="url(#c3jvrzkuvd)"/>
                                <path fill="#0D0F24" d="M16.153.294C15.105.13 13.91-.153 12.805.103c-1.194.276-1.817 1.046-2.7 2.388-.128.196-.01.236.166.232 1.007-.025 1.653.391 2.347.71.62.287 1.255.468 1.931.552.715.09 1.422.066 2.126.247.767.197 1.471.571 2.126 1.015.124.083.323.02.31-.094.34-1.064 0-2.203-.402-3.125-.445-1.017-1.476-1.563-2.556-1.734" mask="url(#c3jvrzkuvd)"/>
                                <path fill="#FFAB9E" d="M27.11 30.931c.041-1.319-1.683-2.214-2.959-1.836-1.198.355-2.062 2.128-2.51 3.246-.599 1.492-1.03 2.66-1.676 4.152-.319.732-1.05 1.957-1.485 2.628-.46.708-1.245 1.35-1.548 2.146-.467 1.228.504 2.166 1.694 1.535.678-.36 1.013-.935 1.613-1.53.587-.582 2.41-2.336 2.984-2.948 2.061-2.197 3.782-4.042 3.887-7.393" mask="url(#c3jvrzkuvd)"/>
                                <path fill="#FFF" d="M17.788 41.333c-.251-.167-.627-.256-.937-.21-.63.094-.664.387-1.364.598-.386.116-1.121-.18-1.697-.083-.694.117-1.064.476-2.136.675-.525.098-.93.39-1.18.657-.207.22-.297.46-.225.58.335.57 2.045-.483 2.195-.295.254.319-1.954 1.777-2.276 2.544-.144.345-.219.797.27.76.227-.018 1.125-.79 1.394-1.019-.726 1.137-1.323 2.825-.395 2.305.22-.124 1.441-1.831 1.546-2.017-.375.998-1.089 2.685-.26 2.585.47-.057 1.59-2.45 1.638-2.52-.293 1.029-.677 2.454.087 2.35.295-.04.51-.784.71-1.23.51-1.135 1.023-1.369 2.044-1.577.33-.067.736-.453.862-.776.15-.385.673-1.032.745-1.43.183-1.014-.456-1.52-1.02-1.897" mask="url(#c3jvrzkuvd)"/>
                            </g>
                            <g transform="translate(43 23) translate(97.685 82.357)">
                                <mask id="jaiqw5f4pg" fill="#fff">
                                    <use xlink:href="#ehr4bx4jqe"/>
                                </mask>
                                <path fill="url(#ldl9gq0zsf)" d="M2.697.007C-1.075.239.054 6.579.557 8.597c.243.977.223 1.477 1.13 1.919 1.426.695 2.89.782 3.85.74 1.417-.062 1.69-.361 1.98-1.867.313-1.632.27-2.47.085-4.129C7.442 2.867 5.512 0 2.915 0c-.072 0-.145.002-.218.007" mask="url(#jaiqw5f4pg)"/>
                            </g>
                        </g>
                    </g>
                </g>
            </g>
        </g>
    </g>
</svg>
