<svg xmlns="http://www.w3.org/2000/svg" xmlns:xlink="http://www.w3.org/1999/xlink" width="240" height="137" viewBox="0 0 240 137">
    <defs>
        <path id="v4bfig3puc" d="M75.732 0c6.363.008 14.555.461 20.913 1.132 2.872.304 5.586.873 8.334 1.553 2.995.74 5.406 1.68 8.08 2.87 2.95 1.313 6.755 3.543 10.462 5.891l.556.353c5.358 3.419 10.412 7.001 12.265 8.31.81.571 2.048 1.193 3.246 1.444 4.807 1.007 9.41 2.795 12.414 4.552 1.06.62 2.01 1.238 3.058 1.869 1.147.69 2.25 1.033 3.484 1.573 1.246.545 2.61.987 3.775 1.545 1.162.557 1.948 1.019 2.992 1.781.898.657 1.895 1.726 2.062 2.848.155 1.04-.284 2.511.314 3.43.157.242.835.789 1.055.94 1.177.805 1.26 2.63 1.313 3.989.152 3.916-.432 7.49-.231 9.64.013.148.029.296.045.443l.074.665c.104.96.177 1.921-.047 2.876-.23.97-.857 2.814-1.791 3.333-.385.214-.7.188-1.071.487-.297.24-.479.533-.847.683-.276.112-.545.123-.822.123H94.962c-.037-3.132-.358-6.688-1.105-10.251-.672-3.207-2.548-7.557-4.022-9.733-4.666-6.89-10.962-5.362-13.09-3.71-3.696 2.874-5.13 8.371-5.13 12.797 0 5.344.83 7.671 1.417 9.913h-49.91c-.276 0-.527-.045-.704-.251-.363-.421.74-3.89-.145-9.104-.492-2.903-1.237-5.734-2.63-8.342-1.278-2.39-3.879-6.583-7.349-6.31-4.344.344-6.82 5.746-7.484 8.952-1.138 5.496-.473 8.836.06 11.875.214 1.221-.821.478-1.458.11-.994-.574-1.525-.88-2.158-1.662-.78-.965-.68-2.045-.798-3.221-.291-2.93-.863-5.677.003-8.841.72-2.634-.528-5.299-.445-7.966.038-1.211.373-2.247.93-3.3.737-1.395.399-2.61.302-4.101-.073-1.127-.1-2.317.141-3.427.3-1.389 1.229-1.814 2.109-2.8.73-.82 1.126-1.687 2.264-2.023.625-.184 1.008-.228 1.589-.579.701-.422 1.385-.874 2.055-1.342 4.803-3.352 9.093-7.245 14.242-10.129 5.046-2.827 10.51-4.943 16.186-6.178C45.594 1.452 51.524.947 57.402.51 63.225.078 69.052 0 74.887 0"/>
        <path id="awmft3jrmf" d="M8.933 0c2.388 0 4.936.623 7.204 1.131 1.883.422 4.585 1.048 7.35 1.696l.476.112.475.111.474.112c4.663 1.096 9.14 2.166 9.814 2.337 1.718.438.251 1.065-.952 1.777C31.6 8.559 29.78 9.614 27.2 9.574c-5.148-.081-10.56-.442-15.533-1.276-2.725-.458-5.01-1.047-7.389-2.465-1.022-.609-2.505-1.81-3.354-2.64-.284-.277-.83-.887-.922-1.287-.09-.39 3.422-1.114 3.836-1.203C5.185.41 6.544.154 7.921.04"/>
        <path id="63va0bibdi" d="M0 0L2.353 0 2.353 2.805 0 2.805z"/>
        <path id="xg7m47ywfk" d="M.383 0h.033C6.79.203 11.328 1.637 16.09 3.7c4.063 1.76 11.156 6.255 13.036 8.08.221.216.45.67.128.67H25.144c-.848 0-1.648-.26-2.442-.544l-.397-.143c-.33-.119-.661-.235-.996-.33-2.798-.806-5.744-1.003-8.639-.999-.204 0-.19-.177-.27-.305-1.262-2.018-5.024-1.845-7.13-.832-.111.053-.55.126-.694-.178C3.473 6.774 1.31 2.667.09.568"/>
        <path id="qeoxwck8cn" d="M2.798 0c.623 0 1.226.128 1.7.43.192.123.553.342-.009.484-.288.072-.58.175-.722.373-.22.308-.192 1.035-.662 1.214-.288.11-1.929.062-2.328.059-.121 0-.25-.009-.303-.152-.084-.23-.36-1.132-.458-1.373C-.05.874.102.78.208.712"/>
        <path id="7itpn4o6xq" d="M16.832 0c.31 0 .491.092.759.52.231.369 1.262 2.813 2.277 5.353l.223.558c.812 2.047 1.576 4.062 1.868 5.013.143.466.23.734-.444.765-2.097.097-3.869.201-5.604.32l-.8.055c-2.13.15-4.271.322-6.961.527-.807.061-1.298-.012-1.87-.576-.55-.541-1.877-1.904-3.254-3.323l-.57-.588L.347 6.45c-.604-.623-.306-.937.037-1.174l.074-.05C5.876 1.634 10.521.476 16.361.03m-2.098 3.875H6.81c-.535 0-1.04.386-1.132.875l-.693 3.713c-.116.622.296 1.141.924 1.141h8.751c.628 0 1.086-.52 1.025-1.14l-.366-3.714c-.048-.489-.52-.875-1.055-.875"/>
        <path id="f7fl9qyift" d="M2.284 0c.022 0 .045 0 .067.002 1.897.084 4.705-.058 6.884.662 1.874.62 3.542 1.744 4.903 3.025.143.134.42.387.272.62-.065.102-.2.22-.294.298-.257.213-1.516 1.303-1.797 1.508-.264.193-.84.646-1.38.252-.411-.3-.57-1.07-.853-1.499-.547-.83-1.177-1.09-2.182-1.143-.724-.039-3.003-.052-4.427-.055H3.066c-.99 0-1.358 1.66-1.571 2.288-.17.502-.317 1.034-.646 1.541-.23.354-.964.011-.834-.9C.163 5.57.28 4.62.503 3.604c.193-.877.304-1.928.634-2.762"/>
        <path id="3g225ia8pw" d="M20.417 0c.205 0 .306.214.234.473l-.065.232-.129.463c-1.003 3.625-1.878 7.147-2.2 8.684-.179.86-.337 1.603-.502 1.67-.297.117-.563-.3-.586-.671-.07-1.123-.185-2.69-.495-3.484-.35-.894-1.404-.759-2.062-.759h-.109c-.528-.002-1.319-.016-2.13-.032l-.347-.007c-1.158-.024-2.286-.05-2.675-.05-1.033 0-1.279.997-1.418 1.555-.133.527-.187.859-.326 1.384-.074.28-.323.447-.555.447h-.2c-.632-.002-1.807-.01-2.997-.016l-.42-.003C2.248 9.88 1.107 9.873.539 9.873c-.442 0-.776-.378-.323-.761 1.763-1.49 5.659-4.187 9.36-5.778C13.2 1.778 15.293.952 20.357.006"/>
        <path id="htud0w57oz" d="M.501.66C3.576.144 9.427-.02 15.327.002l.786.003c6.948.043 13.795.329 16.088.581 2.503.275 4.288.642 6.439 1.652 3.237 1.52 6.22 3.125 9.248 4.97 1.244.759 5.162 3.342 4.478 5.1-.73 1.882-11.264-1.005-13.243-1.654-1.852-.606-14.307-4.317-18.42-4.96C16.09 4.973 13.43 4.89 8.8 4.691c-2.142-.091-5.019.08-6.717-1.317-.207-.17-.422-.35-.631-.53l-.139-.121"/>
        <path id="jm7mtqv0eC" d="M0 0L1.295 0 1.295 1.345 0 1.345z"/>
        <path id="hljw5kj70E" d="M10.573.043c-3.95.262-7.468.74-9.02 3.288C-.643 6.942.134 30.96.134 30.96c2.081 2.759 3.427 2.542 5.668 3.384 5.286 1.987 13.282.394 16.371-4.636 0 0-.515-15.504-1.373-23.806C20.295 1.035 15.436 0 11.839 0c-.445 0-.87.016-1.266.043"/>
        <path id="iwslwqrypG" d="M0 0L12.478 0 12.478 12.06 0 12.06z"/>
        <path id="m61899kzgI" d="M0 123L192 123 192 0 0 0z"/>
        <linearGradient id="2jah2dzwad" x1="82.332%" x2="13.27%" y1="49.58%" y2="51.533%">
            <stop offset="0%" stop-color="#BFBFBF"/>
            <stop offset="100%" stop-color="#AAA"/>
        </linearGradient>
        <linearGradient id="62olb6h2vg" x1="100%" x2="-17.441%" y1="50.002%" y2="50.002%">
            <stop offset="0%" stop-color="#F6F6F6"/>
            <stop offset="100%" stop-color="#DDD"/>
        </linearGradient>
        <linearGradient id="u6qx8tbv5l" x1="-361.044%" x2="-89.302%" y1="49.999%" y2="49.999%">
            <stop offset="0%" stop-color="#AAA"/>
            <stop offset="100%" stop-color="#AAA"/>
        </linearGradient>
        <linearGradient id="x087vbxeko" x1="-2319.044%" x2="-650.461%" y1="50.002%" y2="50.002%">
            <stop offset="0%" stop-color="#AAA"/>
            <stop offset="100%" stop-color="#AAA"/>
        </linearGradient>
        <linearGradient id="sbtlp6dc4r" x1="-370.846%" x2="-8.498%" y1="50%" y2="50%">
            <stop offset="0%" stop-color="#AAA"/>
            <stop offset="100%" stop-color="#AAA"/>
        </linearGradient>
        <linearGradient id="mh8avsu1qu" x1="-394.629%" x2="158.42%" y1="50.002%" y2="50.002%">
            <stop offset="0%" stop-color="#AAA"/>
            <stop offset="100%" stop-color="#AAA"/>
        </linearGradient>
        <linearGradient id="xn2345vhcx" x1="-150.473%" x2="236.147%" y1="50%" y2="50%">
            <stop offset="0%" stop-color="#AAA"/>
            <stop offset="100%" stop-color="#AAA"/>
        </linearGradient>
        <linearGradient id="jlr7x3nf4A" x1="92.532%" x2="-12.657%" y1="49.999%" y2="49.999%">
            <stop offset="0%" stop-color="#FBFBFB"/>
            <stop offset="100%" stop-color="#DADADA"/>
        </linearGradient>
        <rect id="ihqmiopjva" width="240" height="137" x="0" y="0" rx="8"/>
    </defs>
    <g fill="none" fill-rule="evenodd">
        <g>
            <g>
                <g>
                    <g transform="translate(-362 -122) translate(86 34) translate(276 88)">
                        <mask id="tf5a1mh78b" fill="#fff">
                            <use xlink:href="#ihqmiopjva"/>
                        </mask>
                        <use fill="#F5F5F5" xlink:href="#ihqmiopjva"/>
                        <g mask="url(#tf5a1mh78b)">
                            <g>
                                <path fill="#F8F8F8" d="M45.806 55.2L66.417 55.2 66.417 53.168 45.806 53.168zM45.806 60.092L66.417 60.092 66.417 58.06 45.806 58.06zM45.806 64.984L66.417 64.984 66.417 62.952 45.806 62.952zM45.806 69.876L66.417 69.876 66.417 67.844 45.806 67.844zM45.806 74.769L66.417 74.769 66.417 72.736 45.806 72.736zM45.806 79.66L66.417 79.66 66.417 77.628 45.806 77.628zM45.806 84.553L66.417 84.553 66.417 82.521 45.806 82.521zM45.806 89.445L66.417 89.445 66.417 87.412 45.806 87.412zM45.806 94.337L66.417 94.337 66.417 92.305 45.806 92.305zM45.806 99.229L66.417 99.229 66.417 97.197 45.806 97.197zM45.806 104.121L66.417 104.121 66.417 102.089 45.806 102.089z" transform="translate(18 32)"/>
                                <path fill="#FFF" d="M58.049 50.308L59.667 50.308 59.667 48.276 58.049 48.276zM47.519 60.092L52.784 60.092 52.784 58.06 47.519 58.06z" transform="translate(18 32)"/>
                                <path fill="#F8F8F8" d="M125.806 58.775L148.211 58.775 148.211 56.742 125.806 56.742zM125.806 63.667L148.211 63.667 148.211 61.634 125.806 61.634zM125.806 68.559L148.211 68.559 148.211 66.526 125.806 66.526zM125.806 73.451L148.211 73.451 148.211 71.418 125.806 71.418zM125.806 78.343L148.211 78.343 148.211 76.31 125.806 76.31zM125.806 83.235L148.211 83.235 148.211 81.203 125.806 81.203zM125.806 88.127L148.211 88.127 148.211 86.094 125.806 86.094z" transform="translate(18 32)"/>
                                <path fill="#F2F2F2" d="M116.569 46.958L116.569 48.99 125.807 48.99 125.807 46.958M116.569 53.882L125.806 53.882 125.806 51.849 116.569 51.849zM116.569 58.775L125.806 58.775 125.806 56.742 116.569 56.742zM116.569 63.667L125.806 63.667 125.806 61.634 116.569 61.634zM116.569 68.559L125.806 68.559 125.806 66.526 116.569 66.526zM116.569 73.451L125.806 73.451 125.806 71.418 116.569 71.418zM116.569 78.343L125.806 78.343 125.806 76.31 116.569 76.31zM116.569 83.235L125.806 83.235 125.806 81.203 116.569 81.203zM116.569 88.127L125.806 88.127 125.806 86.094 116.569 86.094z" transform="translate(18 32)"/>
                                <path fill="#FFF" d="M135.141 53.882L137.009 53.882 137.009 51.849 135.141 51.849zM141.634 58.775L143.569 58.775 143.569 56.742 141.634 56.742z" transform="translate(18 32)"/>
                                <path fill="#F8F8F8" d="M163.48 73.451L165.593 73.451 165.593 71.418 163.48 71.418z" transform="translate(18 32)"/>
                                <g>
                                    <path fill="#C4C4C4" d="M176.726 86.283c4.914 0 8.897 6.668 8.897 14.895 0 8.226-3.983 14.895-8.897 14.895h-8.606v-29.79h8.606z" transform="translate(18 32) translate(0 1.25)"/>
                                    <path fill="#C4C4C4" d="M159.224 101.178c0 8.227 3.983 14.896 8.896 14.896 4.914 0 8.897-6.67 8.897-14.896 0-8.227-3.983-14.896-8.897-14.896-4.913 0-8.896 6.67-8.896 14.896" transform="translate(18 32) translate(0 1.25)"/>
                                    <path fill="#ADADAD" d="M161.7 101.178c0 6.17 2.875 11.171 6.42 11.171 3.546 0 6.42-5.001 6.42-11.171 0-6.17-2.874-11.172-6.42-11.172-3.545 0-6.42 5.002-6.42 11.172" transform="translate(18 32) translate(0 1.25)"/>
                                    <path fill="#C4C4C4" d="M36.55 105.123s-7.433.285-9.598 0c-.922-.122-2.659-1.422-2.659-1.422-.077-.46-.147-.927-.208-1.398-1.487-11.44 2.32-21.34 8.504-22.114 6.184-.775 12.401 7.87 13.888 19.308.251 1.932.35 3.819.314 5.626H36.55z" transform="translate(18 32) translate(0 1.25)"/>
                                    <path fill="#C4C4C4" d="M44.703 86.283c4.913 0 8.897 6.668 8.897 14.895 0 8.226-3.984 14.895-8.897 14.895h-8.606v-29.79h8.606z" transform="translate(18 32) translate(0 1.25)"/>
                                    <path fill="#ADADAD" d="M27.2 101.178c0 8.227 3.984 14.896 8.897 14.896 4.914 0 8.897-6.67 8.897-14.896 0-8.227-3.983-14.896-8.897-14.896-4.913 0-8.897 6.67-8.897 14.896" transform="translate(18 32) translate(0 1.25)"/>
                                    <path fill="#CDCDCD" d="M29.677 101.178c0 6.17 2.875 11.171 6.42 11.171 3.546 0 6.42-5.001 6.42-11.171 0-6.17-2.874-11.172-6.42-11.172-3.545 0-6.42 5.002-6.42 11.172" transform="translate(18 32) translate(0 1.25)"/>
                                    <path fill="#C4C4C4" d="M107.965 86.283c4.913 0 8.896 6.668 8.896 14.895 0 8.226-3.983 14.895-8.896 14.895h-8.606v-29.79h8.606z" transform="translate(18 32) translate(0 1.25)"/>
                                    <path fill="#C4C4C4" d="M90.462 101.178c0 8.227 3.983 14.896 8.897 14.896 4.913 0 8.896-6.67 8.896-14.896 0-8.227-3.983-14.896-8.896-14.896-4.914 0-8.897 6.67-8.897 14.896" transform="translate(18 32) translate(0 1.25)"/>
                                    <path fill="#ADADAD" d="M92.939 101.178c0 6.17 2.874 11.171 6.42 11.171s6.42-5.001 6.42-11.171c0-6.17-2.874-11.172-6.42-11.172s-6.42 5.002-6.42 11.172" transform="translate(18 32) translate(0 1.25)"/>
                                    <path fill="#C4C4C4" d="M92.543 107.342c-.429-1.479-.757-3.035-.967-4.652-1.459-11.224 3.305-21.068 10.641-21.987 7.336-.92 14.147 7.48 15.924 18.66.487 3.065.696 5.704.673 7.979h-26.27z" transform="translate(18 32) translate(0 1.25)"/>
                                    <path fill="#C4C4C4" d="M113.465 86.283c4.913 0 8.896 6.668 8.896 14.895 0 8.226-3.983 14.895-8.896 14.895h-8.607v-29.79h8.607z" transform="translate(18 32) translate(0 1.25)"/>
                                    <path fill="#ADADAD" d="M95.962 101.178c0 8.227 3.983 14.896 8.896 14.896 4.914 0 8.897-6.67 8.897-14.896 0-8.227-3.983-14.896-8.897-14.896-4.913 0-8.896 6.67-8.896 14.896" transform="translate(18 32) translate(0 1.25)"/>
                                    <path fill="#CDCDCD" d="M98.439 101.178c0 6.17 2.874 11.171 6.42 11.171 3.545 0 6.42-5.001 6.42-11.171 0-6.17-2.875-11.172-6.42-11.172-3.546 0-6.42 5.002-6.42 11.172" transform="translate(18 32) translate(0 1.25)"/>
                                    <g transform="translate(18 32) translate(0 1.25) translate(21.727 45.996)">
                                        <mask id="4i671dwuje" fill="#fff">
                                            <use xlink:href="#v4bfig3puc"/>
                                        </mask>
                                        <path fill="url(#2jah2dzwad)" d="M57.402.51c-5.878.437-11.808.942-17.57 2.197-5.675 1.235-11.14 3.351-16.186 6.178-5.149 2.884-9.44 6.777-14.242 10.13-.67.467-1.354.919-2.055 1.341-.581.35-.964.395-1.59.58-1.137.335-1.533 1.202-2.263 2.021-.88.987-1.808 1.412-2.109 2.8-.24 1.111-.214 2.301-.141 3.428.097 1.49.435 2.706-.303 4.101-.556 1.053-.891 2.089-.929 3.3-.083 2.667 1.165 5.332.445 7.966-.866 3.164-.294 5.912-.003 8.84.117 1.177.018 2.257.798 3.222.633.782 1.164 1.088 2.158 1.662.637.368 1.672 1.111 1.458-.11-.533-3.04-1.198-6.38-.06-11.875.664-3.206 3.14-8.608 7.484-8.951 3.47-.274 6.07 3.92 7.348 6.31 1.394 2.607 2.139 5.438 2.631 8.341.885 5.214-.218 8.683.145 9.104.177.206.428.25.704.25H73.032c-.587-2.24-1.416-4.568-1.416-9.912 0-4.426 1.433-9.923 5.13-12.796 2.127-1.653 8.423-3.18 13.09 3.709 1.473 2.176 3.349 6.526 4.02 9.733.748 3.563 1.069 7.119 1.106 10.251H165.365c.277 0 .546-.011.822-.123.368-.15.55-.444.847-.683.37-.299.686-.273 1.07-.487.935-.52 1.563-2.362 1.792-3.333.31-1.322.051-2.656-.072-3.983-.2-2.152.383-5.725.231-9.641-.053-1.36-.136-3.184-1.313-3.99-.22-.15-.898-.697-1.055-.939-.598-.919-.16-2.39-.314-3.43-.167-1.122-1.164-2.191-2.062-2.848-1.044-.762-1.83-1.224-2.992-1.78-1.164-.56-2.529-1-3.775-1.546-1.235-.54-2.337-.883-3.484-1.573-1.049-.63-1.998-1.249-3.058-1.869-3.005-1.757-7.607-3.545-12.414-4.552-1.198-.251-2.437-.873-3.246-1.444-3.195-2.256-15.906-11.271-23.284-14.554-2.673-1.19-5.084-2.13-8.08-2.87-2.747-.68-5.46-1.249-8.333-1.553C90.287.462 82.095.008 75.732 0h-.845c-5.834 0-11.662.078-17.485.51" mask="url(#4i671dwuje)"/>
                                    </g>
                                    <path fill="#DCDCDC" d="M21.74 82.583c.039-1.212.374-2.248.93-3.3.738-1.396.4-2.612.303-4.101-.073-1.127-.1-2.317.14-3.428.301-1.388 1.23-1.814 2.11-2.8.73-.82 1.125-1.686 2.263-2.022.626-.185 1.008-.229 1.59-.579.7-.423 1.384-.874 2.055-1.342 4.803-3.352 9.093-7.245 14.241-10.13 5.046-2.826 10.511-4.943 16.186-6.178 5.762-1.254 11.693-1.76 17.571-2.196 6.104-.454 12.213-.518 18.33-.511 6.363.008 14.554.462 20.913 1.133 2.872.304 5.586.873 8.333 1.553 2.996.74 5.406 1.68 8.08 2.869 7.378 3.283 20.089 12.298 23.283 14.554.81.572 2.049 1.193 3.247 1.444 4.807 1.008 9.41 2.795 12.413 4.552 1.061.621 2.01 1.239 3.059 1.87 1.146.69 2.248 1.033 3.484 1.573 1.246.545 2.61.986 3.774 1.545 1.163.557 1.948 1.018 2.993 1.78.898.657 1.894 1.726 2.061 2.849.156 1.04-.283 2.51.315 3.43.157.241.834.788 1.055.939 1.176.805 1.26 2.63 1.313 3.99.151 3.916-.432 7.488-.231 9.64.123 1.328.382 2.662.071 3.984-.229.97-.856 2.813-1.79 3.332-.386.214-.7.189-1.071.488-.298.239-.479.533-.847.682-.277.112-.545.124-.822.124h-70.404c-.037-3.133-.358-6.689-1.105-10.251-.671-3.207-2.547-7.557-4.021-9.734-4.666-6.89-10.963-5.362-13.09-3.709-3.696 2.873-5.13 8.371-5.13 12.796 0 5.345.83 7.672 1.416 9.913H44.848c-.275 0-.526-.045-.704-.251-.363-.42.74-3.89-.144-9.104-.493-2.902-1.237-5.734-2.631-8.341-1.277-2.39-3.878-6.584-7.348-6.31-4.344.343-6.82 5.746-7.484 8.952-1.139 5.495-.473 8.835.06 11.874.214 1.22-.822.479-1.459.11-.994-.574-1.524-.88-2.157-1.662-.78-.964-.682-2.044-.798-3.22-.292-2.93-.863-5.677.002-8.842.72-2.633-.528-5.298-.444-7.965" transform="translate(18 32) translate(0 1.25)"/>
                                    <path fill="#E4E4E4" d="M151.039 61.845c.73.548 4.118 2.703 4.823 3.215.561.408 1.664 1.223 2.308.398 1.088-1.393-.924-3.308-2.056-3.89-1.454-.745-3.216-.933-4.842-.897-1.352.03-1.308.367-.233 1.174" transform="translate(18 32) translate(0 1.25)"/>
                                    <path fill="#CCC" d="M85.987 52.137c2.142 1.903 10.466 10.204 12.502 12.412.754.817 1.692 2.164 2.672 2.689.954.51 2.233.236 3.272.252 2.684.043 10.387-1.359 27.807-1.415 5.3-.017 16.277.25 22.083.652 1.904.131-.17-1.502-.87-2.101-3.356-2.88-10.67-7.704-12.851-9.054-2.259-1.398-4.815-2.794-7.247-3.883-3.166-1.418-4.168-1.799-6.934-2.143-2.5-.311-6.223-.566-8.882-.636-12.179-.32-23.035-.168-34.001 1.021 1.102.917 2.139 1.93 2.449 2.206" transform="translate(18 32) translate(0 1.25)"/>
                                    <g transform="translate(18 32) translate(0 1.25) translate(111.122 77.984)">
                                        <mask id="3p4upd2ish" fill="#fff">
                                            <use xlink:href="#awmft3jrmf"/>
                                        </mask>
                                        <path fill="url(#62olb6h2vg)" d="M7.92.04C6.545.154 5.186.41 3.839.703c-.414.09-3.926.813-3.836 1.203.092.4.638 1.01.922 1.288.849.828 2.332 2.03 3.354 2.64 2.38 1.417 4.664 2.006 7.389 2.464 4.974.834 10.385 1.195 15.533 1.276 2.58.04 4.4-1.015 6.574-2.298 1.203-.712 2.67-1.339.952-1.777-1.143-.29-13.21-3.162-18.589-4.368C13.87.623 11.321.001 8.933 0c-.341 0-.679.013-1.012.04" mask="url(#3p4upd2ish)"/>
                                    </g>
                                    <path fill="#FBFBFB" d="M185.376 85.386c.64.676 1.074 1.206 1.704 1.835 1.538 1.534 2.145-2.586 2.191-3.64.065-1.506.213-2.796-.982-3.883-.547-.499-1.7-1.44-2.345-1.689-.705-.27-.48 1.736-.568 2.526-.079.707-.308 1.534-.708 2.104-.23.326-.643.756-.643 1.117-.002.428.837 1.086 1.351 1.63" transform="translate(18 32) translate(0 1.25)"/>
                                    <path fill="#C4C4C4" d="M146.817 91.947c.98 1.578 5.427 7.42 6.999 9.123.865.937 1.961 1.783 3.84 1.783h22.422c1.55 0 3.074-.774 3.578-1.63.876-1.487 2.722-5.425 3.317-7.043.756-2.056 1.137-3.89.642-4.885-.716-1.438-2.487-3.832-3.712-4.834-1.24-1.015-2.22-.785-4.019-.674-3.58.22-6.11.187-9.923.187-4.184 0-9.655-.22-13.491-.338-2.205-.069-3.913.274-4.974.903-1.396.825-2.857 2.113-4.014 3.214-1.298 1.235-1.693 2.539-.665 4.194" transform="translate(18 32) translate(0 1.25)"/>
                                    <path fill="#D6D6D6" d="M160.457 99.126h19.949c.32 0 .578-.259.578-.58v-4.811c0-.32-.259-.58-.578-.58h-19.95c-.319 0-.578.26-.578.58v4.812c0 .32.26.58.579.58" transform="translate(18 32) translate(0 1.25)"/>
                                    <path fill="#C4C4C4" d="M123.413 100.872c.108.606.714 1.373 1.332 1.88.67.55 1.526 1.093 2.823 1.324 1.44.258 12.476 1.523 14.023 1.665 1.071.098 2.85.326 3.48-.262.196-.182.261-.455-.02-.507-3.063-.571-12.08-2.115-13.56-2.49-1.02-.259-1.887-.807-2.049-1.343-.514-1.706.345-2.707 1.308-4.107.895-1.301 1.696-2.56 2.542-3.893.157-.249.127-.498-.238-.498-1.72 0-3.604-.1-4.685.784-1.176.96-2.947 3.244-3.655 4.206-.801 1.09-1.55 1.839-1.3 3.241M189.524 105.862c1.12-.666 1.52-2.037 1.759-3.124.133-.607.212-1.365.268-1.988.075-.855.301-7.845.301-7.845 0-.162-.127-.39-.338-.39-.495.002-.966.1-1.412.289-.142.06-.57.367-.558.776.053 1.93.094 3.297.105 5.187.007 1.038.04 2.145-.089 3.14-.143 1.114-.778 2.524-.901 2.972-.16.585.075 1.453.865.983" transform="translate(18 32) translate(0 1.25)"/>
                                    <path fill="#B8B8B8" d="M124.218 99.292c0 .774.594 1.402 1.327 1.402s1.327-.628 1.327-1.402c0-.776-.594-1.403-1.327-1.403s-1.327.627-1.327 1.403" transform="translate(18 32) translate(0 1.25)"/>
                                    <g transform="translate(18 32) translate(0 1.25) translate(189.647 97.89)">
                                        <mask id="nvms9p25aj" fill="#fff">
                                            <use xlink:href="#63va0bibdi"/>
                                        </mask>
                                        <path fill="#F7F7F7" d="M0 .515l.004.363c.001.467.01.948.005 1.425.245.308.61.502 1.018.502.35 0 .665-.142.903-.377.26-.255.423-.62.423-1.025 0-.36-.127-.686-.338-.933C1.775.182 1.421 0 1.027 0 .613 0 .243.201 0 .515" mask="url(#nvms9p25aj)"/>
                                    </g>
                                    <path fill="#F7F7F7" d="M124.82 99.292c0 .774.593 1.402 1.326 1.402.733 0 1.327-.628 1.327-1.402 0-.776-.594-1.403-1.327-1.403s-1.327.627-1.327 1.403" transform="translate(18 32) translate(0 1.25)"/>
                                    <path fill="#D6D6D6" d="M28.948 71.012c.202.31 2.251.447 2.608.486 1.257.138 22.408 2.252 27.696 2.847 4.562.512 9.166 1.259 13.665 2.226 4.386.942 8.49 2.233 12.893 3.061 2.144.404 4.332.457 6.593.387 1.813-.056 4.42-.254 4.418-1.467-.001-1.078-4.692-1.521-5.715-1.67-2.298-.332-4.638-.528-6.94-.833-9.14-1.207-45.069-4.795-53.865-5.2-.357-.017-1.497-.058-1.353.163M45.636 95.64c.11.524 5.605.83 7.266.958 3.793.293 33.958 2.673 35.376 2.656.38-.005 1.646.124 1.899-.234.795-1.124-5.427-1.838-6.097-1.92-6.56-.796-26.099-2.64-29.302-2.875-1.643-.121-3.282-.216-4.923-.017-1.224.148-4.342.842-4.219 1.432" transform="translate(18 32) translate(0 1.25)"/>
                                    <path fill="#FFF" d="M123.803 82.59c0 1.498.992 2.712 2.214 2.712 1.224 0 2.216-1.214 2.216-2.712 0-1.499-.992-2.713-2.216-2.713-1.222 0-2.214 1.214-2.214 2.713m.92 0c0-.877.579-1.587 1.294-1.587.717 0 1.296.71 1.296 1.587 0 .876-.58 1.586-1.296 1.586-.715 0-1.295-.71-1.295-1.586" transform="translate(18 32) translate(0 1.25)"/>
                                    <path fill="#FFF" d="M119.115 83.05c.726 1.086 1.568 1.99 2.864 2.33 2.64.694 5.468.857 8.25 1.125 2.627.252 5.276.431 7.908.512.346.01 1.432.001 1.096-.255-.36-.272-1.26-.29-2.231-.36-2.908-.207-5.821-.506-8.694-.892-2.105-.283-4.677-.395-6.505-1.592-.89-.584-3.617-4.175-1.612-4.385.563-.059 3.573-.03 3.662-.399.078-.318-2.825-.502-3.221-.507-1.641-.023-3.382-.034-2.947 1.64.254.98.889 1.972 1.43 2.783" transform="translate(18 32) translate(0 1.25)"/>
                                    <path fill="#D6D6D6" d="M80.042 70.421c6.35.563 9.916 1.178 13.562 1.208 2.142.017 6.219.03 8.362-.005 1.823-.031 6.018-.045 9.156.414 11.99 1.755 21.234 3.916 30.535 6.923 4.576 1.48 8.102 3.544 7.492 2.86-1.112-1.247-10.626-5.138-12.62-5.8-10.644-3.532-17.804-5.186-25.008-6.433-3.887-.673-8.023-1.345-11.962-1.56-1.926-.106-16.65-1.086-18.583-1.169-12.363-.534-34.465-1.205-34.887-.467-.592 1.034 24.802 3.219 33.953 4.03" transform="translate(18 32) translate(0 1.25)"/>
                                    <path fill="#CCC" d="M42.946 65.124c.949.577 1.897 1.002 2.972 1.317.98.287 2.21.389 3.228.472 4.917.404 9.834.799 14.757 1.135 4.44.303 19.43 1.509 23.282 1.493.84-.005 1.729-.078 2.568-.173 1.081-.124 2.158-.286 3.227-.489.685-.13 2.284-.405 2.696-1.012.488-.719-2.177-3.379-2.78-4.015-2.704-2.858-5.43-5.946-8.442-8.626-2.725-2.428-5.689-4.517-9.398-5.008-4.281-.567-8.563-.22-12.808.417-4.153.623-7.873 1.934-11.696 3.691-3.796 1.746-10.354 5.887-10.844 6.375-1.201 1.197 2.625 4.05 3.238 4.423" transform="translate(18 32) translate(0 1.25)"/>
                                    <g transform="translate(18 32) translate(0 1.25) translate(119.013 52.83)">
                                        <mask id="bzuabjr7sm" fill="#fff">
                                            <use xlink:href="#xg7m47ywfk"/>
                                        </mask>
                                        <path fill="url(#u6qx8tbv5l)" d="M.089.568c1.22 2.099 3.384 6.206 4.487 8.55.144.305.583.232.693.18 2.107-1.014 5.869-1.187 7.13.83.08.129.067.307.271.306 2.895-.004 5.84.193 8.64.998 1.27.365 2.49 1.017 3.834 1.017l4.11.001c.322 0 .093-.454-.128-.67-1.88-1.825-8.973-6.32-13.036-8.08C11.328 1.638 6.79.204.416 0H.383C-.113 0-.026.37.089.568" mask="url(#bzuabjr7sm)"/>
                                    </g>
                                    <g transform="translate(18 32) translate(0 1.25) translate(123.906 62.608)">
                                        <mask id="100bavz70p" fill="#fff">
                                            <use xlink:href="#qeoxwck8cn"/>
                                        </mask>
                                        <path fill="url(#x087vbxeko)" d="M.208.712C.102.78-.05.874.016 1.035c.099.241.374 1.142.458 1.373.053.143.182.151.303.152.4.003 2.04.05 2.328-.059.47-.179.441-.906.662-1.214.142-.198.434-.301.722-.373.562-.142.2-.361.008-.484C4.024.128 3.421 0 2.798 0 1.86 0 .873.29.208.712" mask="url(#100bavz70p)"/>
                                    </g>
                                    <g transform="translate(18 32) translate(0 1.25) translate(94.621 53.196)">
                                        <mask id="z4fiuxzads" fill="#fff">
                                            <use xlink:href="#7itpn4o6xq"/>
                                        </mask>
                                        <path fill="url(#sbtlp6dc4r)" d="M4.984 8.493l.693-3.713c.091-.489.597-.875 1.132-.875h7.454c.535 0 1.007.386 1.055.875l.366 3.713c.061.622-.397 1.141-1.025 1.141H5.908c-.628 0-1.04-.52-.924-1.14M16.36.03C10.52.476 5.876 1.634.458 5.226c-.37.244-.758.557-.11 1.224 1.855 1.91 5.002 5.17 5.931 6.085.573.564 1.064.637 1.87.576 5.213-.396 8.366-.672 13.366-.902.673-.031.587-.3.444-.765-.681-2.219-3.934-10.23-4.368-10.925C17.323.092 17.142 0 16.83 0c-.129 0-.28.016-.47.03" mask="url(#z4fiuxzads)"/>
                                    </g>
                                    <g transform="translate(18 32) translate(0 1.25) translate(69.851 53.136)">
                                        <mask id="ktqozzi8fv" fill="#fff">
                                            <use xlink:href="#f7fl9qyift"/>
                                        </mask>
                                        <path fill="url(#mh8avsu1qu)" d="M1.137.84c-.33.835-.44 1.886-.634 2.763C.279 4.62.163 5.57.015 6.6c-.13.91.605 1.253.834.9.329-.508.476-1.04.646-1.542.213-.628.582-2.288 1.57-2.288 1.348 0 4.04.012 4.84.055 1.004.054 1.634.312 2.181 1.143.283.429.442 1.2.853 1.5.54.393 1.116-.06 1.38-.253.281-.205 1.54-1.295 1.797-1.508.094-.077.229-.196.294-.298.148-.233-.129-.486-.272-.62C12.777 2.408 11.11 1.285 9.235.664 7.056-.056 4.248.086 2.35.002 2.33 0 2.306 0 2.284 0c-.557 0-.938.314-1.147.84" mask="url(#ktqozzi8fv)"/>
                                    </g>
                                    <g transform="translate(18 32) translate(0 1.25) translate(43.926 53.677)">
                                        <mask id="k4s3xd8sky" fill="#fff">
                                            <use xlink:href="#3g225ia8pw"/>
                                        </mask>
                                        <path fill="url(#xn2345vhcx)" d="M20.356.006C15.292.952 13.2 1.778 9.576 3.334 5.876 4.924 1.98 7.622.217 9.112c-.453.383-.119.76.323.76 1.27 0 5.4.033 6.513.033.232 0 .481-.167.555-.447.139-.525.193-.857.326-1.384.14-.558.385-1.556 1.418-1.556.72 0 3.968.09 5.261.09.658 0 1.712-.135 2.062.759.31.794.425 2.361.495 3.484.023.372.29.788.586.67.165-.066.323-.81.503-1.669.342-1.635 1.31-5.516 2.393-9.379.072-.259-.029-.473-.234-.473-.02 0-.04.002-.061.006" mask="url(#k4s3xd8sky)"/>
                                    </g>
                                    <path fill="#FFF" d="M39.708 60.701c.088-.087.373-.293.8-.58-.817 1.262 2.707 3.93 3.29 4.29.933.577 1.84.984 2.898 1.298.965.288 2.2.408 3.201.492 4.838.404 9.676.799 14.519 1.134 4.368.304 19.118 1.51 22.906 1.492.828-.003 1.702-.076 2.528-.172 1.064-.123 2.123-.286 3.175-.489.649-.125 2.13-.385 2.6-.947.117.274.15.502.051.648-.412.608-2.01.882-2.696 1.012-1.069.203-2.146.365-3.227.489-.84.095-1.727.168-2.568.172-3.851.016-18.843-1.19-23.283-1.492-4.921-.336-9.84-.73-14.756-1.135-1.02-.083-2.248-.185-3.228-.472-1.075-.315-2.023-.74-2.972-1.318-.613-.373-4.439-3.225-3.238-4.422" transform="translate(18 32) translate(0 1.25)"/>
                                    <path fill="#E4E4E4" d="M81.325 69.401c1.302.167 3.81.374 4.933-.456.964-.713 1.433-2.075 1.336-3.215-.111-1.308-.697-2.573-1.654-3.464-1.119-1.042-2.783-.91-4.253-.818-2.115.131-7.306 1.04-7.777 3.527-.676 3.565 5 4.118 7.415 4.426" transform="translate(18 32) translate(0 1.25)"/>
                                    <path fill="#EFEFEF" d="M100.955 94.545c.122-.217.45-.123.439.126-.01.233-.016.468-.016.705 0 5.245 2.444 9.497 5.457 9.497 1.064 0 2.055-.53 2.894-1.446.154-.168.436-.027.401.2-.62 4.057-2.745 7.047-5.272 7.047-3.013 0-5.457-4.252-5.457-9.496 0-2.582.593-4.922 1.554-6.633M32.194 94.545c.122-.217.45-.123.438.126-.01.233-.015.468-.015.705 0 5.245 2.443 9.497 5.457 9.497 1.063 0 2.055-.53 2.893-1.446.155-.168.437-.027.402.2-.62 4.057-2.745 7.047-5.272 7.047-3.014 0-5.457-4.252-5.457-9.496 0-2.582.593-4.922 1.554-6.633" transform="translate(18 32) translate(0 1.25)"/>
                                    <path fill="#ABABAB" d="M181.775 83.455c.085 0 .16-.06.177-.146.348-1.873-.144-3.789-1.462-5.695-3.396-4.91-12.126-9.24-22.243-11.033-.097-.018-.19.048-.209.146-.017.098.049.191.146.209 10.027 1.776 18.667 6.048 22.011 10.883 1.262 1.824 1.734 3.649 1.403 5.423-.018.098.046.192.144.21.01.002.023.003.033.003M31.693 77.499c-.298-.078-.555-.29-.745-.615-.466-.802-.511-2.212-.118-3.678.573-2.132 1.849-3.588 2.903-3.314.297.077.555.29.744.614.467.802.512 2.212.118 3.679-.526 1.959-1.645 3.346-2.642 3.346-.088 0-.175-.01-.26-.032m-.519-4.2c-.365 1.357-.332 2.694.082 3.406.143.244.32.395.526.449.836.215 1.966-1.186 2.47-3.062.364-1.357.332-2.694-.082-3.406-.143-.245-.32-.396-.526-.45-.057-.014-.116-.021-.175-.021-.812 0-1.826 1.336-2.295 3.084M67.163 77.867c.575 0 1.023-.293 1.205-.792.034-.091-.013-.194-.105-.227-.093-.035-.195.013-.228.106-.064.173-.278.578-.911.556-1.968-.057-2.482-.087-3.958-.293-1.179-.166-1.638-.428-1.638-.937 0-.098-.08-.178-.178-.178-.099 0-.178.08-.178.178 0 .893.935 1.148 1.945 1.29 1.494.209 2.013.238 3.996.296h.05M42.813 75.459h.093c.292-.002.55-.053.764-.154.262-.122.454-.365.514-.65.021-.097-.041-.193-.138-.214-.097-.02-.193.043-.213.14-.037.175-.155.324-.314.399-.168.077-.375.117-.615.119-1.138.002-2.169-.095-3.299-.217l-.023-.002c-.519-.056-1.107-.12-1.346-.479-.055-.083-.166-.106-.25-.05-.082.054-.104.166-.05.25.332.5 1.04.575 1.608.637l.023.002c1.11.12 2.124.219 3.246.219M122.624 78.383c.097 0 .177-.078.178-.175.019-1.315-.49-1.51-1.136-1.758l-.069-.027c-5.069-1.959-12.043-3.692-15.79-4.623-.806-.2-1.444-.358-1.85-.467-.328-.088-.556-.44-.588-.527-.385-1.048-.569-1.87-.632-2.837-.013-.202.063-.309.265-.367.094-.027.148-.126.121-.22-.027-.094-.126-.149-.22-.122-.36.104-.546.364-.521.732.066 1.004.255 1.854.653 2.937.067.183.369.625.83.748.41.11 1.048.268 1.857.47 3.739.928 10.7 2.657 15.747 4.609l.07.026c.614.236.923.355.908 1.42-.002.099.076.18.175.181h.002zM138.468 87.737c2.584 0 4.41-1.079 6.518-2.324.15-.088.305-.176.457-.262.794-.45 1.421-.805 1.364-1.232-.036-.268-.318-.456-.915-.608-.094-.025-.192.032-.216.128-.025.096.033.193.129.216.622.16.649.305.65.311.025.188-.705.602-1.187.875-.154.087-.31.176-.462.266-2.064 1.218-3.851 2.274-6.34 2.274-.046 0-.093 0-.14-.002-5.802-.091-11.02-.52-15.507-1.273-2.698-.452-4.977-1.041-7.327-2.442-1.035-.616-2.501-1.813-3.321-2.614-.295-.288-.75-.816-.86-1.15.116-.094.696-.403 3.592-1.02l.096-.02c1.193-.258 2.61-.538 4.059-.658.098-.008.17-.094.162-.192-.008-.098-.09-.17-.191-.164-1.47.122-2.9.405-4.106.666l-.093.02c-3.562.758-3.765 1.078-3.841 1.198-.051.08-.05.153-.038.2.123.535.885 1.291.97 1.375.836.816 2.332 2.035 3.389 2.666 2.398 1.428 4.712 2.027 7.45 2.487 4.506.756 9.74 1.186 15.56 1.278l.148.001" transform="translate(18 32) translate(0 1.25)"/>
                                    <path fill="#ABABAB" d="M50.637 103.292h43.12c.098 0 .178-.08.178-.178 0-.099-.08-.178-.178-.178h-43.12c-3.284 0-3.703-1.117-4.189-2.41l-.044-.118c-.333-.881-.702-2.356-1.058-3.783-.28-1.116-.568-2.27-.836-3.124-.777-2.47-2.018-5.003-3.32-6.776-.284-.387-.588-.777-.91-1.19-1.055-1.35-2.147-2.749-2.612-4.177-.846-2.594-1.142-5.513-.96-9.466.04-.85.275-1.698.503-2.518.202-.727.41-1.478.48-2.223l.006-.07c.25-2.708.432-4.665 2.021-6.114.073-.066.079-.179.012-.252-.066-.072-.178-.078-.251-.011-1.692 1.542-1.878 3.556-2.136 6.345l-.007.07c-.066.713-.26 1.415-.468 2.16-.233.838-.474 1.706-.515 2.597-.184 3.998.117 6.956.976 9.593.485 1.487 1.597 2.91 2.671 4.287.32.41.623.796.904 1.18 1.28 1.742 2.5 4.237 3.266 6.672.265.843.553 1.993.83 3.103.36 1.437.73 2.922 1.071 3.824l.044.116c.51 1.358.993 2.64 4.522 2.64" transform="translate(18 32) translate(0 1.25)"/>
                                    <path fill="#ABABAB" d="M62.126 103.292l.02-.001c.098-.011.168-.1.157-.198-.038-.333-.089-.728-.143-1.158-.19-1.495-.427-3.355-.394-4.498.007-.248.089-.64.175-1.056.115-.554.245-1.184.256-1.717.028-1.358-1.148-8.6-1.384-10.038-.362-2.204-.252-6.819-.018-9.027.072-.672.073-1.323.073-1.952.001-.74.002-1.504.117-2.312.193-1.353 1.092-2.637 1.854-3.604.06-.077.048-.19-.03-.25-.077-.061-.189-.048-.25.029-.789 1.003-1.721 2.338-1.926 3.775-.118.834-.12 1.61-.12 2.362-.001.62-.002 1.26-.072 1.914-.236 2.228-.345 6.89.021 9.123.65 3.957 1.4 8.943 1.38 9.973-.011.5-.138 1.113-.25 1.652-.093.45-.174.838-.182 1.118-.034 1.17.205 3.046.396 4.552.055.429.105.823.143 1.155.01.09.087.158.177.158M90.98 103.292l.019-.001c.097-.01.168-.098.158-.196-.784-7.413-.578-12.313-.146-20.336.01-.196.047-.547.089-.953.098-.977.235-2.314.195-3.107-.007-.13-.025-.3-.045-.5-.067-.656-.17-1.649-.004-2.45.28-1.353.734-2.7 1.174-4 .336-.996.683-2.026.953-3.056.024-.095-.033-.192-.128-.217-.095-.024-.192.032-.217.127-.266 1.018-.611 2.042-.945 3.031-.443 1.312-.901 2.669-1.185 4.043-.177.855-.072 1.88-.002 2.559.02.193.037.36.044.481.038.766-.097 2.088-.195 3.053-.043.428-.078.765-.09.97-.432 8.04-.639 12.952.148 20.392.01.092.087.16.177.16M127.956 93.97c.046 0 .092-.018.127-.053.565-.576 1.081-.842 1.973-1.019.482-.096 2.537-.145 4.524-.193l1.543-.038c.508-.014 1.03-.023 1.552-.033 2.337-.039 4.754-.08 6.046-.592 1.314-.522 1.823-1.314 2.362-2.154.182-.284.37-.578.599-.878.059-.078.044-.19-.035-.25-.077-.059-.189-.044-.249.035-.236.31-.428.61-.615.9-.529.825-.986 1.537-2.193 2.015-1.232.49-3.616.53-5.921.569-.524.008-1.046.017-1.556.031-.495.014-1.018.026-1.541.04-2.095.05-4.073.097-4.585.199-.959.19-1.544.492-2.158 1.117-.069.07-.068.184.002.253.035.034.08.05.125.05M187.723 87.738c.091 0 .181-.018.27-.052 1.068-.417 1.425-3.385 1.456-4.097.004-.099-.072-.181-.17-.186-.102-.003-.181.072-.186.17-.04.956-.468 3.483-1.229 3.781-.07.028-.286.112-.658-.26-.374-.372-.678-.71-1-1.067-.218-.241-.443-.49-.7-.764-.135-.142-.293-.293-.446-.44-.382-.367-.858-.824-.857-1.066 0-.22.238-.527.43-.774.065-.085.128-.167.18-.242.37-.526.646-1.343.74-2.186.023-.21.026-.496.028-.799.004-.541.011-1.447.212-1.585.008-.005.027-.018.087.005.091.035.195-.011.23-.103s-.011-.195-.103-.23c-.192-.074-.332-.023-.415.034-.329.225-.359.89-.367 1.877-.002.293-.005.57-.026.761-.087.787-.34 1.542-.676 2.021-.05.072-.11.148-.172.228-.236.305-.504.651-.504.993-.001.393.469.845.967 1.323.157.15.304.292.433.428.256.271.479.519.695.758.325.36.633.701 1.012 1.08.261.261.519.392.77.392" transform="translate(18 32) translate(0 1.25)"/>
                                    <path fill="#DFDFDF" d="M23.137 75.549c1.295 0 1.983.031 2.629-.448.788-.586 1.324-1.291 2.113-1.913.583-.459 1.894-1.374 1.608-2.095-.24-.606-2.118-1.616-2.775-1.953-.481-.247-.959-.557-1.51-.328-.346.145-.814.662-1.039.88-.801.78-1.381 1.583-1.381 2.694 0 .991-.146 3.163.355 3.163" transform="translate(18 32) translate(0 1.25)"/>
                                    <g transform="translate(18 32) translate(0 1.25) translate(93.09 49.455)">
                                        <mask id="e1xdjugnsB" fill="#fff">
                                            <use xlink:href="#htud0w57oz"/>
                                        </mask>
                                        <path fill="url(#jlr7x3nf4A)" d="M2.083 3.374C3.781 4.771 6.658 4.6 8.8 4.691c4.631.198 7.291.282 11.902 1.003 4.114.643 16.57 4.354 18.421 4.96 1.979.649 12.512 3.536 13.243 1.654.684-1.758-3.234-4.341-4.478-5.1-3.027-1.845-6.011-3.45-9.248-4.97C36.49 1.228 34.704.86 32.2.586 27.875.11 7.334-.485.501.66-.83.883.77 2.293 2.083 3.374" mask="url(#e1xdjugnsB)"/>
                                    </g>
                                    <g transform="translate(18 32) translate(0 1.25) translate(0 21.07)">
                                        <mask id="o1yb8og1wD" fill="#fff">
                                            <use xlink:href="#jm7mtqv0eC"/>
                                        </mask>
                                        <path fill="#E6CB9F" d="M.648 1.345c.862 0 .864-1.345 0-1.345-.863 0-.865 1.345 0 1.345" mask="url(#o1yb8og1wD)"/>
                                    </g>
                                    <path fill="#FFB7AC" d="M119.38 58.29s-.613 4.086-.325 4.972c.29.885.807 1.044 2.337.894 1.53-.15 2.894-.011 2.792-1.585-.101-1.574.007-.203.007-.203s1.12-1.314.735-2.88c-.385-1.567-1.205-1.716-1.607-3.083-.403-1.366-3.939 1.885-3.939 1.885" transform="translate(18 32) translate(0 1.25)"/>
                                    <path fill="#FFC76D" d="M123.931 19.798s-6.619 0-6.357 15.144c.177 10.246 1.417 22.929 1.417 22.929h3.37l2.105-25.53-.535-12.543z" transform="translate(18 32) translate(0 1.25)"/>
                                    <path fill="#E5E7F6" d="M155.545 108.667c-.346-2.898-1.841-17.32-6.443-28.085l-6.135-28.38-.111.028c-.017-.118-.037-.237-.051-.356l-1.067-8.467c-4.788 2.544-13.24 2.871-20.903.174-.664 10.859-.111 26.098 1.011 43.395l.097 24.513c.031.491.438.872.928.87l4.739-.021c.417-.002.762-.327.79-.745 1.258-9.64 3.035-19.972 1.745-26.217l1.523-22.88.779-.011c1.791 5.394 4.407 13.256 7.044 21.115 4.255 12.682 8.562 25.351 9.537 27.62.27.629 1 .911 1.623.63l4.356-1.967c.462-.209.598-.711.538-1.216" transform="translate(18 32) translate(0 1.25)"/>
                                    <path fill="#C9C9C9" d="M130.59 61.667l-2.883 24.77c-.624 6.504 1.725 13.008.26 16.334-1.24 3.568-2.284 7.034-1.534 9.572l1.176-.005c.418-.002.763-.327.79-.745 1.259-9.64 3.036-19.972 1.746-26.217l1.583-23.784-1.137.075z" transform="translate(18 32) translate(0 1.25)"/>
                                    <path fill="#FFA699" d="M96.012 39.567l2.186-.097 2.209-.025 3.552-.284.07-.62-1.922 1.329 1.834 2.01 1.458-.484s1.619 1.324 1.452 1.293c-.166-.03-5.934 2.383-5.934 2.383s-4.15-1.32-4.317-1.351c-.166-.031-1.63-.64-1.63-.64l1.042-3.514z" transform="translate(18 32) translate(0 1.25)"/>
                                    <path fill="#FFB7AC" d="M108.067 37.847l-4.438.37c-.097-.031-.2-.041-.302-.027l-2.245.297c-.46.06-.772.502-.675.958l2.09.811-1.309 1.7-1.754 1.775s-.86.54.304 1.155c.144.076 3.236.623 3.236.623s5.28-3.145 5.428-3.21c.15-.065 1.73-1.05 1.73-1.05s4.42-2.495-2.065-3.402" transform="translate(18 32) translate(0 1.25)"/>
                                    <path fill="#FFA699" d="M106.432 44.086l-2.521 1.655c-.39.257-.917.147-1.172-.244l-.36-.554c-.256-.39-.146-.92.244-1.175l2.52-1.655c.39-.256.917-.146 1.171.245l.362.553c.255.39.145.92-.244 1.175M100.407 39.445l3.66-.782c.308-.066.613.129.685.437.067.293-.097.588-.38.684l-4.187 1.416.222-1.755z" transform="translate(18 32) translate(0 1.25)"/>
                                    <path fill="#FFA699" d="M107.13 43.597c-.329.028-.622-.217-.65-.547l-.118-1.339c-.029-.33.217-.624.546-.652.329-.03.622.217.65.547l.118 1.338c.028.33-.217.624-.546.653" transform="translate(18 32) translate(0 1.25)"/>
                                    <path fill="#5160C2" d="M63.67 17.1c2.862-.418 4.479-.661 7.129-.177 1.493.878 3.164 3.24 3.753 5.32l-4.523 2.895-10.338-5.445 3.98-2.593z" transform="translate(18 32) translate(0 1.25)"/>
                                    <path fill="#0D0D0D" d="M71.955 2.901s4.708 1.735 1.446 6.255c-3.263 4.52-1.446-6.255-1.446-6.255" transform="translate(18 32) translate(0 1.25)"/>
                                    <path fill="#FFB7AC" d="M73.363 6.486c-.172-1.522-.962-2.904-2.183-3.823-1.221-.919-2.766-1.292-4.27-1.032-2.911.504-4.925 3.197-4.592 6.141.192 1.693.623 2.315.781 3.924.366 3.735 6.465 4.342 7.445 4.172 2.137-.37 3.615-2.347 3.371-4.508l-.552-4.874M76.501 20.119c-2.972-.145-4.756-1.69-8.708-1.883-3.598-.175-6.98 1.381-9.737 1.247-1.292-.063-2.736 4.798-2.57 6.077 1.08 8.275 1.237 22.545 1.237 22.545 5.508 7.458 10.788 9.57 15.86 6.793 2.1-1.15 4.166-3.14 6.197-5.936 0 0-1.078-28.784-2.279-28.843" transform="translate(18 32) translate(0 1.25)"/>
                                    <path fill="#E5E7F6" d="M75.638 19.906c-2.973-.145-3.893-1.478-7.845-1.67-3.598-.175-6.98 1.38-9.737 1.247-1.292-.063-2.736 4.798-2.57 6.076 1.08 8.276 1.237 22.545 1.237 22.545 5.508 7.458 10.788 9.57 15.86 6.794 2.1-1.15 4.166-3.14 6.197-5.936 0 0-1.941-28.998-3.142-29.056" transform="translate(18 32) translate(0 1.25)"/>
                                    <path fill="#FFB7AC" d="M64.046 19.69l1.037-7.431 5.259 1.019.202 6.878c-.306 4.298-6.804 3.832-6.498-.465" transform="translate(18 32) translate(0 1.25)"/>
                                    <path fill="#0D0D0D" d="M65.428 6.404s1.074 5.019-2.885 5.423c0 0-2.851-3.105-1.78-6.19C61.537 3.406 67.69-.756 71.35.843c3.66 1.6 1.74 5.107-5.923 5.561" transform="translate(18 32) translate(0 1.25)"/>
                                    <path fill="#FFB7AC" d="M63.196 9.802c.736-.117 1.454.554 1.602 1.496.149.942-.328 1.802-1.064 1.918-.736.117-1.454-.553-1.602-1.496-.149-.942.328-1.802 1.064-1.918" transform="translate(18 32) translate(0 1.25)"/>
                                    <path fill="#3A3A3A" d="M78.678 62.343l-.024-.001.195-14.937c-12.684 5.089-22.664.189-22.664.189-.886 3.492-1.295 7.089-1.217 10.692l.51 23.629c-1.899 5.24-.53 27.568-.727 29.658l6 .245c.73-3.76 4.692-34.034 6.352-49.324l.262.003 3.166 21.748c-1.691 4.684.055 17.527.637 28.106l5.813-.2 2.402-26.137-.705-23.671z" transform="translate(18 32) translate(0 1.25)"/>
                                    <path fill="#8C96D7" d="M78.058 20.897l10.775 18.547s-2.868 7.026-4.161 5.96c-2.46-2.03-10.097-14.154-10.097-14.154l3.483-10.353z" transform="translate(18 32) translate(0 1.25)"/>
                                    <path fill="#0D0D0D" d="M123.403 1.897s-4.474 2.276-.706 6.381c3.768 4.106.706-6.381.706-6.381" transform="translate(18 32) translate(0 1.25)"/>
                                    <path fill="#FFB7AC" d="M122.722 5.587c-.007-1.531.616-2.998 1.722-4.053 1.105-1.056 2.596-1.608 4.12-1.526 2.95.158 5.265 2.596 5.278 5.559.007 1.704-.221 2.39-.214 4.007.004 1.093-1.657 3.145-2.446 3.9-.79.753-.4 1.322-1.49 1.264l-3.074-.165c-2.166-.116-3.865-1.906-3.874-4.081l-.022-4.905" transform="translate(18 32) translate(0 1.25)"/>
                                </g>
                                <g transform="translate(18 32) translate(120.38 19.563)">
                                    <mask id="5krnnnwdnF" fill="#fff">
                                        <use xlink:href="#hljw5kj70E"/>
                                    </mask>
                                    <path d="M10.573.043c-3.95.262-7.468.74-9.02 3.288C-.643 6.942.134 30.96.134 30.96c2.081 2.759 3.427 2.542 5.668 3.384 5.286 1.987 13.282.394 16.371-4.636 0 0-.515-15.504-1.373-23.806C20.295 1.035 15.436 0 11.839 0c-.445 0-.87.016-1.266.043" mask="url(#5krnnnwdnF)"/>
                                </g>
                                <g transform="translate(18 32)">
                                    <path fill="#FFB7AC" d="M132.292 11.25l-6.416 1.545v7.182c-.168 3.797 8.614 3.474 7.752-.551l-1.336-8.176z"/>
                                    <g transform="translate(122.504)">
                                        <mask id="nead02meuH" fill="#fff">
                                            <use xlink:href="#iwslwqrypG"/>
                                        </mask>
                                        <path fill="#0D0D0D" d="M6.273 5.86s.69 4.178 2.936 5.91c.89.684 2.179.084 2.226-1.039l.108-2.565c1.69-2.82.664-4.269.188-5.637C10.956.3 5.007-1.022 1.558.997-1.89 3.015.426 6.273 8.09 5.823l-1.816.038z" mask="url(#nead02meuH)"/>
                                    </g>
                                    <path fill="#FFB7AC" d="M130.875 7.85c-.721-.19-1.502.406-1.743 1.329-.24.923.149 1.826.87 2.015.72.19 1.501-.406 1.742-1.33.24-.922-.149-1.825-.87-2.014"/>
                                    <path fill="#8C96D7" d="M79.333 58.147s.065 2.383-4.49 2.383l-1.92-26.44.585-11.458 1.72-2.708 1.156.202c2.618.734 2.044 6.47 2.144 8.797l.805 29.224zM54.946 57.728c1.566.795 5.41 2.506 10.05 2.838l.722-23.833-3.736-16.653-2.698-.12-1.96.85c-2.197.986-3.227 2.437-3.128 4.787l1.634 15.76-1.555 15.133c-.053.513.213 1.005.671 1.238"/>
                                    <path fill="#B9BFE7" d="M63.67 18.35s-2.126 2.111.365 7.23c.956 1.964 2.233 7.472 1.683 11.458l-5.56-8.25 1.877-2.127-3.31-1.892.51-4.887c1.582-.569 1.633-.669 4.435-1.532M72.226 21.35c.39 1.084.495 2.625.475 4.666-.065 6.593.42 10.794.42 10.794l3.647-7.813-2.494-2.057 2.723-2.088-1.307-5.273s-1.435-.83-4.891-1.406c0 0 .738 1.263 1.427 3.177"/>
                                    <path fill="#E5E7F6" d="M61.262 63.134H44.506c-.78 0-1.417-.64-1.417-1.42V50.076c0-.782.638-1.421 1.417-1.421h16.756c.78 0 1.416.64 1.416 1.42v11.639c0 .78-.637 1.42-1.416 1.42"/>
                                    <path fill="#0D0D0D" d="M60.475 63.134H43.72c-.78 0-1.417-.64-1.417-1.42V50.076c0-.782.638-1.421 1.417-1.421h16.756c.78 0 1.417.64 1.417 1.42v11.639c0 .78-.638 1.42-1.417 1.42"/>
                                    <mask id="ikhcoswtsJ" fill="#fff">
                                        <use xlink:href="#m61899kzgI"/>
                                    </mask>
                                    <path fill="#E5E7F6" d="M96.11 45.522L97.765 45.522 97.765 40.592 96.11 40.592z" mask="url(#ikhcoswtsJ)"/>
                                    <path fill="#8C96D7" d="M85.815 40.465h10.74l-.11 6.294s-10.43 1.013-11.773-.105c-1.238-1.03-4.562-4.717 1.143-6.19" mask="url(#ikhcoswtsJ)"/>
                                    <path fill="#FFB7AC" d="M47.517 58.107s-.837 4.046-.596 4.946c.24.901.748 1.088 2.283 1.023 1.536-.066 2.891.147 2.876-1.43-.016-1.578.017-.202.017-.202s1.19-1.25.892-2.836c-.3-1.586-1.11-1.78-1.437-3.166-.327-1.386-4.035 1.665-4.035 1.665" mask="url(#ikhcoswtsJ)"/>
                                    <path fill="#E5E7F6" d="M47.497 58.371L52.412 58.371 52.412 56.711 47.497 56.711z" mask="url(#ikhcoswtsJ)"/>
                                    <path fill="#8C96D7" d="M54.653 23.058s-7.154 12.763-7.84 18.759c-.686 5.996 0 15.04 0 15.04h6.273s-.883-10.229.098-13.765c.98-3.536 6.076-10.969 6.076-10.969l-4.607-9.065z" mask="url(#ikhcoswtsJ)"/>
                                    <path fill="#FFD084" d="M134.116 22.665l-8.038 19.564s6.242 4.47 7.12 3.041c.774-1.262 4.84-8.926 7.434-13.835 1.211-2.293.338-5.135-1.948-6.348l-4.568-2.422z" mask="url(#ikhcoswtsJ)"/>
                                    <path fill="#FFD084" d="M128.83 47.622l-19.29-2.28.691-6.866 22.453 2.694.48 2.005c.63 2.63-1.696 5.019-4.333 4.447" mask="url(#ikhcoswtsJ)"/>
                                    <path fill="#FF9787" d="M70.418 17.133s-2.664.289-5.147-1.464c0 0 2.704 3.397 5.18 2.938l-.033-1.474zM125.906 15.653s2.665.289 5.148-1.465c0 0-2.705 3.397-5.18 2.939l.032-1.474z" mask="url(#ikhcoswtsJ)"/>
                                    <path fill="#FFC76D" d="M120.548 39.653L126.135 39.115 132.865 28.295 128.373 40.592z" mask="url(#ikhcoswtsJ)"/>
                                    <path fill="#0D0D0D" d="M67.365 63.747l3.166 21.748s-1.146 2.715-.599 10.647c.547 7.933 1.236 17.46 1.236 17.46l2.103-.009s.253-3.119-.696-6.226c-.948-3.107-1.2-9.004-.316-10.843.885-1.839.506-6.342.19-7.42-.316-1.078.506-4.433 0-6.94-.398-1.973-2.088-11.62-2.79-15.643-.194-1.112-.9-2.067-1.905-2.577l-.389-.197z" mask="url(#ikhcoswtsJ)"/>
                                    <path stroke="#000" stroke-linecap="round" stroke-linejoin="round" stroke-width=".62" d="M74.162 11.517l-1.311.225c-.598.102-1.19-.296-1.315-.885l-.03-.144c-.126-.589.26-1.155.857-1.258l1.311-.225c.597-.102 1.19.297 1.315.886l.03.143c.126.59-.26 1.155-.857 1.258zM69.77 12.139l-1.311.225c-.598.102-1.19-.296-1.315-.885l-.03-.143c-.126-.59.26-1.156.857-1.258l1.311-.225c.597-.103 1.189.296 1.315.885l.03.143c.126.59-.26 1.155-.857 1.258zM62.282 11.128L66.451 11.899" mask="url(#ikhcoswtsJ)"/>
                                </g>
                            </g>
                        </g>
                    </g>
                </g>
            </g>
        </g>
    </g>
</svg>
