<svg xmlns="http://www.w3.org/2000/svg" xmlns:xlink="http://www.w3.org/1999/xlink" width="240" height="137" viewBox="0 0 240 137">
    <defs>
        <rect id="6gcvz70wwa" width="240" height="137" x="0" y="0" rx="8"/>
    </defs>
    <g fill="none" fill-rule="evenodd">
        <g>
            <g>
                <g>
                    <g transform="translate(-866 -122) translate(86 34) translate(780 88)">
                        <mask id="l9k6aigibb" fill="#fff">
                            <use xlink:href="#6gcvz70wwa"/>
                        </mask>
                        <use fill="#F5F5F5" xlink:href="#6gcvz70wwa"/>
                        <g mask="url(#l9k6aigibb)">
                            <g>
                                <g>
                                    <path fill="#FFF" d="M15.143 3.193c.599-.754 1.325-1.405 2.224-1.903C21.089-.77 25.643.117 29.62.696c7.496 1.091 15.4.873 22.966 1.391 13.576.93 27.18 1.912 40.7 3.476 1.947.225 4.39.192 6.234.944 4.731 1.929 3.473 8.295 3.414 11.353-.162 8.348-2.138 51.047-3.753 63.888-.733 5.83-2.387 7.876-11.139 8.08-5.612.132-66.801.818-75.91-.434-3.155-.434-6.838-.781-9.376-2.9-3.13-2.611-2.912-7.44-2.565-11.116 1.108-11.724 2.615-17.844 3.98-26.746 1.195-7.796 3.085-15.408 4.605-23.142.987-5.016 2.14-10.01 3.41-14.952.652-2.532 1.342-5.312 2.957-7.345" transform="translate(48 41) translate(0 15.285)"/>
                                </g>
                                <g>
                                    <path fill="#BFBFBF" d="M9.832 3.826c.54-.818 1.213-1.537 2.067-2.107C15.433-.643 19.993 0 23.959.359c7.48.676 15.272-.03 22.78.047 13.472.139 26.977.33 40.437 1.13 1.939.115 4.35-.067 6.221.6 4.806 1.712 4 8.385 4.152 11.558.152 3.173.18 6.354.228 9.53.196 12.974.233 25.952.155 38.926-.035 5.662-.078 11.326-.252 16.984-.083 2.681.446 4.846-1.785 6.692-2.518 2.084-6.262 2.69-9.277 3.757-6.72 2.375-13.613 2.736-20.668 2.597-6.177-.122-12.526 1.025-18.78 1.132-11.37.192-23.038.956-34.395.025-3.147-.258-6.808-.394-9.46-2.435C.045 88.385-.072 83.369.019 79.538c.29-12.216 1.358-18.65 2.095-27.958.645-8.151 1.99-16.155 2.96-24.262.63-5.257 1.427-10.504 2.343-15.701.469-2.663.96-5.586 2.415-7.791" transform="translate(48 41) translate(8.167 14.7)"/>
                                </g>
                                <g>
                                    <path fill="#EFEFEF" d="M95.357.12C81.469-1.055 7.098 6.735 3.608 8.303-1.273 10.496.17 17.389.294 20.713c.342 9.07 4.3 58.559 6.249 72.483.884 6.322 3.775 10.773 12.883 10.819 5.841.03 67.056-8.245 76.478-9.788 10.82-1.772 11.459-5.062 11.536-7.556.238-7.68-5.688-61.028-6.554-70.162-.432-4.547.381-15.888-5.53-16.389" transform="translate(48 41) translate(17.395 7.985)"/>
                                </g>
                                <g>
                                    <path fill="#D4D4D4" d="M7.814.931C7.67.58 7.68-.178 5.894.038c-.711.086-3.016.351-3.92.473C.62.693-.12.881.015 2.351.149 3.79.578 7.1.657 7.85c.075.712.217 1.092 1.018 1.095.567.003 5.532-.598 6.034-.746.803-.235.93-.71.812-1.45-.278-1.763-.604-5.566-.707-5.818" transform="translate(48 41) translate(56.26 40.148)"/>
                                </g>
                                <g>
                                    <path fill="#D4D4D4" d="M7.814.932C7.67.579 7.68-.178 5.894.038c-.711.086-3.016.352-3.92.473C.62.693-.12.881.016 2.351.149 3.79.578 7.1.657 7.85c.075.712.217 1.092 1.018 1.096.567.002 5.532-.599 6.034-.746.803-.236.93-.71.813-1.45-.279-1.764-.605-5.566-.708-5.818" transform="translate(48 41) translate(68.008 38.668)"/>
                                </g>
                                <g>
                                    <path fill="#D4D4D4" d="M7.814.932C7.67.579 7.68-.178 5.894.038c-.712.086-3.016.352-3.92.473C.62.693-.12.881.015 2.351.149 3.79.578 7.1.657 7.85c.075.712.217 1.092 1.018 1.096.567.002 5.532-.599 6.034-.746.803-.236.929-.71.812-1.45-.278-1.764-.604-5.566-.707-5.818" transform="translate(48 41) translate(79.607 37.376)"/>
                                </g>
                                <g>
                                    <path fill="#A0E2A0" d="M7.814.932C7.67.579 7.679-.178 5.894.038c-.712.086-3.016.352-3.92.473C.62.693-.12.881.015 2.351.149 3.79.578 7.1.656 7.85c.076.712.217 1.092 1.019 1.096.567.002 5.532-.599 6.034-.746.803-.236.93-.71.812-1.45-.278-1.764-.604-5.566-.707-5.818" transform="translate(48 41) translate(90.925 35.97)"/>
                                </g>
                                <g>
                                    <path fill="#A0E2A0" d="M7.814.932C7.67.579 7.68-.178 5.894.038c-.711.086-3.016.352-3.92.473C.62.693-.12.881.015 2.351.149 3.79.578 7.1.657 7.85c.075.711.217 1.092 1.018 1.096.567.002 5.532-.599 6.034-.746.803-.236.93-.71.812-1.45-.278-1.764-.604-5.566-.707-5.818" transform="translate(48 41) translate(102.172 34.763)"/>
                                </g>
                                <g>
                                    <path fill="#D4D4D4" d="M7.814.931C7.67.578 7.68-.178 5.894.038c-.711.086-3.016.351-3.92.473C.62.692-.12.881.015 2.351.149 3.79.578 7.1.657 7.85c.075.713.217 1.093 1.018 1.097.567.002 5.532-.6 6.034-.747.803-.235.93-.71.812-1.45-.278-1.764-.604-5.566-.707-5.818" transform="translate(48 41) translate(80.764 49.56)"/>
                                </g>
                                <g>
                                    <path fill="#A0E2A0" d="M7.814.932C7.67.58 7.679-.178 5.894.038c-.712.086-3.016.352-3.92.474C.62.692-.12.882.015 2.352c.133 1.438.562 4.747.64 5.497.076.713.217 1.093 1.019 1.097.567.002 5.532-.599 6.034-.746.803-.236.93-.71.812-1.45-.278-1.764-.604-5.566-.707-5.818" transform="translate(48 41) translate(92.347 48.184)"/>
                                </g>
                                <g>
                                    <path fill="#A0E2A0" d="M7.814.932C7.67.58 7.679-.178 5.894.038c-.712.086-3.016.352-3.92.473C.62.693-.12.881.015 2.351.149 3.79.578 7.1.657 7.85c.075.712.217 1.092 1.018 1.096.567.002 5.532-.599 6.034-.746.803-.236.93-.71.812-1.45-.278-1.764-.604-5.566-.707-5.818" transform="translate(48 41) translate(103.861 46.84)"/>
                                </g>
                                <g>
                                    <path fill="#D4D4D4" d="M7.814.932C7.67.578 7.679-.178 5.894.038c-.712.086-3.016.352-3.92.473C.62.692-.12.881.015 2.351.149 3.79.578 7.1.657 7.85c.075.712.217 1.093 1.018 1.096.567.003 5.532-.598 6.033-.745.804-.236.93-.71.813-1.45-.278-1.765-.604-5.566-.707-5.818" transform="translate(48 41) translate(46.103 53.814)"/>
                                </g>
                                <g>
                                    <path fill="#D4D4D4" d="M7.814.931C7.67.58 7.68-.178 5.894.038c-.712.086-3.016.352-3.92.473C.62.693-.12.881.015 2.351.149 3.79.578 7.1.657 7.85c.075.712.217 1.093 1.018 1.096.567.003 5.532-.598 6.033-.746.804-.235.93-.71.814-1.45-.279-1.763-.605-5.565-.708-5.818" transform="translate(48 41) translate(57.405 52.418)"/>
                                </g>
                                <g>
                                    <path fill="#D4D4D4" d="M7.814.932C7.67.579 7.68-.178 5.894.038 5.183.124 2.878.39 1.974.51.62.693-.12.881.015 2.351.149 3.79.578 7.1.657 7.85c.075.712.217 1.092 1.018 1.096.567.002 5.532-.599 6.033-.746.804-.236.93-.71.814-1.45-.279-1.764-.605-5.566-.708-5.818" transform="translate(48 41) translate(69.113 50.943)"/>
                                </g>
                                <g>
                                    <path fill="#D4D4D4" d="M7.814.932C7.67.579 7.68-.178 5.894.038c-.711.086-3.016.351-3.92.473C.62.693-.12.881.015 2.351.149 3.79.578 7.1.657 7.85c.075.713.217 1.093 1.018 1.096.567.003 5.532-.598 6.034-.745.803-.236.93-.71.813-1.45-.278-1.764-.605-5.566-.708-5.818" transform="translate(48 41) translate(82.228 61.414)"/>
                                </g>
                                <g>
                                    <path fill="#A0E2A0" d="M7.814.932C7.67.579 7.68-.178 5.894.038 5.183.124 2.878.39 1.974.51.62.693-.12.881.015 2.351.149 3.79.578 7.1.657 7.85c.075.712.217 1.092 1.018 1.096.567.002 5.532-.599 6.034-.746.803-.236.929-.71.813-1.45-.279-1.764-.605-5.566-.708-5.818" transform="translate(48 41) translate(93.917 60.026)"/>
                                </g>
                                <g>
                                    <path fill="#A0E2A0" d="M7.814.931C7.67.58 7.679-.178 5.894.038c-.712.086-3.016.352-3.92.473C.62.692-.12.88.015 2.35c.132 1.438.562 4.748.64 5.499.076.712.218 1.092 1.02 1.095.566.003 5.53-.598 6.033-.745.803-.236.93-.71.812-1.45-.278-1.764-.604-5.566-.707-5.819" transform="translate(48 41) translate(105.1 58.614)"/>
                                </g>
                                <g>
                                    <path fill="#D4D4D4" d="M7.814.931C7.67.58 7.68-.177 5.894.038 5.183.124 2.878.39 1.974.51.62.693-.12.88.015 2.35.149 3.79.578 7.1.657 7.85c.075.712.217 1.093 1.018 1.096.567.003 5.532-.598 6.033-.745.804-.237.93-.71.813-1.45-.278-1.765-.604-5.566-.707-5.819" transform="translate(48 41) translate(47.454 65.628)"/>
                                </g>
                                <g>
                                    <path fill="#D4D4D4" d="M7.814.932C7.67.578 7.68-.178 5.894.038c-.712.086-3.016.351-3.92.473C.62.693-.12.88.015 2.35.149 3.789.578 7.099.657 7.85c.075.711.217 1.092 1.018 1.095.567.003 5.532-.598 6.034-.746.803-.235.93-.71.812-1.45-.278-1.764-.604-5.565-.707-5.817" transform="translate(48 41) translate(59.073 64.357)"/>
                                </g>
                                <g>
                                    <path fill="#D4D4D4" d="M7.814.932C7.67.579 7.68-.178 5.894.038c-.712.086-3.016.352-3.92.473C.62.693-.12.881.015 2.351.149 3.79.578 7.1.657 7.85c.075.713.217 1.093 1.018 1.097.567.003 5.532-.599 6.034-.746.803-.236.93-.71.813-1.45-.279-1.764-.605-5.566-.708-5.818" transform="translate(48 41) translate(70.577 62.798)"/>
                                </g>
                                <g>
                                    <path fill="#D4D4D4" d="M7.814.932C7.67.579 7.679-.178 5.894.038 5.182.124 2.878.39 1.974.51.62.693-.12.881.015 2.351.149 3.79.578 7.1.657 7.85c.075.712.217 1.092 1.018 1.096.567.002 5.532-.599 6.034-.746.803-.236.93-.71.812-1.45-.278-1.765-.604-5.566-.707-5.818" transform="translate(48 41) translate(62.127 89.24)"/>
                                </g>
                                <g>
                                    <path fill="#D4D4D4" d="M7.814.932C7.67.579 7.679-.178 5.894.038c-.711.086-3.016.352-3.92.474C.62.692-.12.882.015 2.352.149 3.789.578 7.099.657 7.85c.075.712.217 1.092 1.018 1.096.567.002 5.532-.6 6.034-.746.803-.236.93-.71.813-1.45-.279-1.764-.605-5.566-.708-5.818" transform="translate(48 41) translate(74.017 87.72)"/>
                                </g>
                                <g>
                                    <path fill="#D4D4D4" d="M7.814.931C7.67.58 7.68-.177 5.894.038 5.183.124 2.879.39 1.974.51.62.693-.12.881.015 2.351.149 3.79.578 7.1.657 7.85c.075.712.217 1.093 1.018 1.097.567.002 5.532-.599 6.034-.746.803-.237.93-.71.813-1.45-.279-1.764-.605-5.566-.708-5.819" transform="translate(48 41) translate(85.092 86.321)"/>
                                </g>
                                <g>
                                    <path fill="#D4D4D4" d="M7.814.931C7.67.58 7.679-.178 5.894.038c-.712.086-3.016.352-3.92.473C.62.692-.12.881.015 2.351.149 3.79.578 7.1.657 7.85c.075.713.217 1.093 1.018 1.097.567.002 5.532-.6 6.033-.747.804-.235.93-.71.813-1.45-.278-1.763-.604-5.565-.707-5.818" transform="translate(48 41) translate(50.37 90.637)"/>
                                </g>
                                <g>
                                    <path fill="#D4D4D4" d="M7.814.932C7.67.579 7.68-.178 5.894.038 5.182.124 2.878.39 1.974.51.62.693-.12.881.015 2.351.149 3.79.578 7.1.657 7.85c.075.713.217 1.093 1.018 1.097.567.002 5.532-.599 6.034-.746.804-.237.93-.71.812-1.45-.278-1.764-.604-5.566-.707-5.818" transform="translate(48 41) translate(34.31 55.222)"/>
                                </g>
                                <g>
                                    <path fill="#D4D4D4" d="M7.814.932C7.67.579 7.679-.178 5.894.038c-.712.086-3.016.352-3.92.473C.62.693-.12.881.015 2.351.149 3.79.578 7.1.657 7.85c.075.712.217 1.092 1.018 1.096.567.002 5.532-.599 6.033-.746.804-.236.93-.71.813-1.45-.278-1.764-.604-5.567-.707-5.818" transform="translate(48 41) translate(35.801 67.29)"/>
                                </g>
                                <g>
                                    <path fill="#D4D4D4" d="M7.814.932C7.67.579 7.679-.178 5.894.038c-.712.086-3.016.352-3.92.473C.62.693-.12.881.015 2.351.149 3.79.578 7.1.657 7.85c.075.713.217 1.093 1.018 1.097.567.002 5.532-.599 6.034-.746.803-.236.93-.71.812-1.45-.278-1.764-.604-5.566-.707-5.818" transform="translate(48 41) translate(38.874 91.863)"/>
                                </g>
                                <g>
                                    <path fill="#D4D4D4" d="M7.814.931C7.67.58 7.68-.178 5.894.038c-.712.086-3.016.351-3.92.473C.62.693-.12.881.015 2.351.149 3.79.578 7.1.657 7.85c.075.712.217 1.092 1.018 1.096.567.002 5.532-.599 6.034-.747.803-.235.929-.71.813-1.45-.278-1.763-.605-5.565-.708-5.818" transform="translate(48 41) translate(83.856 74.103)"/>
                                </g>
                                <g>
                                    <path fill="#A0E2A0" d="M7.814.931C7.67.58 7.679-.178 5.894.038c-.712.086-3.016.352-3.92.474C.62.692-.12.882.015 2.352c.133 1.437.562 4.747.641 5.497.075.712.217 1.093 1.018 1.097.567.002 5.532-.599 6.034-.746.803-.236.929-.71.812-1.45-.278-1.764-.604-5.567-.707-5.819" transform="translate(48 41) translate(95.545 72.715)"/>
                                </g>
                                <g>
                                    <path fill="#A0E2A0" d="M7.814.932C7.67.579 7.68-.178 5.894.038c-.711.086-3.016.352-3.92.473C.62.693-.12.881.015 2.351.149 3.79.578 7.1.657 7.85c.075.712.217 1.092 1.018 1.096.567.002 5.532-.6 6.034-.746.804-.236.93-.71.813-1.45-.278-1.764-.605-5.566-.708-5.818" transform="translate(48 41) translate(106.714 71.197)"/>
                                </g>
                                <g>
                                    <path fill="#D4D4D4" d="M7.814.932C7.67.579 7.68-.178 5.894.038c-.712.086-3.016.352-3.92.473C.62.693-.12.881.015 2.351.149 3.79.578 7.1.657 7.85c.075.713.217 1.093 1.018 1.097.567.002 5.532-.599 6.033-.746.804-.236.93-.71.814-1.45-.279-1.764-.605-5.566-.708-5.818" transform="translate(48 41) translate(48.856 78.236)"/>
                                </g>
                                <g>
                                    <path fill="#D4D4D4" d="M7.814.932C7.67.579 7.68-.178 5.894.038c-.712.086-3.016.351-3.92.473C.62.693-.12.881.015 2.351.149 3.79.578 7.1.657 7.85c.075.713.217 1.093 1.018 1.097.567.002 5.532-.6 6.034-.747.804-.236.93-.71.813-1.45-.279-1.763-.605-5.565-.708-5.817" transform="translate(48 41) translate(60.7 77.045)"/>
                                </g>
                                <g>
                                    <path fill="#D4D4D4" d="M7.814.932C7.67.579 7.68-.178 5.894.038c-.712.086-3.016.352-3.92.473C.62.693-.12.881.015 2.351.149 3.79.578 7.1.656 7.85c.076.712.218 1.092 1.019 1.096.567.002 5.532-.599 6.033-.746.804-.236.93-.71.814-1.45-.279-1.764-.605-5.566-.708-5.818" transform="translate(48 41) translate(72.205 75.486)"/>
                                </g>
                                <g>
                                    <path fill="#D4D4D4" d="M7.814.931C7.67.58 7.68-.177 5.894.038 5.182.124 2.878.39 1.974.51.62.693-.12.881.015 2.351.149 3.79.578 7.1.657 7.85c.075.712.217 1.093 1.018 1.097.567.002 5.532-.599 6.034-.746.803-.236.93-.71.813-1.45-.279-1.765-.605-5.566-.708-5.819" transform="translate(48 41) translate(37.377 79.553)"/>
                                </g>
                                <g>
                                    <path fill="#10A310" d="M94.963.212c-13.988-1.53-87.99 5.662-91.47 7.443-4.868 2.492-3.288 10.525-3.1 14.39.068 1.41.184 4.448.393 7.327 7.263-.695 96.44-10.186 100.566-10.72l-.116-1.158c-.52-5.292-.32-16.63-6.273-17.282" transform="translate(48 41) translate(17.789 7.893)"/>
                                </g>
                                <g>
                                    <path fill="#FDE6B8" d="M.11.101v0" transform="translate(48 41) translate(111.191 30.57)"/>
                                </g>
                                <g>
                                    <path fill="#E8E8E8" d="M.5 0c-.667 0-.667 1 0 1s.667-1 0-1" transform="translate(48 41) translate(121.533 54.965)"/>
                                </g>
                                <g>
                                    <path fill="#FFF" d="M1.543.01C.608.106-.09.965.009 1.897c.099.93.96 1.626 1.895 1.528.935-.098 1.632-.957 1.534-1.889C3.339.607 2.478-.089 1.543.01" transform="translate(48 41) translate(25.193 18.09)"/>
                                </g>
                                <g>
                                    <path fill="#FFF" d="M1.543.01C.608.106-.09.965.009 1.896c.099.932.96 1.627 1.895 1.529.935-.098 1.632-.957 1.534-1.889C3.339.607 2.478-.089 1.543.01" transform="translate(48 41) translate(32.05 17.37)"/>
                                </g>
                                <g>
                                    <path fill="#FFF" d="M1.543.01C.608.106-.09.965.009 1.897c.099.93.96 1.626 1.895 1.528.935-.099 1.633-.958 1.534-1.889C3.339.607 2.478-.089 1.543.01" transform="translate(48 41) translate(45.2 15.877)"/>
                                </g>
                                <g>
                                    <path fill="#FFF" d="M1.543.01C.608.106-.09.965.009 1.896c.099.932.96 1.627 1.895 1.529.935-.099 1.632-.957 1.534-1.889C3.339.607 2.478-.089 1.543.01" transform="translate(48 41) translate(52.058 15.157)"/>
                                </g>
                                <g>
                                    <path fill="#FFF" d="M1.543.01C.608.106-.09.965.009 1.897c.099.93.96 1.626 1.895 1.528.935-.099 1.632-.957 1.534-1.889C3.339.607 2.478-.089 1.543.01" transform="translate(48 41) translate(63.915 14.134)"/>
                                </g>
                                <g>
                                    <path fill="#FFF" d="M1.543.01C.608.106-.09.965.009 1.896c.099.932.96 1.627 1.895 1.528.935-.098 1.632-.957 1.534-1.888C3.34.607 2.478-.089 1.543.01" transform="translate(48 41) translate(70.772 13.414)"/>
                                </g>
                                <g>
                                    <path fill="#FFF" d="M1.543.01C.608.106-.089.965.01 1.896c.099.932.96 1.627 1.895 1.529.935-.099 1.633-.957 1.534-1.889C3.34.607 2.478-.089 1.543.01" transform="translate(48 41) translate(83.072 12.345)"/>
                                </g>
                                <g>
                                    <path fill="#FFF" d="M1.543.01C.609.106-.089.965.009 1.897c.099.93.96 1.626 1.895 1.528.935-.098 1.633-.957 1.534-1.889C3.34.607 2.478-.089 1.543.01" transform="translate(48 41) translate(89.93 11.625)"/>
                                </g>
                                <g>
                                    <path fill="#FFF" d="M1.433.024C.507.18-.134 1.084.024 2.006c.158.923 1.063 1.562 1.99 1.404.925-.157 1.567-1.059 1.409-1.982C3.264.505 2.359-.134 1.433.024" transform="translate(48 41) translate(102.243 10.666)"/>
                                </g>
                                <g>
                                    <path fill="#FFF" d="M1.433.024C.507.18-.134 1.084.024 2.006c.158.923 1.063 1.562 1.99 1.404.925-.157 1.566-1.059 1.408-1.982C3.264.505 2.36-.134 1.433.024" transform="translate(48 41) translate(109.196 9.824)"/>
                                </g>
                                <g>
                                    <path fill="#000" d="M10.146 12.811l-1.12-1.655c1.402-.941 2.02-2.797 1.652-4.962-.347-2.05-1.51-3.724-2.828-4.072-1.207-.318-2.524-.024-3.615.806C2.83 3.997 2.018 5.77 2.003 7.792L0 7.777c.02-2.644 1.12-4.99 3.019-6.435C4.606.134 6.553-.285 8.362.192c2.086.55 3.81 2.83 4.291 5.67.494 2.915-.466 5.578-2.507 6.95" transform="translate(48 41) translate(17.504 8.063)"/>
                                </g>
                                <g>
                                    <path fill="#000" d="M1.967.995C1.849.861 1.726.731 1.591.613 1.56.594 1.384.463 1.36.45 1.281.4 1.201.35 1.118.306 1.076.284.796.16.882.186.844.174.806.158.767.146.656.105.55.056.45 0 .273.386.122.79 0 1.212l1.84.526c.059-.206.128-.405.204-.6-.065-.093-.17-.244-.077-.143" transform="translate(48 41) translate(25.394 11.905)"/>
                                </g>
                                <g>
                                    <path fill="#000" d="M7.29.77C5.717-.14 3.786-.249 1.99.471 1.261.765.592 1.182 0 1.699c.643.293 1.254.61 1.804 1.02.284-.19.585-.35.902-.478 1.244-.5 2.565-.434 3.623.178 1.144.661 1.796 2.496 1.587 4.463-.219 2.05-1.263 3.57-2.794 4.066l.591 1.814c2.237-.724 3.81-2.9 4.106-5.679.291-2.733-.725-5.27-2.53-6.314" transform="translate(48 41) translate(28.127 7.065)"/>
                                </g>
                                <g>
                                    <path fill="#000" d="M8.864 13.341l-.747-1.851c1.568-.63 2.562-2.314 2.657-4.509.091-2.076-.695-3.956-1.911-4.57-1.112-.563-2.462-.55-3.704.034-1.597.752-2.764 2.316-3.203 4.29L0 6.304C.574 3.722 2.142 1.658 4.303.64 6.108-.21 8.101-.214 9.77.63c1.923.973 3.132 3.56 3.006 6.438-.13 2.954-1.628 5.358-3.912 6.273" transform="translate(48 41) translate(38.208 5.18)"/>
                                </g>
                                <g>
                                    <path fill="#000" d="M1.868.943C1.803.88 1.41.573 1.566.678 1.446.592 1.324.508 1.2.43.954.277.702.136.447 0 .274.395.123.809 0 1.24l1.896.537c.063-.22.136-.433.215-.641-.086-.056-.167-.12-.243-.193" transform="translate(48 41) translate(46.102 9.032)"/>
                                </g>
                                <g>
                                    <path fill="#000" d="M6.616.783C5.103-.126 3.224-.25 1.46.443.943.647.455.913 0 1.231c.496.459.99.914 1.453 1.402.235-.14.478-.262.73-.362 1.188-.467 2.432-.396 3.415.194 1.108.666 1.737 2.565 1.529 4.62-.176 1.736-1.028 3.826-2.891 4.485l.66 1.852c2.284-.808 3.89-3.16 4.192-6.14.291-2.872-.68-5.423-2.472-6.5" transform="translate(48 41) translate(49.32 4.335)"/>
                                </g>
                                <g>
                                    <path fill="#000" d="M8.865 13.341l-.748-1.852c1.568-.628 2.562-2.314 2.658-4.508.09-2.076-.696-3.956-1.912-4.57-1.113-.563-2.462-.55-3.704.034-1.597.752-2.764 2.316-3.203 4.29L0 6.304C.574 3.722 2.143 1.658 4.303.64 6.108-.21 8.101-.214 9.77.63c1.924.973 3.132 3.56 3.006 6.438-.13 2.954-1.628 5.358-3.911 6.273" transform="translate(48 41) translate(57.505 3.223)"/>
                                </g>
                                <g>
                                    <path fill="#000" d="M2.169.807C2.152.772 1.93.437 2.065.574 2.031.536 1.997.498 1.96.462c.057.08-.532-.29-.243-.181C1.467.187 1.212.106.951.049L.713 0C.423.558.183 1.16 0 1.8l1.896.537c.125-.437.285-.847.472-1.233-.078-.088-.147-.186-.2-.297" transform="translate(48 41) translate(65.4 6.515)"/>
                                </g>
                                <g>
                                    <path fill="#000" d="M6.11.783C4.595-.126 2.716-.25.953.443.624.573.306.728 0 .906c.614.36 1.1.86 1.481 1.45.065-.029.13-.059.196-.085 1.188-.467 2.432-.396 3.415.194 1.108.666 1.737 2.566 1.529 4.62-.176 1.737-1.028 3.826-2.891 4.485l.659 1.852c2.285-.808 3.891-3.16 4.193-6.139.291-2.872-.68-5.424-2.473-6.5" transform="translate(48 41) translate(69.124 2.377)"/>
                                </g>
                                <g>
                                    <path fill="#000" d="M8.905.571C7.276-.194 5.33-.19 3.567.581 2.01 1.26.77 2.458 0 3.98c.27.639.475 1.3.55 1.976l.725.148c.428-1.79 1.569-3.207 3.128-3.888 1.212-.53 2.53-.541 3.617-.032 1.188.558 1.955 2.261 1.867 4.143-.094 1.988-1.064 3.515-2.596 4.085l.73 1.678c2.23-.83 3.694-3.008 3.82-5.685.123-2.608-1.057-4.952-2.936-5.834" transform="translate(48 41) translate(77.675 2.51)"/>
                                </g>
                                <g>
                                    <path fill="#000" d="M2.106 1.045c-.118-.11-.235-.22-.362-.321.019.015-.41-.294-.21-.163-.139-.09-.277-.181-.421-.265C.933.192.751.095.567 0 .34.437.15.9 0 1.389l1.852.488c.083-.273.184-.533.297-.784l-.043-.048" transform="translate(48 41) translate(84.75 5.682)"/>
                                </g>
                                <g>
                                    <path fill="#000" d="M6.55.71C5.071-.114 3.236-.226 1.514.402.977.598.47.858 0 1.172c.555.34 1.065.75 1.513 1.212.228-.125.463-.236.709-.325 1.159-.423 2.374-.359 3.334.176 1.082.603 1.696 2.326 1.493 4.189-.172 1.574-1.004 3.468-2.824 4.066l.644 1.679c2.231-.733 3.8-2.866 4.095-5.566C9.25 3.999 8.301 1.686 6.55.71" transform="translate(48 41) translate(87.803 1.688)"/>
                                </g>
                                <g>
                                    <path fill="#000" d="M8.014.613c-1.63-.82-3.575-.817-5.338.01C1.624 1.115.716 1.862 0 2.797c.482.516.887 1.09 1.192 1.713.574-.946 1.368-1.688 2.32-2.134 1.212-.569 2.53-.58 3.617-.034 1.188.598 1.955 2.426 1.867 4.444C8.902 8.921 7.932 10.56 6.4 11.17l.73 1.8c2.23-.89 3.694-3.226 3.82-6.098.123-2.798-1.057-5.313-2.936-6.26" transform="translate(48 41) translate(96.774 .178)"/>
                                </g>
                                <g>
                                    <path fill="#000" d="M6.34.732C4.88-.118 3.069-.233 1.368.415.884.599.427.837 0 1.122c.522.369.97.844 1.295 1.38.246-.148.502-.275.77-.377 1.145-.437 2.346-.37 3.294.182 1.07.622 1.676 2.4 1.475 4.323-.17 1.624-.991 3.58-2.79 4.196l.637 1.732c2.205-.756 3.755-2.956 4.046-5.743.28-2.688-.656-5.075-2.386-6.083" transform="translate(48 41) translate(105.846)"/>
                                </g>
                                <g>
                                    <path fill="#000" d="M1.97.956L1.964.92C1.902.836 1.829.755 1.742.674 1.7.633 1.27.29 1.522.464 1.406.385 1.29.305 1.17.233 1.034.151.896.074.757 0 .445.557.19 1.163 0 1.809l1.83.503c.092-.313.204-.612.332-.898-.096-.135-.165-.288-.192-.458" transform="translate(48 41) translate(102.698 3.747)"/>
                                </g>
                                <g>
                                    <path fill="#A0E2A0" d="M3.726.013C2.67.223 1.62.423.538.436c-.717.009-.718 1.117 0 1.108 1.178-.014 2.333-.234 3.484-.463.703-.14.405-1.208-.296-1.068" transform="translate(48 41) translate(23.316 32.494)"/>
                                </g>
                                <g>
                                    <path fill="#A0E2A0" d="M6.536 0C4.514.016 2.533.436.531.665c-.704.08-.712 1.19 0 1.108 2.002-.229 3.984-.649 6.005-.665.717-.005.718-1.114 0-1.108" transform="translate(48 41) translate(36.001 31.157)"/>
                                </g>
                                <g>
                                    <path fill="#A0E2A0" d="M2.575.266c-.164-.28-.485-.325-.76-.2C1.43.243.948.213.537.214c-.717 0-.717 1.108 0 1.108.632 0 1.256-.032 1.838-.298.275-.125.34-.517.2-.757" transform="translate(48 41) translate(51.786 30.28)"/>
                                </g>
                                <g>
                                    <path fill="#A0E2A0" d="M4.838.007C3.408.21 1.986.42.538.43c-.717.005-.718 1.113 0 1.108 1.546-.01 3.069-.244 4.596-.463.708-.101.406-1.169-.296-1.068" transform="translate(48 41) translate(69.58 28.289)"/>
                                </g>
                                <g>
                                    <path fill="#A0E2A0" d="M4.852.007c-1.485.21-2.97.42-4.45.665C-.302.788-.002 1.856.7 1.74c1.48-.244 2.964-.454 4.448-.665.708-.1.406-1.168-.295-1.068" transform="translate(48 41) translate(91.143 25.629)"/>
                                </g>
                                <g>
                                    <path fill="#A0E2A0" d="M3.595.006C2.597.137 1.604.2.6.102-.113.032-.236 1.134.478 1.204c1.1.107 2.2.04 3.293-.104.71-.093.535-1.188-.176-1.094" transform="translate(48 41) translate(110.995 23.015)"/>
                                </g>
                                <g>
                                    <path fill="#FFB2A7" d="M9.294 1.69c-1.17.647-2.42 1.18-3.66 1.715-1.15.495-3.382 1.515-4.568 2.154-1.237.667-1.386.976-.508 2.604 1.227 2.277 4.164 2.088 6.37 1.86 2.73-.283 6.838-1.757 7.937-4.547C15.86 2.955 12.885 2 11.975 0c.008.015-2.505 1.593-2.68 1.69" transform="translate(48 41) translate(104.908 31.168)"/>
                                </g>
                                <g>
                                    <path fill="#FBD07D" d="M11.16.288C10.521.029 9.827-.033 9.177.015 7.388.147 5.734.97 4.253 1.788 2.93 2.518 1.61 3.088.24 3.754c-.089.043-.168.087-.241.133.097.125.182.26.253.408.956 1.989 1.874 4.857 3.36 6.502 1.1 1.218 4.324.954 6.017.601 3.481-.726 3.622-7.168 3.505-9.811-.004-.092-.01-.183-.018-.275-.696-.122-1.3-.758-1.958-1.024" transform="translate(48 41) translate(113.762 28.26)"/>
                                </g>
                                <g>
                                    <path fill="#F9BE4A" d="M2.218 1.447C1.962 1.053 1.76.373 1.456 0 1.006.217.503.347 0 .474c.185.294 3.687 7.129 4.44 8.14.603-.162 1.19-.354 1.77-.562-.29-1.076-1.33-2.153-1.92-3.1-.718-1.156-1.33-2.365-2.072-3.505" transform="translate(48 41) translate(112.946 31.917)"/>
                                </g>
                                <g>
                                    <path fill="#FFB7AD" d="M10.058 7.267c-.71-.958-.737-1.954-.844-3.067-.138-1.427.296-2.91-.5-4.2.21.339-1.82 2.386-2.095 2.604-.903.717-1.595.673-2.665.563-.966-.1-1.18-.118-1.248.933-.086 1.287.236 2.324-.307 3.559-.37.843-1.975 1.143-2.258 2.054-.522 1.676.504 4.262 1.483 5.562 1.301 1.728 3.578 2.188 5.546 1.562 1.856-.59 2.729-2.288 3.81-3.76.371-.507.771-.948 1.267-1.335.688-.537 1.839-.874 2.347-1.555-.721-.11-.68-.01-1.375-.301-1.327-.555-2.293-1.45-3.161-2.619" transform="translate(48 41) translate(124.518 18.685)"/>
                                </g>
                                <g>
                                    <path fill="#FFC3BA" d="M.161.004C.084.33.05.668 0 1L.625.953C.845.576 1.068-.058.161.004" transform="translate(48 41) translate(132.879 20.093)"/>
                                </g>
                                <g>
                                    <path fill="#FFD9D3" d="M0.11 0.111L0.112 0.109 0.108 0.111z" transform="translate(48 41) translate(130.897 19.852)"/>
                                </g>
                                <g>
                                    <path fill="#FFD9D3" d="M0.11 0.111L0.112 0.109 0.108 0.111z" transform="translate(48 41) translate(130.897 19.852)"/>
                                </g>
                                <g>
                                    <path fill="#FFDDD8" d="M.105.123l.01-.026C.114.107.11.117.105.123" transform="translate(48 41) translate(132.193 18.825)"/>
                                </g>
                                <g>
                                    <path fill="#FFD9D3" d="M0.112 0.112L0.113 0.108 0.107 0.112z" transform="translate(48 41) translate(131.1 19.412)"/>
                                </g>
                                <g>
                                    <path fill="#FFDDD8" d="M.106.123L.114.097c0 .01-.004.02-.008.026" transform="translate(48 41) translate(132.467 18.314)"/>
                                </g>
                                <g>
                                    <path fill="#FFB5AA" d="M.115.114l.034.007C.123.115.097.107.071.1l.044.015z" transform="translate(48 41) translate(127.866 19.15)"/>
                                </g>
                                <g>
                                    <path fill="#FFB5AA" d="M.091.107L.13.113.09.107" transform="translate(48 41) translate(127.895 19.157)"/>
                                </g>
                                <g>
                                    <path fill="#FFD9D3" d="M0.111 0.112L0.112 0.108 0.108 0.111z" transform="translate(48 41) translate(131.151 20.136)"/>
                                </g>
                                <g>
                                    <path fill="#FFDDD8" d="M.114.097L.106.123C.112.115.114.107.114.097" transform="translate(48 41) translate(132.446 19.085)"/>
                                </g>
                                <g>
                                    <path fill="#FFB0A4" d="M5.064.226c-.352.583-.497 1.246-.886 1.734-.173.217-.394.4-.705.525-.708.285-1.742 1.01-2.543.828-.295-.067-.532-.471-.876-.453-.151.008.057.948.117 1.088.19.441.664.773 1.134.846 1.521.237 3.187-1.928 3.708-3.126.137-.315.284-.637.366-.972.068-.277.056-1.086-.315-.47" transform="translate(48 41) translate(127.784 20.647)"/>
                                </g>
                                <g>
                                    <path fill="#FFC6BD" d="M7.225 4.327c-.376-.097-.782.53-1.117.189-.175-.179.023-.575.035-.784.063-1.045.153-2.163-.253-3.152-.308-.752-1.03-.652-1.597-.372-.62.306-1.502.076-2 .633-.142.16-.102.288-.074.463-.198.008-.396.01-.576.008-.149-.001-.292-.034-.434-.066-.135-.031-.268-.062-.406-.069-.28-.013-.271.172-.347.43-.059.201-.108.406-.152.612-.1.474-.338 1.006-.3 1.496.049.637.134.972.044 1.584-.099.675.067 1.363.203 2.02.085.41.394.786.555 1.171.304.724.643 1.226 1.443 1.314.653.073 1.269-.202 1.867-.43.724-.277 1.5-.686 1.933-1.365.364-.571.43-1.34 1.11-1.653.755-.347 1.085-1.767.066-2.03" transform="translate(48 41) translate(126.45 14.186)"/>
                                </g>
                                <g>
                                    <path fill="#36504D" d="M.749.096C.485.141.259.051 0 0c.045.591.17 1.121.553.976.063-.024.646-.35.934-.473.094-.04.156-.058.16-.039-.105-.616-.64-.413-.898-.368" transform="translate(48 41) translate(129.786 17.255)"/>
                                </g>
                                <g>
                                    <path fill="#FFC3BA" d="M.137.01C.066.334.041.671 0 1L.639.93C.854.546 1.065-.089.137.01" transform="translate(48 41) translate(133.33 19.202)"/>
                                </g>
                                <g>
                                    <path fill="#36504D" d="M.554.068C.258-.01.065-.138 0 .466.01.365.677.915.731.944c.094.05.17.065.233.05C1.151.95 1.22.643 1.28.22 1.267.305.611.085.554.069" transform="translate(48 41) translate(126.745 17.046)"/>
                                </g>
                                <g>
                                    <path fill="#FFEFED" d="M.113.114L.15.121C.122.115.097.108.07.099l.043.015z" transform="translate(48 41) translate(127.98 18.276)"/>
                                </g>
                                <g>
                                    <path fill="#36504D" d="M9.161 3.126c-.261-.164-.763-.43-.775-.264C8.523.9 7.174 2.098 6.045 1.706 5.047 1.361 4.745.098 3.668.004 2.83-.069 1.256.806 1.773 1.793.937.196.003 1.27 0 2.606c-.004 1.911 1.554 2.62 3.27 2.8.465.05 1.029-.05 1.454-.248.258-.12.394-.348.682-.435.52-.155 1.239-.02 1.731.188.47.199.375.358.44.88.144 1.171-.16 2.41.015 3.558.042.279 1.345-1.517 1.402-1.643.467-1.026.78-2.206.63-3.339-.041-.305-.098-.906-.311-1.135-.015-.016-.072-.057-.152-.106" transform="translate(48 41) translate(124.83 10.65)"/>
                                </g>
                                <g>
                                    <path fill="#2E4946" d="M7.444 2.882c.033-.406.077-.793-.07-1.194-.263-.716-1.72-1-2.39-.778-.483.16-.867.404-1.387.442-.674.05-1.382-.023-2.024-.25C.96.885.408.527.002 0-.087 1.777 2.91 2.37 4.19 1.788c.313-.142.455-.494.796-.621.388-.144.834-.019 1.212.098.191.06.391.137.534.28.156.156.192.312.195.525.02 1.251.084 2.535-.119 3.77.772.015.556-.58.825-1.047.144-.252.421-.185.602-.36.319-.308.417-1.167.487-1.584-.297.158-1.347.857-1.28.033" transform="translate(48 41) translate(125.416 14.24)"/>
                                </g>
                                <g>
                                    <path fill="#FFB9AF" d="M1.069.202C.856-.21-.264.026.058.747c.254.574 1.381.075 1.019-.532.023.05.003.01-.008-.013" transform="translate(48 41) translate(130.502 19.674)"/>
                                </g>
                                <g/>
                                <g>
                                    <path fill="#FFB4A9" d="M.76.002C.62.346.646.745.527 1.102c-.04.117-.124.22-.214.318-.118.129-.245.246-.281.367-.224.744.76.57 1.032.16.207-.312.359-2.005-.306-1.945" transform="translate(48 41) translate(127.844 18.372)"/>
                                </g>
                                <g>
                                    <path fill="#FFF" d="M0 0c.036.815.488.98.753 1.021.48.077 1.208-.48 1.261-1-.024.002-.048.002-.072.002C1.626.125.07.054 0 0" transform="translate(48 41) translate(127.784 21.307)"/>
                                </g>
                                <g>
                                    <path fill="#050505" d="M.936.147C.712-.03.436-.05.247.098.13.19-.057.429.017 1L.219.962C.179.642.228.41.359.306.48.212.667.231.824.354c.163.13.244.335.216.549l.202.04C1.284.627 1.17.33.936.146" transform="translate(48 41) translate(126.882 18.342)"/>
                                </g>
                                <g>
                                    <path fill="#050505" d="M1.232.15C.938-.03.573-.05.326.1.17.193-.075.436.022 1.017L.29.98C.234.653.299.416.472.311c.16-.096.406-.076.612.05.217.132.324.341.287.56l.267.04C1.692.64 1.54.337 1.232.15" transform="translate(48 41) translate(129.687 18.353)"/>
                                </g>
                                <g>
                                    <path fill="#FBD07D" d="M.814 7.2c-.47-1.823-.47-3.906-.71-5.787-.051-.388.024-.755.33-1.05.75-.729 4.601-.236 5.324.39 1.289 1.113.994 3.448.57 4.9l-.001.006c-.295.986-.778 1.76-.834 2.812-.062 1.181.008 2.164-.348 3.272-.208.647-.142 1.498-.72 1.953-1.316 1.035-3.263 1.41-4.425.097 1.319-1.98 1.395-4.341.814-6.593" transform="translate(48 41) translate(118.474 93.006)"/>
                                </g>
                                <g>
                                    <path fill="#171717" d="M7.18 1.453l.028.034c2.554 3.076 2.269 8.655 2.078 12.411-.182 3.571.597 12.375-2.185 13.299-2.321.77-4.65.04-5.26-.732-.689-.868-.397-3.51-.397-4.66 0-3.38.055-7.206-.607-10.483-.671-3.32-1.596-6.739.24-9.858 1.26-2.14 4.619-1.752 6.102-.01" transform="translate(48 41) translate(116.526 78.513)"/>
                                </g>
                                <g>
                                    <path fill="#171717" d="M7.412 0c1.702.459 3.423.688 5.192.748 1.083.037 2.167.018 3.25 0l.542-.012c1.036.071 2.079.11 3.12.105.448.114.85.191 1.17.213-.113-.008-1.36 3.496-1.472 3.76-.763 1.823-.66 3.102-.91 5.046-.497 3.85-2.189 7.46-4.073 10.762-1.712 3.001-3.477 6.888-6.412 8.833C5.787 30.802.667 31.877.108 28.274c-.431-2.788.524-5.784 1.202-8.46C3.007 13.107 5.183 6.53 7.412 0" transform="translate(48 41) translate(116.518 55.916)"/>
                                </g>
                                <g>
                                    <path fill="#262626" d="M2.26.496c2.38-1.689 5.111 1.322 6.17 3.248 2.321 4.223 3.015 9.355 3.667 14.255.17 1.274.337 2.532.529 3.754.26 1.657.459 3.95-1.331 4.673-1.916.772-4.919 1.565-5.737-.936-1.003-3.066-1.176-6.244-2.072-9.275-.948-3.204-2.308-6.27-3.343-9.446C-.43 5.01.81 1.525 2.26.496" transform="translate(48 41) translate(130.378 79.815)"/>
                                </g>
                                <g>
                                    <path fill="#262626" d="M.973 1.862C2.132-.176 4.547-.815 9.095 1.346c2.532 1.204 3.876 4.653 4.36 7.43.845 4.862.84 10.458.355 15.355-.32 3.233-.682 7.61-3.153 9.856-1.76 1.6-6.226.697-6.984-2.201C2.509 27.339 2.2 25.035 1.61 20.142 1.107 15.962-1.328 5.91.973 1.862" transform="translate(48 41) translate(126.19 51.308)"/>
                                </g>
                                <g>
                                    <path fill="#EFF4F6" d="M.107.117L.113.103C.113.106.11.11.107.117" transform="translate(48 41) translate(122.887 82.548)"/>
                                </g>
                                <g>
                                    <path fill="#FBD07D" d="M3.935.98C4.603.78 5.132.36 5.163.51c.192.934 1.52 2.87 2.449 3.084.576.134 1.628-.198 2.208-.332 1.74-.401 1.946-1.715 3.083-2.812.814-.786.123-.352 1.032-.118.653.168 1.363.471 2.04.66 1.352.38 2.827.859 3.886 1.881 1.34 1.294 1.225 2.778 1.428 4.53.205 1.763.284 3.487.29 5.265.01 3.475-1.082 9.713-1.737 13.1-.854 4.421.196 6.152-4.974 6.891-3.406.487-7.427.792-10.59-.93-4.436-2.414-1.794-6.962-1.987-11.023-.152-3.2-.926-6.3-1.502-9.43C.528 9.85.471 8.517.372 7.104c-.092-1.31-.668-2.74-.175-4.04C.415 2.492 2.453 1.43 3.935.98" transform="translate(48 41) translate(121.313 26.21)"/>
                                </g>
                                <g>
                                    <path fill="#F9BE4A" d="M.741.656c.825 1.405 1.78 2.279 3.56 2.2.778-.034 1.564-.281 2.182-.763.41-.32.868-.581 1.189-1C7.952.73 8.177.34 8.494 0c.289.313.603.638.988.835-.2.37-.44.64-.722.946-.824.895-1.81 1.627-3.002 1.947-1.167.314-2.542.19-3.661-.237C1.556 3.285.993 2.99.62 2.546.204 2.052.25 1.494 0 .932.038.912.396.763.6.692.68.662.736.646.74.655" transform="translate(48 41) translate(126.02 25.765)"/>
                                </g>
                                <g>
                                    <path fill="#F9BE4A" d="M.43.01c.292.105.584.21.875.31C4.66 1.475 7.95 2.273 11.376 2.258c1.965-.01 3.013-.153 5.768-.76.154-.388.193 1.28.198 1.375.024.566.108.878-.398 1.221-.981.666-2.7.77-4.151.761-3.124-.018-6.478-.352-9.703-1.253C2.02 3.303.57 2.97.092 2.188-.075 1.915-.043-.16.429.01" transform="translate(48 41) translate(122.953 55.643)"/>
                                </g>
                                <g>
                                    <path fill="#D9D9D9" d="M.088.351C.115.138.344-.02.592.002c.248.023.432.22.405.433l-.085.67c-.027.213-.256.371-.504.349-.248-.023-.432-.22-.405-.433L.088.35z" transform="translate(48 41) translate(123.693 56.897)"/>
                                </g>
                                <g>
                                    <path fill="#D9D9D9" d="M.096.35C.123.139.35-.02.596.003c.245.022.428.22.401.432l-.093.745c-.027.213-.255.372-.5.35-.246-.025-.428-.22-.401-.434L.096.351z" transform="translate(48 41) translate(125.233 57.424)"/>
                                </g>
                                <g>
                                    <path fill="#D9D9D9" d="M.83.075c.203.136.212.366.09.55C.96.567.89.695.886.712l-.008.02C.872.756.869.779.866.803.864.815.864.831.863.847l.002.021c.095.168.073.37-.101.498-.173.127-.474.116-.607-.06-.268-.35-.158-.806.07-1.15.12-.183.428-.2.604-.082" transform="translate(48 41) translate(126.749 57.84)"/>
                                </g>
                                <g>
                                    <path fill="#D9D9D9" d="M.1.339c.064-.504.96-.42.897.084l-.098.78c-.063.505-.959.42-.896-.083L.1.339z" transform="translate(48 41) translate(128.465 58.055)"/>
                                </g>
                                <g>
                                    <path fill="#D9D9D9" d="M.074.35C.102.138.334-.02.586.002c.251.022.439.22.411.432L.925.992c-.027.214-.26.372-.511.35-.252-.023-.439-.22-.411-.433L.074.35z" transform="translate(48 41) translate(130.034 58.569)"/>
                                </g>
                                <g>
                                    <path fill="#D9D9D9" d="M.075.351C.102.138.335-.02.586.002c.251.023.439.22.411.433l-.07.558c-.029.213-.262.371-.513.348C.162 1.32-.026 1.123.003.91L.075.351z" transform="translate(48 41) translate(131.427 58.624)"/>
                                </g>
                                <g>
                                    <path fill="#D9D9D9" d="M.088.351C.115.138.344-.02.592.002c.248.023.432.22.405.432l-.085.67c-.027.214-.256.372-.505.35-.247-.024-.431-.22-.404-.434L.088.351z" transform="translate(48 41) translate(133.106 58.717)"/>
                                </g>
                                <g>
                                    <path fill="#D9D9D9" d="M.088.351C.115.138.344-.02.592.002c.248.023.432.22.405.433l-.085.67c-.027.213-.256.372-.505.349-.247-.023-.432-.22-.404-.433l.085-.67z" transform="translate(48 41) translate(134.608 58.673)"/>
                                </g>
                                <g>
                                    <path fill="#D9D9D9" d="M.236.235c.203-.462.933-.177.728.289-.113.255-.153.502-.183.778-.055.504-.833.42-.778-.084C.039.878.097.55.236.235" transform="translate(48 41) translate(136.646 58.045)"/>
                                </g>
                                <g>
                                    <path fill="#D9D9D9" d="M.331.243c.156-.474.803-.187.646.289-.106.322-.243.645-.283.99-.057.502-.748.418-.69-.084C.05 1.02.201.634.33.243" transform="translate(48 41) translate(138.016 58.105)"/>
                                </g>
                                <g>
                                    <path fill="#FFF" d="M.185.324C.204.294.207.29.193.308.197.301.208.223.207.272.21.13.362.007.587 0c.206-.006.415.108.413.25C.998.366.953.462.886.569.864.605.838.64.814.676.795.706.793.71.806.692.802.7.792.776.793.727.79.87.638.993.413 1 .206 1.005-.002.892 0 .75.001.633.047.537.113.43.136.395.161.361.185.324" transform="translate(48 41) translate(134.16 67.273)"/>
                                </g>
                                <g>
                                    <path fill="#FFF" d="M.928.224l.071.87c.026.313-.902.333-.928.021l-.07-.87C-.025-.068.902-.089.928.223" transform="translate(48 41) translate(134.188 70.978)"/>
                                </g>
                                <g>
                                    <path fill="#FFF" d="M1 .224C1.003.35.978.475.917.596.895.64.867.682.843.724.828.746.818.769.807.79.804.8.802.802.8.806V.81c0 .312-.801.334-.799.021C0 .627.206.452.199.245c-.01-.312.79-.333.8-.021" transform="translate(48 41) translate(134.128 75.774)"/>
                                </g>
                                <g>
                                    <path fill="#FFF" d="M.46 0C.724-.006.953.11.963.252L1 .726C1.01.869.802.994.54 1 .276 1.006.047.892.036.748L0 .275C-.01.13.2.007.46 0" transform="translate(48 41) translate(134.13 79.844)"/>
                                </g>
                                <g>
                                    <path fill="#FFF" d="M.686.2c.026.13.05.317.186.396.341.2-.071.587-.414.387C.152.805.058.533.004.268c-.062-.309.62-.376.682-.067" transform="translate(48 41) translate(136.242 84.628)"/>
                                </g>
                                <g>
                                    <path fill="#FFF" d="M.852.2l.143.577c.077.31-.77.377-.846.067L.005.269C-.071-.041.775-.108.852.2" transform="translate(48 41) translate(137.71 87.795)"/>
                                </g>
                                <g>
                                    <path fill="#FFF" d="M.822.2l.173.72c.075.31-.743.378-.818.068L.005.268C-.07-.04.748-.107.822.202" transform="translate(48 41) translate(138.951 92.462)"/>
                                </g>
                                <g>
                                    <path fill="#FFF" d="M.372.235c.001-.313.629-.313.628 0C1 .638.9.977.532 1.278.254 1.505-.19 1.162.088.935.34.73.372.507.372.235" transform="translate(48 41) translate(124.248 76.476)"/>
                                </g>
                                <g>
                                    <path fill="#FFF" d="M.228.37L.23.313C.23.143.405 0 .615 0 .825 0 1 .143 1 .313 1 .435.981.54.921.653.871.753.748.836.656.91.508 1.03.26 1.03.112.91c-.15-.12-.15-.321 0-.441L.228.37" transform="translate(48 41) translate(122.651 81.118)"/>
                                </g>
                                <g>
                                    <path fill="#FFF" d="M.484 0c.263 0 .482.12.482.263v.474C.966.88.746 1 .484 1 .22 1 0 .88 0 .737V.263C0 .12.22 0 .484 0" transform="translate(48 41) translate(122.868 87.658)"/>
                                </g>
                                <g>
                                    <path fill="#FFF" d="M.98.298c-.199.408-.215.82-.215 1.244 0 .312-.765.312-.765 0C0 1.076.024.616.243.17c.146-.298.884-.171.738.128" transform="translate(48 41) translate(122.723 94.786)"/>
                                </g>
                                <g>
                                    <path fill="#D9D9D9" d="M.97.462c.154 1.271 1.232 2.7 2.56 2.857.611.073.618 1.042 0 .97C1.625 4.061.227 2.308.004.461c-.075-.62.892-.612.966 0" transform="translate(48 41) translate(131.885 60.659)"/>
                                </g>
                                <g>
                                    <path fill="#FFF" d="M.5 0c.273 0 .5.15.5.332v.38c0 .18-.227.332-.5.332S0 .893 0 .71V.332C0 .151.227 0 .5 0" transform="translate(48 41) translate(133.509 27.037)"/>
                                </g>
                                <g>
                                    <path fill="#FFF" d="M.5 0c.272 0 .5.2.5.437v.125C1 .801.772 1 .5 1 .227 1 0 .8 0 .562V.437C0 .2.227 0 .5 0" transform="translate(48 41) translate(131.617 28.555)"/>
                                </g>
                                <g>
                                    <path fill="#FFF" d="M.236.192c.09-.164.332-.238.53-.163.199.076.29.277.199.44L.764.836c-.091.164-.332.238-.53.163C.034.922-.057.722.034.558l.2-.366z" transform="translate(48 41) translate(128.779 28.673)"/>
                                </g>
                                <g>
                                    <path fill="#FFF" d="M.276.234H.274L.278.233.286.231H.29L.298.223C.334.188.369.15.403.113c.135-.15.36-.15.496 0 .135.15.135.4 0 .55C.742.837.58.986.35 1 .16 1.01 0 .813 0 .61 0 .42.12.277.276.235" transform="translate(48 41) translate(126.839 27.94)"/>
                                </g>
                                <g>
                                    <path fill="#FFF" d="M.5 0c.667 0 .667 1 0 1s-.667-1 0-1" transform="translate(48 41) translate(126.14 26.847)"/>
                                </g>
                                <g>
                                    <path fill="#73B48F" d="M.745.069C.577.315.397.517.153.526c-.204.008-.204.482 0 .474C.483.987.739.74.969.404 1.115.19.89-.146.745.07" transform="translate(48 41) translate(129.884 38.312)"/>
                                </g>
                                <g>
                                    <path fill="#73B48F" d="M1.555.024C1.103.32.61.477.115.579-.087.621 0 1.038.2.997.723.89 1.236.711 1.715.397c.184-.12.023-.494-.16-.373" transform="translate(48 41) translate(126.924 41.752)"/>
                                </g>
                                <g>
                                    <path fill="#73B48F" d="M1.453.038C1.028.383.552.655.077.925c-.177.1-.018.374.16.273.5-.285.993-.574 1.44-.937.158-.129-.067-.35-.224-.223" transform="translate(48 41) translate(131.992 39.021)"/>
                                </g>
                                <g>
                                    <path fill="#73B48F" d="M.854.035C.599.253.364.502.08.67c-.181.106-.022.414.16.308C.525.81.759.561 1.013.343c.16-.137.004-.447-.16-.308" transform="translate(48 41) translate(131.848 41.598)"/>
                                </g>
                                <g>
                                    <path fill="#F2F2F2" d="M.111.108L.11.112.11.108z" transform="translate(48 41) translate(136.638 26.374)"/>
                                </g>
                                <g>
                                    <path fill="#36C236" d="M2.985.06C2.275.297.187 3.5 0 3.46.802 3.63 4.75 1.526 3.959.366c-.253-.369-.597-.435-.974-.308" transform="translate(48 41) translate(138.924 34.846)"/>
                                </g>
                                <g>
                                    <path fill="#FFB7AD" d="M13.039 2.953c-.264-.56-.434-2.223-.775-2.578-.64-.665-1.115-.319-1.844.067C8.052 1.69 6.152 3.865 3.27 5.493c-1.988 1.123-4.64 2.441-2.445 4.75 1.958 2.058 6.16.965 8.438-.148 1.278-.624 2.466-1.326 3.69-2.027.788-.452 1.687-.922 2.468-1.444-.68.455-2.207-3.295-2.383-3.671" transform="translate(48 41) translate(121.027 34.976)"/>
                                </g>
                                <g>
                                    <path fill="#FFB2A7" d="M3.554.822c-.709.42-1.55.86-2.197 1.336C1.227 2.255-.16 3.65.015 3.686c.209.04.891-.163 1.732-.496C3.797 2.376 6.785.79 6.085.108c-.425-.414-2.128.476-2.53.714" transform="translate(48 41) translate(127.861 41.369)"/>
                                </g>
                                <g>
                                    <path fill="#FBD07D" d="M12.155.623c-.896-.543-1.799-.7-2.688-.59-2.83.344-5.519 3.37-7.341 5.149C1.364 5.925.654 6.71 0 7.53c1.513 2.254 3.133 4.702 5.082 6.65.52.52 5.583-4.11 6.017-4.605 1.917-2.193 4.453-6.891 1.056-8.953" transform="translate(48 41) translate(130.177 28.712)"/>
                                </g>
                                <g>
                                    <path fill="#F9BE4A" d="M1.931 1.36C1.65 1 1.346.328 1.031 0 .729.322.366.564 0 .802c.207.27 4.38 6.714 5.181 7.62.434-.296.85-.622 1.257-.96-.455-1.07-1.491-1.983-2.15-2.856C3.482 3.543 2.75 2.402 1.93 1.36" transform="translate(48 41) translate(129.695 35.222)"/>
                                </g>
                                <g>
                                    <path fill="#F9BE4A" d="M3.189.072C2.419 1.399 1.402 2.643.08 3.455c-.172.106-.039.394.136.287C1.586 2.9 2.65 1.632 3.449.255c.102-.176-.157-.36-.26-.183" transform="translate(48 41) translate(129.508 32.37)"/>
                                </g>
                                <g>
                                    <path fill="#FAC662" d="M16.525.016c-1.026-.23-3.433 2.025-4.284 2.587-1.62 1.069-3.279 2.086-5.05 2.889-1.33.602-7.511.96-7.178 3.216C1.399 9.47 3.06 9 4.611 8.603c3.027-.776 5.295-2.252 7.786-4.06 1.464-1.064 3.77-2.655 4.212-4.5-.027-.011-.055-.02-.084-.027" transform="translate(48 41) translate(124.268 39.049)"/>
                                </g>
                                <g>
                                    <path fill="#F9BE4A" d="M4.13.06C3.047 1.373 1.707 2.55.118 3.194c-.207.084-.117.426.093.34C1.858 2.868 3.251 1.676 4.38.31c.144-.174-.103-.425-.248-.25" transform="translate(48 41) translate(136.795 38.544)"/>
                                </g>
                                <g>
                                    <path fill="#FFB7AD" d="M3.42.856C2.774-1.397-1.71 1.373.71 2.58c1.07.533 3.126-.272 2.71-1.724" transform="translate(48 41) translate(122.73 45.197)"/>
                                </g>
                                <g>
                                    <path fill="#4F6664" d="M1.938.88C1.234.96.276.92.143.053.129-.04-.013 0 .001.093c.143.933 1.165 1.022 1.937.934.093-.01.094-.158 0-.147" transform="translate(48 41) translate(127.926 11.595)"/>
                                </g>
                                <g>
                                    <path fill="#4F6664" d="M.238.02C.106-.044-.088.06.045.122c.89.419.81 1.042.343 1.574-.075.086.161.16.236.074.518-.59.597-1.29-.386-1.752" transform="translate(48 41) translate(133.027 14.923)"/>
                                </g>
                                <g>
                                    <path fill="#4F6664" d="M1.819.204C1.229.556.665.377.09.008 0-.05-.039.234.051.292c.6.385 1.194.563 1.807.197.09-.055.052-.34-.04-.285" transform="translate(48 41) translate(127.436 15.017)"/>
                                </g>
                                <g>
                                    <path fill="#4F6664" d="M2.526 1.079C1.578 1.15.742.72.124.024.06-.047-.043.057.019.128.662.85 1.543 1.3 2.526 1.225c.094-.007.095-.154 0-.146" transform="translate(48 41) translate(126.257 13.06)"/>
                                </g>
                                <g>
                                    <path fill="#4F6664" d="M1.401.81C1.041.285.566-.126.053.036-.04.066 0 .28.093.25.55.107.978.504 1.296.968c.068.1.173-.058.104-.158" transform="translate(48 41) translate(130.969 13.726)"/>
                                </g>
                                <g>
                                    <path fill="#4F6664" d="M.973.633C.722.224.438.01.086 0c-.115-.003-.114.292 0 .295C.393.303.63.486.848.84.93.974 1.055.766.973.633" transform="translate(48 41) translate(131.657 12.964)"/>
                                </g>
                                <g>
                                    <path fill="#4F6664" d="M.749.038C.359.477.18.952.003 1.425c-.034.093.23.132.265.04C.44 1.004.606.537.985.111 1.061.027.825-.048.75.038" transform="translate(48 41) translate(132.736 17.463)"/>
                                </g>
                                <g>
                                    <path fill="#4DC94D" d="M12.834 4.717c-.596-.61-1.344-1.003-2.173-1.071-.913-.076-1.761.43-2.423 1.046l-.096.094c-.476.469.237 1.22.711.753.615-.606 1.363-.993 2.206-.75.766.221 1.357.918 1.772 1.596.937 1.533 1.34 3.783.4 5.412-1.028 1.778-3.082 2.688-4.942 3.03-1.925.353-4.153.03-5.683-1.339-1.025-.918-1.604-2.203-1.611-3.622-.008-1.46.584-2.863 1.325-4.063C3.796 3.41 6.457 1.178 9.25 1.065c.647-.026.65-1.09 0-1.065C5.403.156 1.854 3.6.484 7.247c-.68 1.808-.689 3.868.266 5.566 1.04 1.85 2.983 2.862 4.948 3.12 3.628.476 8.738-1.437 9.052-5.891.135-1.904-.621-4.001-1.916-5.325" transform="translate(48 41) translate(79.966 57.165)"/>
                                </g>
                                <g>
                                    <path fill="#FDE6B8" d="M0 .625v2.327c0 .834 1.296.834 1.296 0V.625C1.296-.208 0-.208 0 .625" transform="translate(48 41) translate(112.739 43.655)"/>
                                </g>
                                <g>
                                    <path fill="#FFB7AD" d="M.272 0C.167.007.038.281.016.361-.055.617.135.733.17.957c.05.311-.17.242-.167.481.004.32.847.313.979.056l.002-.004C1.107 1.238.5.52.432.253.404.144.4-.007.272 0" transform="translate(48 41) translate(99.05 25.67)"/>
                                </g>
                                <g>
                                    <path fill="#FDE6B8" d="M0 .447v.925c0 .596 1 .596 1 0V.447c0-.596-1-.596-1 0" transform="translate(48 41) translate(98.448 32.494)"/>
                                </g>
                                <g>
                                    <path fill="#FDE6B8" d="M0 .447v1.85c0 .596 1 .596 1 0V.446c0-.596-1-.596-1 0" transform="translate(48 41) translate(100.486 31.2)"/>
                                </g>
                                <g>
                                    <path fill="#FDE6B8" d="M0 .447v.925c0 .596 1 .596 1 0V.447c0-.596-1-.596-1 0" transform="translate(48 41) translate(100.486 25.097)"/>
                                </g>
                                <g>
                                    <path fill="#FDE6B8" d="M0 .447v1.664c0 .597 1 .597 1 0V.447c0-.596-1-.596-1 0" transform="translate(48 41) translate(105.862 37.117)"/>
                                </g>
                                <g>
                                    <path fill="#FDE6B8" d="M.023.569c.157.506.169 1.016.169 1.542 0 .596.927.596.926 0 0-.605-.02-1.206-.201-1.788C.74-.244-.154-.002.023.57" transform="translate(48 41) translate(106.04 25.098)"/>
                                </g>
                                <g>
                                    <path fill="#FDE6B8" d="M.927.447c0-.596-.927-.596-.927 0 0 .526.026 1.044.249 1.528.105.23.432.284.634.166.234-.137.271-.403.166-.632C.903 1.189.927.789.927.447" transform="translate(48 41) translate(105.676 18.809)"/>
                                </g>
                                <g>
                                    <path fill="#FDE6B8" d="M0 .447v1.11c0 .596 1 .596 1 0V.447c0-.596-1-.596-1 0" transform="translate(48 41) translate(108.828 24.357)"/>
                                </g>
                                <g>
                                    <path fill="#FFB7AD" d="M3.834 1.475c-.25-.382-.545-.745-.92-1.08C1.97-.447.538.134.114 1.406c-.592 1.778 1.268 4.037 2.405 5.21.18.186.358.385.54.58.895-.698 1.888-1.26 2.83-1.89-.185-.29-.374-.599-.57-.948-.555-.985-.896-1.986-1.485-2.883" transform="translate(48 41) translate(97.449 27.007)"/>
                                </g>
                                <g>
                                    <path fill="#FFC6BD" d="M1.932.052C1.415-.235.444.752.189 1.13c-.236.35-.243.881-.066 1.26.17.365.404.722.813.654.884-.146 1.123-.748 1.167-1.537.009-.151.05-.39.066-.634.023-.34-.003-.691-.237-.821" transform="translate(48 41) translate(99.843 27.5)"/>
                                </g>
                                <g>
                                    <path fill="#FFC6BD" d="M.642 0C.509-.012.288.317.244.416.1.733.316.922.314 1.22c-.004.413-.265.28-.311.59-.063.415 1.005.575 1.224.269l.003-.005C1.437 1.772.822.718.79.36.78.214.804.016.642 0" transform="translate(48 41) translate(100.753 26.035)"/>
                                </g>
                                <g>
                                    <path fill="#FFB7AC" d="M.02.277c-.073.173.068.46.142.626.133.299-.418.825.084.948-.195-.048.252-.456.27-.505.038-.11.029-.228.004-.345C.435.603.17.206 1 .074.701-.073.139.001.02.277" transform="translate(48 41) translate(100.793 26.01)"/>
                                </g>
                                <g>
                                    <path fill="#6AAF88" d="M4.498.024c-.134-.032-.306-.03-.495-.006-.516.067-1.156.308-1.475.513C1.454 1.219-.926 2.926.383 4.34c.067.072 1.584-1.043 2.706-1.866.592-.435 1.075-.789 1.177-.843.186-.101.957-.314 1.034-.444C5.562.746 4.92.125 4.498.024" transform="translate(48 41) translate(99.778 31.477)"/>
                                </g>
                                <g>
                                    <path fill="#A9D1BA" d="M.417.033C.084-.134-.179.383.154.549c.279.139.522.325.743.545.264.263.65-.17.387-.432C1.029.41.738.192.417.032" transform="translate(48 41) translate(102.887 31.912)"/>
                                </g>
                                <g>
                                    <path fill="#A9D1BA" d="M.93.47L.917.444.894.374C.867.295.825.22.771.15.651-.006.376-.045.188.055-.01.16-.055.368.068.525c0 .002 0 .003.002.005l.013.026C.09.58.097.603.107.626.133.705.176.78.229.85c.12.157.396.196.584.096.195-.103.241-.313.12-.47L.93.47" transform="translate(48 41) translate(102.119 32.77)"/>
                                </g>
                                <g>
                                    <path fill="#A9D1BA" d="M.69.148C.576-.002.34-.046.168.053c-.172.1-.221.31-.108.461l.25.337c.112.152.349.195.52.095.172-.1.221-.31.109-.461L.69.148z" transform="translate(48 41) translate(100.88 33.867)"/>
                                </g>
                                <g>
                                    <path fill="#B3CBD2" d="M1.327.066C1.207.013 1.105-.005 1.013 0 .76.021.584.231.365.468.203.645.017.876.001 1.112c-.017.261.182.363.352.515.393.35.814.702 1.337.875.616.204 1.082-.599.912-1.616-.415-.26-.824-.62-1.275-.82" transform="translate(48 41) translate(100.103 35.515)"/>
                                </g>
                                <g>
                                    <path fill="#19BA19" d="M.933 1c-1.1 2.334-1.361 7.595-.05 7.121 1.311-.474 4.56-2.491 4.887-4.014.22-1.028-1.144-.664-2.045-1.228-.97-.606-1.84-1.73-2-2.879-.297.154-.563.513-.792 1" transform="translate(48 41) translate(88.453 49.546)"/>
                                </g>
                                <g>
                                    <path fill="#E8963E" d="M2.815 1.657C2.647 1.575.64.087.472 0 .402-.035-.008 3.952 0 4.3c.036 1.658.192 3.834 1.313 5.173 1.318 1.573 2.581 1.055 4.2.396 2.19-.89 4.894-1.562 6.225-3.736C9.664 5 5.001 2.573 2.83 1.753l-.015-.096z" transform="translate(48 41) translate(89.23 43.731)"/>
                                </g>
                                <g>
                                    <path fill="#262626" d="M0 21.504L3.864 27.835 10.571 28.712 24.69 6.868 12.078 0z" transform="translate(48 41) translate(89.701 22.325)"/>
                                </g>
                                <g>
                                    <path fill="#4F8FBC" d="M0 21.2c.289.392.502.82.82 1.181.176.2 1.292.205 1.832.205l11.75-20.023L12.522 0 0 21.2z" transform="translate(48 41) translate(92.746 27.681)"/>
                                </g>
                                <g>
                                    <path fill="#FBD07D" d="M4.351.308L0 7.136l4.093 7.073 8.443.245 4.35-6.828C17.495 6.65 11.9 0 11.9 0S6.643.374 4.351.308" transform="translate(48 41) translate(100.953 16.17)"/>
                                </g>
                                <g>
                                    <path fill="#4DC94D" d="M2.933.054C1.537-.223.237.587.028 1.864-.18 3.14.784 4.4 2.18 4.678c1.396.278 2.697-.533 2.905-1.81C5.29 1.593 4.328.333 2.934.055" transform="translate(48 41) translate(107.11 20.867)"/>
                                </g>
                                <g>
                                    <path fill="#FDE6B8" d="M.718.095C.491.333.354.638.13.873c-.145.152-.184.374-.037.543.128.147.4.19.544.037.227-.238.364-.542.589-.777.144-.152.184-.374.036-.543C1.134-.014.863-.057.718.095" transform="translate(48 41) translate(102.807 22.403)"/>
                                </g>
                                <g>
                                    <path fill="#FDE6B8" d="M.8.04C.686.098.584.173.48.244l-.015.01L.4.292.39.297C.226.297.076.384.019.553-.045.74.058.987.26 1.04c.188.048.36.012.526-.084C.869.91.947.853 1.026.8l.018-.012.012-.008c.028-.018.057-.034.086-.05.187-.095.27-.325.175-.515C1.225.028.986-.056.799.04" transform="translate(48 41) translate(104.18 20.265)"/>
                                </g>
                                <g>
                                    <path fill="#FDE6B8" d="M.658.04C.393.17.138.313.023.6c-.078.196.051.424.242.488.194.066.383-.033.47-.204L.744.878C.73.915.753.877.745.877.76.863.776.85.778.847.85.804.926.768 1.001.73c.188-.093.267-.328.174-.516C1.082.025.846-.054.658.039" transform="translate(48 41) translate(105.745 17.981)"/>
                                </g>
                                <g>
                                    <path fill="#FDE6B8" d="M1.094.224L.508.02C.31-.049.087.065.02.27c-.068.207.043.437.243.506L.847.98c.2.069.422-.045.49-.25.066-.207-.044-.437-.243-.506" transform="translate(48 41) translate(107.996 17.45)"/>
                                </g>
                                <g>
                                    <path fill="#FDE6B8" d="M1.08.124C.84.16.732.114.5.025c-.472-.18-.718.65-.246.829.333.126.632.177.982.127.208-.03.34-.298.3-.517-.046-.246-.248-.37-.456-.34" transform="translate(48 41) translate(110.2 17.698)"/>
                                </g>
                                <g>
                                    <path fill="#FDE6B8" d="M.73.213C.637.025.402-.054.214.039.025.133-.054.367.039.555l.292.586c.093.188.328.267.517.173.188-.093.267-.328.174-.516L.73.213z" transform="translate(48 41) translate(112.582 18.341)"/>
                                </g>
                                <g>
                                    <path fill="#FDE6B8" d="M.966.594C.95.574.933.552.917.53L.88.476C.826.39.78.299.734.208.513-.237-.178.105.044.55c.13.263.285.506.491.717.147.15.38.18.545.037.152-.132.184-.393.037-.543C1.065.707 1.014.65.967.594" transform="translate(48 41) translate(114.037 20.298)"/>
                                </g>
                                <g>
                                    <path fill="#FDE6B8" d="M.111.1c0 .006 0 .014-.002.02L.11.1" transform="translate(48 41) translate(115.639 23.35)"/>
                                </g>
                                <g>
                                    <path fill="#FDE6B8" d="M.306.039C.084.134.002.365.104.555l.01.017.005.018-.002.026-.001.01.001-.01C.116.607.098.69.094.708.072.77.047.832.023.894c-.078.199.05.42.28.487.23.068.487-.042.565-.241.123-.316.206-.612.035-.928C.801.022.52-.053.306.04" transform="translate(48 41) translate(115.593 22.782)"/>
                                </g>
                                <g>
                                    <path fill="#FDE6B8" d="M.269.253l-.247.73c-.158.47.573.716.732.246L1 .499C1.16.029.428-.218.27.253" transform="translate(48 41) translate(114.46 25.563)"/>
                                </g>
                                <g>
                                    <path fill="#FDE6B8" d="M.715.02C.497-.048.255.062.182.26L.022.7c-.074.2.046.421.263.488.218.067.46-.043.533-.242l.16-.438C1.052.308.933.087.716.019" transform="translate(48 41) translate(112.844 28.229)"/>
                                </g>
                                <g>
                                    <path fill="#FDE6B8" d="M.947.182L.51.022c-.2-.074-.422.046-.49.263-.067.218.044.46.243.533l.44.16c.199.074.421-.046.488-.264C1.257.497 1.147.255.947.182" transform="translate(48 41) translate(111.232 29.1)"/>
                                </g>
                                <g>
                                    <path fill="#FDE6B8" d="M.083.109c.143.05-.028-.047 0 0" transform="translate(48 41) translate(106.697 28.523)"/>
                                </g>
                                <g>
                                    <path fill="#FDE6B8" d="M1.023.52L1.02.519l.001.002C1.014.516 1.005.51.995.507l.022.008-.072-.08C.857.332.771.228.677.13.53-.02.297-.05.132.093-.019.225-.052.486.095.636c.207.212.366.488.655.6.195.077.423-.05.488-.242.067-.196-.037-.39-.215-.473" transform="translate(48 41) translate(105.719 28.062)"/>
                                </g>
                                <g>
                                    <path fill="#FDE6B8" d="M.106.106l.008.008L.11.108c-.002 0-.003 0-.005-.002" transform="translate(48 41) translate(106.683 28.524)"/>
                                </g>
                                <g>
                                    <path fill="#FDE6B8" d="M.934.617L.937.605C.95.572.962.54.977.507 1.056.308.922.087.68.02.438-.047.167.063.085.262c-.11.268-.124.52.023.78.107.191.405.266.63.174C.972 1.121 1.057.891.95.7L.937.68.935.67.931.655.932.63.934.617" transform="translate(48 41) translate(104.404 26.499)"/>
                                </g>
                                <g>
                                    <path fill="#FDE6B8" d="M.68.021C.437-.05.166.07.084.286l-.06.16c-.082.217.053.46.296.533.243.073.514-.048.596-.265l.06-.16C1.058.338.923.095.68.022" transform="translate(48 41) translate(103.727 24.646)"/>
                                </g>
                                <g>
                                    <path fill="#FDE6B8" d="M.893.783C.883.764.873.745.866.726V.725L.857.699C.853.679.848.659.845.639V.635C.845.617.847.6.85.584.85.605.867.512.87.506.938.307.825.087.6.019.383-.047.13.061.06.261c-.12.348-.047.658.128.976.245.445 1.01.104.765-.342L.892.783" transform="translate(48 41) translate(104.966 23.92)"/>
                                </g>
                                <g>
                                    <path fill="#FDE6B8" d="M.852.02C.652-.047.43.063.362.262L.312.413.264.521.24.558.23.566.214.574C.028.672-.056.9.04 1.09c.091.185.33.272.517.174.309-.162.43-.441.537-.757C1.162.31 1.051.087.852.02" transform="translate(48 41) translate(105.005 21.436)"/>
                                </g>
                                <g>
                                    <path fill="#FDE6B8" d="M.8.04L.213.33C.025.423-.054.658.04.846c.094.187.33.267.517.174l.587-.29c.189-.094.267-.33.174-.517C1.224.025.987-.054.8.039" transform="translate(48 41) translate(106.477 19.25)"/>
                                </g>
                                <g>
                                    <path fill="#FDE6B8" d="M1.633.16C1.19.004.657-.088.216.124c-.458.22-.113.992.343.773.2-.096.592-.003.828.08.474.168.722-.65.246-.817" transform="translate(48 41) translate(109.209 19.088)"/>
                                </g>
                                <g>
                                    <path fill="#FDE6B8" d="M1.15.547C.974.483.807.331.74.203.505-.234-.188.107.047.546c.182.341.493.598.855.731.468.172.712-.558.247-.73" transform="translate(48 41) translate(111.789 19.712)"/>
                                </g>
                                <g>
                                    <path fill="#FDE6B8" d="M.945.884L.939.871l-.01-.03L.878.652C.837.503.795.352.73.212.64.023.397-.052.212.04.02.134-.05.365.038.555l.027.06.005.012.009.031c.02.062.036.126.053.188.04.15.083.3.148.44.09.19.332.266.517.174.191-.095.264-.326.174-.516C.96.924.953.904.945.884" transform="translate(48 41) translate(113.06 22.24)"/>
                                </g>
                                <g>
                                    <path fill="#FDE6B8" d="M.458.038C.263.136.202.362.285.554.259.494.28.613.28.555.281.638.29.546.261.63.237.7.183.768.131.823c-.146.151-.185.375-.038.543.129.148.4.189.545.037.311-.323.527-.748.337-1.19C.893.018.64-.052.458.037" transform="translate(48 41) translate(112.854 25.016)"/>
                                </g>
                                <g>
                                    <path fill="#FDE6B8" d="M.998.02C.799-.048.577.063.509.262L.458.409.444.441.43.467H.427L.42.472.411.474C.377.483.342.488.308.493.1.525-.034.75.008.948c.044.213.248.331.456.3.182-.03.373-.095.504-.23.14-.144.21-.323.273-.51.067-.2-.043-.422-.243-.488" transform="translate(48 41) translate(111.48 26.91)"/>
                                </g>
                                <g>
                                    <path fill="#FDE6B8" d="M.996.025C.876-.023.76.005.666.08.613.063.56.044.508.023c-.2-.079-.421.05-.489.286-.066.234.044.496.243.574C.4.937.541.986.685.998c.248.021.458-.13.554-.399C1.321.371 1.185.1.996.025" transform="translate(48 41) translate(109.48 27.536)"/>
                                </g>
                                <g>
                                    <path fill="#FDE6B8" d="M1.046.362C1.014.352.982.34.95.328.934.323.852.288.843.285.81.268.783.25.753.23L.745.224C.726.199.698.15.733.214.631.03.411-.056.216.04.034.13-.06.372.042.556c.162.291.454.433.758.536.2.067.422-.043.49-.242.066-.2-.043-.42-.244-.488" transform="translate(48 41) translate(107.283 26.799)"/>
                                </g>
                                <g>
                                    <path fill="#73B48F" d="M.98.557C.738.334.476.147.202.014 0-.085-.087.367.114.464c.247.121.48.296.7.497.178.166.345-.24.166-.404" transform="translate(48 41) translate(111.279 42.904)"/>
                                </g>
                                <g>
                                    <path fill="#73B48F" d="M.174 0c-.232-.008-.232.595 0 .602.19.007.374.092.515.313.169.267.425-.158.255-.425C.734.157.461.01.174 0" transform="translate(48 41) translate(112.384 45.778)"/>
                                </g>
                                <g>
                                    <path fill="#FFB7AD" d="M1.643.036c-.126-.05-.39-.053-.506.021-.151.098-.083.29-.218.383C.732.566.6.29.503.602.479.678.52.826.465.893.404.968.32.907.27.945c-.234.177 0 .5-.194.65-.02.015-.038.033-.052.062-.102.22.155.504.29.65.218.235.334.594.576.794.189.158.464.216.438-.197.233.22.182.554.552.553.247 0 .066-.676.062-.737.104.051.143.248.263.219.272-.267.15-.984-.028-1.228.427.585.32-.42.181-.687C2.193.71 2.004.18 1.643.036" transform="translate(48 41) translate(97.593 26.563)"/>
                                </g>
                                <g>
                                    <path fill="#FFAB9E" d="M.076 0L0 .154c.484.454.787.909.929 1.389l.015-.005c.024-.059.028-.084.061-.135C.84.924.55.444.076 0" transform="translate(48 41) translate(97.944 28.044)"/>
                                </g>
                                <g>
                                    <path fill="#FFAB9E" d="M1.357 1.741C1.197 1.147.79.572.125 0L0 .17c.69.593 1.208 1.296 1.363 1.846.043-.127-.025-.113-.006-.275" transform="translate(48 41) translate(98.2 27.403)"/>
                                </g>
                                <g>
                                    <path fill="#FFAB9E" d="M.756.622C.702.552.126-.048.1.003L0 .188C.017.155.595.687.64.746c.302.382.552.813.563.912.013-.199-.048-.403-.128-.57C1.005.946.83.722.756.623" transform="translate(48 41) translate(98.66 26.85)"/>
                                </g>
                                <g>
                                    <path fill="#FFAB9E" d="M.111.094C.109.104.109.115.109.126.112.118.11.11.11.094" transform="translate(48 41) translate(99.808 28.461)"/>
                                </g>
                                <g>
                                    <path fill="#FFB7AD" d="M1.808.09C1.768-.279.937.597.864.73c-.217.4-.346.916-.477 1.348-.166.55-.665 1.92-.181 2.374.43.403 1.325-.2 1.646-.586.032-.04.06-.077.083-.114.372-.605.074-1.336-.065-1.931-.14-.606.005-1.132-.062-1.732" transform="translate(48 41) translate(106.114 39.193)"/>
                                </g>
                                <g>
                                    <path fill="#FFB7AD" d="M14.985.022C13.089-.068 3.3.257 2.233.12.368-.122-.437-.242.234 2.272.638 3.783 3.127 4.576 4.39 5.083c3.588 1.444 8.022 1.891 11.718.587 1.537-.542 3.043-1.438 2.686-3.278-.39-2.014-2.057-2.287-3.81-2.37" transform="translate(48 41) translate(106.94 41.782)"/>
                                </g>
                                <g>
                                    <path fill="#FFB0A4" d="M1.247 0C-.163.742-.243 2.499.343 4.573c.37-.343.851-.568 1.398-.586l.146-.002C1.535 2.567 1.023.118 1.247 0" transform="translate(48 41) translate(107.544 36.79)"/>
                                </g>
                                <g>
                                    <path fill="#FFB7AD" d="M4.059 1.23c-.36-.35-.462-.543-.86-.854-.305-.239-1.55-.614-.911.06C2.02.155 1.143-.17.74.105.678.25.917.344.958.487.882.467.07.077.012.386c-.088.463.345.48.57.824-.516-.133-.507.226-.352.5.078.139.312.288.418.431.334.449.668.897.807 1.389.279.982-.191 4.027 1.584 4.033.786.002 1.522-1.436 1.929-1.958.611-.785.76-.886.404-1.975-.261-.8-.694-1.8-1.313-2.4" transform="translate(48 41) translate(103.999 36.758)"/>
                                </g>
                                <g>
                                    <path fill="#FFAB9E" d="M.22 0C.14.043.103.046.014.073L0 .097c.606.311 1.113.878 1.551 1.73l.24-.092C1.361.899.814.352.221 0" transform="translate(48 41) translate(104.4 37.94)"/>
                                </g>
                                <g>
                                    <path fill="#FFAB9E" d="M.346.078C.138.062.171-.019 0 .004c.66.327 1.428 1.143 2.015 2.149l.245-.116C1.693 1.067 1.06.421.346.078" transform="translate(48 41) translate(104.791 37.172)"/>
                                </g>
                                <g>
                                    <path fill="#FFAB9E" d="M.71.304C.517.154.267.024 0 0c.127.038.62.481 1.033.989.064.078.593 1.004.543 1.02l.274-.098c.074-.028-.542-.967-.62-1.058C1.124.726.88.433.71.303" transform="translate(48 41) translate(106.01 37.03)"/>
                                </g>
                                <g>
                                    <path fill="#FFAB9E" d="M.13.113C.119.11.104.109.09.109.1.105.111.109.13.113" transform="translate(48 41) translate(105.944 36.973)"/>
                                </g>
                                <g>
                                    <path fill="#F9BF4E" d="M4.232.133C2.96 2.095 1.729 4.12.078 5.795c-.251.256.164.624.414.37C2.174 4.457 3.43 2.386 4.727.387c.194-.301-.303-.55-.495-.254" transform="translate(48 41) translate(100.564 17.024)"/>
                                </g>
                                <g>
                                    <path fill="#F9BF4E" d="M.269 1.213C2.315 1.2 4.333.873 6.345.54c.353-.06.203-.593-.147-.535C4.233.33 2.266.647.268.66c-.358.002-.358.556 0 .554" transform="translate(48 41) translate(105.929 15.802)"/>
                                </g>
                                <g>
                                    <path fill="#171717" d="M2.68.08C1.404-.328.216.863.026 2.742c-.19 1.878.69 3.732 1.965 4.14 1.275.409 2.463-.783 2.653-2.661.19-1.879-.69-3.733-1.964-4.14" transform="translate(48 41) translate(115.774 79.752)"/>
                                </g>
                                <g>
                                    <path fill="#262626" d="M1.564.018C.546-.165-.143 1.05.025 2.733c.17 1.682 1.132 3.194 2.15 3.377 1.017.183 1.706-1.033 1.537-2.714C3.544 1.713 2.582.2 1.564.018" transform="translate(48 41) translate(128.637 80.418)"/>
                                </g>
                            </g>
                        </g>
                    </g>
                </g>
            </g>
        </g>
    </g>
</svg>
